<mxfile modified="2020-08-05T12:37:43.990Z" host="app.diagrams.net" agent="5.0 (Macintosh)" etag="fCLeC-2SSCQ-064j0yCt" version="13.6.0" type="github">
  <diagram id="_FYfWjUaClksR24mImdf" name="Logical SAN Fabric - Redudant ISL - HyperSwap">
    <mxGraphModel dx="2014" dy="1175" grid="1" gridSize="10" guides="1" tooltips="1" connect="1" arrows="1" fold="1" page="1" pageScale="1" pageWidth="1169" pageHeight="827" math="0" shadow="0">
      <root>
        <mxCell id="IfvViQirqnI56DDQwfop-0" />
        <mxCell id="IfvViQirqnI56DDQwfop-1" parent="IfvViQirqnI56DDQwfop-0" />
        <mxCell id="IfvViQirqnI56DDQwfop-2" value="&lt;b&gt;Site A&lt;/b&gt;" style="shape=mxgraph.ibm.box;prType=classic;fontStyle=0;verticalAlign=top;align=left;spacingLeft=32;spacingTop=4;rounded=0;whiteSpace=wrap;html=1;strokeWidth=2;dashed=0;container=1;spacing=-4;collapsible=0;expand=0;recursiveResize=0;fillColor=#f5f5f5;strokeColor=#666666;fontColor=#333333;" parent="IfvViQirqnI56DDQwfop-1" vertex="1">
          <mxGeometry x="84" y="80" width="400" height="690" as="geometry" />
        </mxCell>
        <mxCell id="PqhAA0QRvtxAwvTUZkwT-7" value="" style="rounded=1;whiteSpace=wrap;html=1;dashed=1;fillColor=#cce5ff;strokeColor=#36393d;" parent="IfvViQirqnI56DDQwfop-2" vertex="1">
          <mxGeometry x="93" y="310" width="117" height="160" as="geometry" />
        </mxCell>
        <mxCell id="PqhAA0QRvtxAwvTUZkwT-6" value="" style="rounded=1;whiteSpace=wrap;html=1;dashed=1;fillColor=#cce5ff;strokeColor=#36393d;arcSize=9;" parent="IfvViQirqnI56DDQwfop-2" vertex="1">
          <mxGeometry x="50" y="120" width="120" height="150" as="geometry" />
        </mxCell>
        <mxCell id="PqhAA0QRvtxAwvTUZkwT-0" value="IBM FlashSystem" style="shape=image;verticalLabelPosition=bottom;labelBackgroundColor=none;verticalAlign=top;aspect=fixed;imageAspect=0;image=data:image/png,iVBORw0KGgoAAAANSUhEUgAAALIAAAAgCAYAAAC2JCIgAAAgAElEQVR4AVW8Z3CdZ3YmCJFEBm7OOSfci5sjLoCLnHMiCRAECBJgThIpUaQCKVIUFbulbqmTFSiKEqlASS11t7qnp2dtb22tt9vlDuPd7rZVY7vKdrl2/Gd+zLrWM8/Ucy6htn98hYvv+97znvfE55z3vbcGwEP/+q//in/6p3/CP/7jP+If/uEf5PO//Mu/4J//+Z/xp3/yx/jpT3+Cn/3sZ/jZz34qn3/ykx/jJz/+Mb744kf40Q9/gB98/jk+/+wzfPb9T/H973+CTz/l9Sk+/vgTuT75+BN89NE9fPDBh3J9+MGHeP/u+7h7533ckesu3n33zr+7br/zLm7ffg/vvHMHb799G2+99Q7e5PXm23j9jTfxxhs38cbrb8v1+hu89/b9d27hzbdu4a0338Ebb9zCm2/y/9t46+a7uPn2u9W/t+7g1q338fatO394drP67K2b7+Gtm3fx1lt3cPPm3a+ur/5/+y7efud93JLrA7xz+0Pcvv0R3n33I7z73sd4784nuHP3U9y98ynu3P0EH370A3x074f4SP7+QP7/4MPP8f4Hn+L9Dz7D3fe/L+9zDN/fvt6787HQe/c90r13n/bHuHOXc9zDe3Lvnny+fftDvEN+bt2Rv++++yGq48gXn9396vktked7uPn2e7L2N968jTflorzexuuUKeVGeb55Czdv3sLbN9/Brbdv4/Y7732lozt3PsDdux+IPqnbe/c+xr17VT1/9NFH+OTex6De7937CPfu3cPHH3+MTz75WGyDdvLZ9z/D9/n3s0/xOe3n8+/L9cMffl61qR98hs8++wR33nsXvPf//Pb/xq9//Ut8+eWX+Nu//Vv8zd/8Df7+7/+etvo5gKaaL//Ll7//3/70j/GTn/4EP/4PP8YXP/kCP/rxj/DJ9z/GC197GVvHzmHr6KNYP/QIDmxewMbmI1haOYml5ePYs+80lvaexOLek1jYcwLT84cxu3gE0/OHMDV3EHNLRzA9t4XxmUMYnVzH4OgKhkdXMDG1jqGxdQyOrKF/aBV9g8vo6p1HV2UWA0N70TewF53d8+iszKOrdxH50jjKXdPo7l1AqXsOueIE8sUJZAsjSGb6kSuNIZ0fRjo/gmRuBJnCMOKpHrQne5DKDSKW7EcsOYBYoh+ReAWeQB5OTxr+UBHRRC98wQ64fQW4fXm4fTnYXQn4Ajm4fVlYbO0wW2Ow2aPQGjzQG72wOaIwmIPQ6v3Q6b3Q6VxQKC3Q6V3Q6T1QqZ1Qqp1Qqe1oVRhR36iGXu+ASmNFq8IMBS+lCU3NOihVZihUFjQ1G9HYZECLwoTmVj0aGzVQa2xoUVjQ3GpFcyvHWNDQoJbnKrX1/jMLVCoHVGobmlt0aGrWCm3+36KwoqXVCoXSJmNbWo1Qa+1Qqm1QqBxoVdqhUNmEJ76v0Trlf5XGCbXGBZXGAbXGDp3eCaPJC4PRB6MpAKs1BLsjDIcjDK+3HR5PHB5PEl5vGoFABqFgGm2RHGLR/P2riES8A6lkGalUJ7LZCgqFPhQL/SgVB9DdOYSeyigG+icwMTGP6endWJhfwezsHoSC7YhGs9iz7wA+uvchfvXLX+E3v/4NfvHzX+Av/uIv8Lvf/u7/+8Uv/mK95uZ77/63XCmHUqWEjq4SCuU88uUcit0ltCUieGDHTrTH0xgZGUd3dw/S6Szy+QJy+QJcbh+KpU709PQinkgh1p5AqaOMULgNPn8Yo6PjyGbzaGtrRzyeQi6Xh9PlQ6XSh/6BIWSzRblfLHYgFotDqdRjZnoW/f2DyGSKyGby6Ovrh8vllbnn5uYwODSEjo4O9PT2olKpIBAIYXJyCpOTEyiXO1EqlTA6OopoNIZisYzduxfR19eHYqmESk8PBgb6YbXQIBqFn+XlvRgeHkaxWBJ6HJvJ5LC4uIi5uVmUy13o7q5gZmYGbZEYiqUO7Nu3grGxMfT09GF4ZESu9vYEyN/S0iJ6e/vQ1VXBxMQEKpUe4f/gwYOYnp7GwMCgyGt8fAzpVEbGLMzPyxylYgdGRkfR09sHrzeAlX37MDY+ge5KL3r7BoQHl8uD7u5e7NmzB4ODwyh3dmF0dAzDwyNwOl3QaPUYGR7G3OwsSC+VzMi6SDPSFsPupSUMDAwgnyugkC9icGAQZrNF1jwxPo6OEo0ti45Sh8jZZnfIe2Oj5DeLWLRdZNXWFpV1DQ0OIpXKIBhsQzQSQzKRgtliRTyelHF+Xxhulx/hUBQ+fwBKpRrZbA4+bwAWsx0Omwt+XxAqlQ6hYEQui9kBk8EOl9MLm82BxmYdYukBxGJpWC122G1O2KxOuBxe+L0RDPbO//81r99+55/KlTIGRgfQO9SLSn83egZ60D8ygHg6jp07d6Bc7sbmsdPYu34Yk4urmF3ZwMTMEpKJPCanF7B++AQmF/dhbHEfFlY30F0ZRDrdicMnzmBp9SDG55cxtWcNM4srSCY7sLRnPw4ePYmFlQ2ML65gft8GevtGYLEmsXFoC/s3j2Fm9yrGF/dhcd8aYvEO9PaNY+PYWew9dBJTK5uY2X8MI5OLiEbzmFtcxfrRs5jdt4XJlS3Mr24ik+tGR3kImyfPY++h05haOYyZ/ccxPrcCj4eCMyCbLWP9yGnsO3wW0yuHMc3n8/uQy1WwtHwAB46fx/TyFqZWjwnN9ngHCoUKDh47i+XNUzJmZu04Rmf2It6ex/zuNWycOIe51SOY5Hyrh9HTOwKXO46Dh09g/5GzmF89XH22vIFMpgPziyvYOPYg5vcfxuTyIczs28LA4AQCgSwObB3DyuZJTO5ex+TyJuaX98Pry6KrewwbR05hae0wJpbWML18EKNTC3C5wlCrDZiansfBo6cxu2cdI3PL8nx8ck4i4eaxk1jeOIqppf0ydnF5FW5PCr29Yzh4pKqTkdm9mN67jsmZRYTDeYyNL+DIiTOik7G5vVgQfQ2Jjo+cOIU9qwcwMbcbkwvLmF3ci0Qij7mFveBcs0srGJ2ax9ze/Rgdm0IwlMDxk6exuHcVI5OzGJ9dwuKeFSQTBexbPYD1g5sYm5rF8Pg0Fvfuw8DgCGrr9VBqvLBZ3GLYer0RBoMJKoUOOo0JFl0CNbfuvve3xa4iegd70d1fQUd3EcWuArr7uhFNRrGrdifaoikcfOgaDl74GvacvI65o1fQM7YHwUAOPYNzOPr4N7D/oeexdOoGJtcfQrYwhGCogI3Tj2Pr0ivYc+o65o9fw9DCJoKBAsZm9+PIpZew/6HnsHjiaUwfegyZfD/05i4srBzC0ce/iX1nn8UC6e07gWCkgmyuH+unL2Pt7HXMbz2OyY0L6Bqch8+bw8jUCjYvPI+9J57CzOEnMbZ8DNF4F5KpHqyffBz7zz6Duc1LmFx/WPi2O4JQKAyIRFJYOfIIDpx7FotHnsDUxkX0Tawg1t6F8fk1bF54EUtHL2P60BMYXdpEuK2CWKyI9VNPYO2hG5g/TD4eRWWUsshifP4ANh95HntPXsXs1hMYXT6FfGkQNkcae9aPY/PCS9h9/Apmtp7EyJ5jiETI+zK2LjyPfaevY+7IZYzvP4dSeRhuTweWD57G4UuvYO/Ja5g5fAUj86twuLuQyQ3j4ENXsXH+Bew+fhWzh59A9/AibPY2aDVm9A5N4sijL+LAuRewRPluPoHu/gnE2nuxeuQcDj/+KpZP38DCiWcwOr8Gu6uCTG4Ah85dx4FHXsLuU89g7thTqIwswe0po7tvHkcffRZr56o6nt18DNlCP0KhYlXHF7+OvaevY+HE0xicOwSfL4XhyRUcf/xrWDv3HJZOPo2ZzcdQ6hyCy5PG+vGHsXmRtnQV88evYnhmFaFgERNz+7B14QZWTj2FhWOXMX3gPArFfuyqs0Fn9GF13wE8c/0Gnr72DB5/7DIeevARPHX5GsrpSdTc+uDOf86V8+js68bE7CSW9+9FR6WIzr5OhNsj2LlrFwLBGKampyWddjJ9FwsoFDrgC3Qil69gZnZG0jfTekdHHolUL7z+PGZmpjE+PoGuri6USgUUS2X4AmVUeoYxOzcnabbc0YFSqYhEshNqYw9GRkYxMzuHvv4BlIoldHV1wOPvEKOcnBjDyFA/ysU8SoW0wBa3t4ju7gFMTYyip7uMYi6DckcWwUgB0fZOTE+OYWTw/ph8CoV8AUazH/UNSgSCcUyMjWFsZBBdHQWU8mnkczmEo13o7RnA9MQoujtLKGRT6OzIwRsgbMphanIcI0MDKBdzMiaXK8AXKApkmp4aR2+lE8VcWnhMZbphsaUEZkyMj6DSRR7TKBayCISy6O7uA8f093ajVMiiVMggm++FzVnA2OgIJsZHq2PyaZGFzdmJeLIPU1MTGBkeRLlURKmYRTZbEDyv0VpRKpUxOzsjMKqjWESxkEOxVEEw0o3JyfEq5OnuFj12dXXC4uxDPFnB9MwMRkbH0NnZhVJHEYViGU5PLwrFQcwvLmCAUKbchc6uTsTai/AHCpiZW8DE9DwqvQMod1VQ7OiC25tFV2UEC3v2YWh8Gl09gyh39yKd7YbdmcLs4m7MLK2ib2QKXX0jKFeGxC76hyaxuHoQozN70Dsyi+7+cSTTPdhR54Te5MHa/kN47dVv4d5HH+M73/kefvD5j/D5Zz9AMtorhvyn6Y4s8t1FHDl5FM+/+DyS2TQi7W0ItgVRW7cLHm8Qk1OTGBkZQnd3dSHFUpdMnsmURai9fb3o7OxEV1cJyXSveJ4Ie2QE3d3d6OzsQEe5C14/jXNAxgz098sYPkukOqHUlQW/cVxvby/K5TK6uzvhDXQgnigLDh4cGhTH6OwqI5fvgNOTQ2dnHyYmxtHT0yM4uaurjHCkgEikgKnpKQwNDaGLfHeWBdMbjB7sqm2C1xsRRxsZGRYeOR9xdbitjEqlH1NTk4IvOY58+ENlBIIpuT88TJrVdVHhXn8W3ZU+4XGb93K5A+lsBRZrO8bHx+Wq9FRkXeXOTgRCaXR192FickICAeVX7iwjV+iD3ZnD6MgwiKVZC5BWd6UbNldZMgZ5k3V1UR9VWVhsMWg0ZsGwXDexMGmS/1JHLwLhToyPj2JsdPQPNLsrMDt7EI13YmpyAkMi306hWSh2weHpQS7fg5mZKfRRx+UyKN9orACfP4tJOhTtgnyUO1AodsDlyaKzqw/T01xXLxisOsu0iy7YHHFMMbjImE6UGUDKvfD4S+jpGQCdvbfSLffLHUXE4hXsrHdBpTajkCtifGwSfX2D6O0dRCFbxkDfCDKJYdTc/vDuT7KlLAgvDh3dxJmHHoTV4YFKY4Db70ZdQx1sNpcUVx3lDmRzWaRSKSnSHK442qJJ9PT2oFAoIJ1OI51OIBRhtR+qLryzE9lcDql0ColkWqr/TLaE3t4eFItFZDIZpNMphMIJtKjCKHUQD/d+RS+bzcDuaEMwlBRjKxSr8ySSCbS1xWCxBJBO50XwfJf3U6kEXK4QfL4YKpVu5At5mT+ZiEtRaTBY0dTUCofTK4oulorCeyIRR3t7HC5XBJlsXoyX/JEmebTZgnC5g2JQReEjhWQygVisHVZbAJlsThw9l8shmUyC9EKhdugNHjF6Gmk2m60+SybgcPqRzuTEyfL5PJKppNCLtCVhMPnvGyGrfI4hD2npkviDcZE5M1kmm0EqnUQ0Godeb4dCoUE8npDnsq5MGqlUEu3xDByuKHoq3WAUzlGP6aTIX2uIIhBKoLevR+RPOXK9LNBNlnbEEzkMDPbd1xczYQY+fxQOZwT994NRPp9DJpNGIpGCxRpCLldC/0A/Sh0l4Z98EsqZLH4MDPaLDAuFPLI58l+EzdmOjo4u9Pf3SsFOGdLWAsEManaosWNHPXbtrEftzgbU1OzEzh31aKhtQXODGuXCLGru3vvgHg0535HFiTMncPGxx9HYrIBCpYbT60JtfS1cbq+k/1y+apDxOA2CynOJAEWgVHgiIQJnxe1weKXqlTGplDyLtcfgdHqRzmSFnhheIoF4Ii7dB4XSIF0BLpAGFI+3ixKsVod0Tmj4XByNhIqNRqNwODzI54vIF3KiaPJGhTudbkSjCREKhbg9JhaLwWg0Q6c1IhyOolAsgkIT50zEwfFer186M+Rj+z75sZhtCATDotBtgxRDjsZgd7iQTme+cs6qLJLw+9mucqKrq1vmSVPZyYQYudvtlTF0TnGYBO8nEApFYDbbJXLTQGhUdAryolbrEI0mpQsjsrhv/G3RNmh1OhgMZiSTKdCIt3lMxOPi9JQ9s85XekzEZT6NxoBwJFodI4EqKXJoi0ZhNNmRyeTFIClHyoeO4XZ7EAhEqjq+P4bzRKNtsFjsSCbTVdln0jKGa/Z5/bBYHFUeqMdUUnQfibTBZnMjk81iO1C1t9OBErA73HjggZ3QavVwuzzwuL1iK+2xBLo7K4hFknj9u3dR8/btd75LQ87kk9g6uomnrl2D0+OB0+uB2+/FrtpaaQVRwC6XEzabTQyIDDucLkRj7QiGgrBaLfB6PWJgVF4o1IYUDcrlhN1hRzgcAg3Z4/Ejk8kiHA7LfZfbJQryen3QaPQoFEoIBPyw2zkmLIK2WGxIpbOIRMKwWC0wmUygQQaDQWkBMXpyHr1BD5/Ph/Z2GpZDWoJUsNFkhNFkQjgSQSQSgVarQ3dXn8AHKstqs0Kv13/13OPxIZVKg7zp9DoEAgFxKrPZLK1FOtA2H/zMtTkcTrSLE7DfaoDb4waV4fF44HC4RankyWQ2wev1yrrYSkskaew+WCwWWQMdzufzw2K1i2KdTicsFrPInMasUqkRT6QRjUVFfjYbW10JkYXBaITPHxTnCIZCsi6HwyFOHAyGqrLPZuF0OkSPoVBIjEyt1iAabReanI/6Ih8h6tVml1ZrWzQCm90Kv98vz/hepK1dPrvcbrhcLlk/5Wuz2ZFIpkRffI/yo8NTFnR4Ohg/86KMqFfKgoGAn91uN9ra2oQ27aC+vl4yaS6blWDAgMYg09XZiVQyjf/9T/6v/1nz1q2bL7OPnM2nsby6F4e2DqOtPYtYqgC334ddtbtAxXp9Xmi0WigUClGGzW4T5bGPa7aY0dLaCp1OV1WI0ykRMRwJQ6lUQqlSwmAwwGq1CsMUvMXMjQEFtFqtGCZ7oFQSow7pqFQqeeZwOmAwGCVlUSk0Vj6jUXGRjLyx9jiMRqPcp0HS2TgXlUPn0uq0UGs0whtp0JDj8bQ4jdvjEd7II43MbnfA4/GiLRoT41ar1cIHFaXXGxAIhkDFkUeujWvnfDTkQCAofPE++SCPdDBmFDoG59BqNdBotMIf10yF/VveTSYjPF4vTGYr2KslLY1GI/NxLUqlSlI+jY2yowzpBOSBbSlmG0Y43uNYvkMDp/M4XW5xZI6hDLkGGhNpEqZZbbavaJrpWA6n9G0Z4ensrfd1zLlIPxJmYHKDMvq3fNCQQ+EwzGYTmpubRRbUB2VP+dKw+b7IjzJyOsUuwuGI6KK5pUUCD9/nPLW1tZLZtrMcMy7thP+nEhn82f/5y/+35tZ7t1/KFrNIpOOYX5rHiVMnEYtn4AlEvjJkh8MFei8Xuh0luSlBA/P7g8III2EgGJRCjB7FKCqRy2KRaMGUxDFmud8uYyhcjmMhRk9vaVHc90KbeCW9lYUKG/ZMfRQAjZd0mR6Jy9lPjMbicDjsslhCHuI2CjsYDEu05GdGcEYCpla1Sg2lQgmfj5kjLO8yclNALKw4XzRGGOQUmsR+LCTpjIQDjFSkST4Ij6qyMIjyKHzyGQqH0D8wIJHKYDRLtKEyuU4qgDiVxk+j45qYXXhx84bZieuKtbfLPBzDKMRLoVCKg1JunIsRsIonc1CqVGLMvEfH4zs+v094p96sVrvIgXxUo2RS5NiqUIqs6NRul1v4yBcKwqdGo0N7nNHUJc5AOtQXswt1TzqUBddL4yJEokPRkJ0Oh4zhO+xciSE7HFWd3OeBY6rQwi4ZkbIg38xy7IIxINTW1okeaEN0fDFgMeQ4cpkCfvGLX/+u5r0P7r6QLWYQz8Sxsn8Fx04cgzfgF3jh8XtRW1crRskFcAIKl2mNBDkJoxdTI4UXaYuIIVJQJpNFFE2PpxHxYsqXiNEWlQhPGnQQGhCF0dyskDTJyCNp7z5mrEbCMHx+v8xDWhxLnMZ5wuE2ESgNi1dbW0SivM8bFKMj7xQCeSQ/zCzEWnQOGonAnlg7aMz832qxisP6A35JfVwvaTCSMgMEggH5n+vhfD6vF0Y6dSCAQNBf5SHaJjxSFlwzUzWjF52TY8gLow3XSYfenoNro8J1OoPsTjITxmLR+yk4gtZWJUIhOrUfwWBAxlEnlA0hgtFkFkOkAXMO0qexfBVcYoyiHuGBdPlOS3OrGArH8H3KtsqvV7ApgwN1TGhG3mlIJpMZHq9f3vcJj9Rvu/BEPBsMVe2FNkF61DHHWCxWsZOqLcUEI1PfZrNVnIGfyRfnIRzhmpqaFcIf6VM+VZyekgK+XOrEL3/5n/+Yhnw9VUgjkUtg8+gmNre20NUzgnSRLRGfGDKFwxRPLEwvYQSg5zAlMo3QkyksttloCFQQI4rX5xOhMWLJGIddFsNF2J1VHMYtXI/Xc9+QW0EsR9jCbXAWOaTHqMACjHRpUL09bAnlJG0zK9CZmMLZnaDnUzmMnsRdxIPkmy0xtqKoUJVShUK+Q7ZWLVZrNSt0daGjXBKjYkSmsskH242M4lSIRq2R1MjMRCzH6M0oybnJB6MUP7No4RY6jYKGTKNk2mR6rrYomYF8sJgtgqWJcyk/RmPKxuF0Cvzx+/xSl1CufE5ZtLZSqWEw9VPhXC8Ni/ogNJOiyO2G3W4ThTOTcC7ifTo9jZWf2QumTigPQgbK0GSuOhzXTFhIhyIMY81D/fN9diHoyAwuLpdb8DQDANuD5IPr5TOOpQyZBWkzdGLWNpQtoRkNlXJtj7eLXq1WwjNGeb+8TxkyI2q0OjS1qCRQbQcB2gCjPNdS6erB73/35fs1b91+65FEPoVYqh0r6/uwd98KhicXUaiMwRMKCj4hY4waNMzdu3dj//79AraJs2jIZIBKPXDggJwHoMJ0Or1EXU7GMwh8RqHTKN0erwiG0ODAgQ3Mz88JjYaGJhEajY8K39jYwMDgALQ6vRQJdBgWZ7y/f/+qpDHiO6ZiOsPU1BS2NjflTEPVyaqpjQLg/BxHoTY1NQtEYGpkUUbFrK6u4sCBdUmbjLxULBVB3o8ePYrR0RFotBpRBOdilCHN9fV1cSDyQcUypY+MjIBnK3hWg0UhOw2EDTRS9pOPHT8m50HII9+nwvp6+2QMN5dsYpQakTcVOzk5iUOHDgmUam5ukS4SDZDGQPntXV4Wg2hqbhVDpjORZke5jAPrB+TcCN83Mrh4vcLL3PycyCOVSqKpqUnkT15YkHNdS7uXJAAoWpXw+vxCj31rypB9b6l5bHYxUDr52v79WBY+4oJ/aaxOl0PkRhmx766TusEiumJU3b+2H7v37Jb/GQg4hnwuLCyIjVFXxNgs9gg/GI0ZHFxOhzQXaHcD/cP48su/ebnm9Ztvnkzm0whEwwhEgwi0BRHNZOCPxWH3uCUiU7EUADcA1tbWML+wILiLeI3pgq2VxaUlMXIyQUCvVmvFu+j5a+trcshlaHgYGrVWsCG9eGlpSe7v27dPjKaurgEer0/SGulRAJNTUyI0Ym4aAnuTu3cvidEWC0W0tijFgNiHJT3OPz0zDRZNxOP0XEbjxaVF2dFidlAoVSAuZKahsRLzLS3tFoNhT5yRjUbJdLi4uCAHgXiYh9GpWhf40d8/IAbEg0DsD1MWFCzHkA8aMY2FkEml0kqmIY979+4V5Y2Nj0k3hYGA7UcGCB70If+MyOSP0IbGSHocR+dmHcHKnwZOh9m3uor5+XlpS/IglEqlkTkJVRYWF4UeDxhRdgwulAcjPGXOOclTY2OTREVCFR504lw8NEXDaW5qlcDDz3v27AYPWc3Ozko2JhwgPRo4dcX5SI/OxjUwgq+sLMu46empqvyMRslmo2OjMobzBAMBaR1KpujsFCOmjpmhGhob/50hMyBE2/Pw+cKSdcZGxvHll//lUs379z48Hc8kYXPZ4YnEES30wxf2oFAuoC3eJoZMxdLDWQEzvbPyZopgNU1DZsrgtd21oLKJbejhvMdnep1OqnhGZFbrrOgZkarVPaGIAfUNjXAJ7jXJfd7jfKxumXqYglkhkx7TPHEp52Exynn4PrsTrNL5Hnlkda9Rq8UABUMajWJ05IM0mZKr66h2PcgT0zONUm8wCB9cL+dk1BUIcT9i8l3OU/2rgd1m/4rv7fvkiSe+GAjI4/ZlNBjks8yj1wsNYnfSMhlN0lXYlh8NkHKiLGgk7D4Q9lT5pty1IgtGTzob18SOQXUt1a4Q5U2IQz2SBz4TmlYrGhubBbtWYUGVF/Jtui8rQjTRl8koY8mHalu+9mr3hM9Jj3QVCpUEM9KozktZW6G8rweumTzwGd+hHqkzFuzb97kmztPSqkBzK6FFUKBSwB/EzNo1hGMV7Ny5U+796le/2qy59+m9E5FoBK3KFjhDWWSGNhCOBXHi5HEs7J5Hc0uzGBJ7sRQChcvPVKxWo4VepxcmeZ8T8xmZo/GTed5juhCGqXiNFharTRbMaLi9GMIXRmRGMPZhCfo5huNpyCwS6EiMAMR/HMeL89CZKByP2y33OG/VkKrKZDG2zR8VzOjJliKhCuECjYxwhq00zsd5+Jn0+Yxr3cag5JMpUrAs20P3+eB85JewgOsl9iYt3mN0peyoZEYU/jWbzNIW3J6H9Ih7ORfnpdMQi5MOsbLQttnQ1NwMq80pY4l9uVaOoYOxENTpaTwmaSUKH9SJ0Sjyo5HwfV58Vr1vEahFp9+WLz/zGelKW81abbdtj2ExTJ1Q7pQFZfQHPgwiXxr1tr2QDiGWtPzutyU5hvKp8m6QdhvH0CYoQ43ygTAAABfbSURBVNoAn7e0tKJVqZEagxtkPPI5t/V1OPxF1NTUiB5+/vOf76358OMPD8ZSCah0GrjbCsgOHkA4GsBjTz6GA4cOoFXR+lWPkMKmIXFBrFQZEYRhl0sUxPusstmPZYuLyqcBCa5xu6q9aDHkat+TRdk2LQqvtrZeDJkYm7iLWI/4lZGUQuPCWK1zbi6YF42SRk46TLecTzoMajX0LMDsdhE0n3l998e0sq9tknOz3GygULk2t8cl9Bnt6VB0ju31smDkeqk4KoX02CkgXuaa2fqiIXJ+pmimSbakqKhWhUr4Iy+s/InLWTtwJ45rYtYQGd0fS6Ogg3J+yoDPhEe/D+yxWmzcWOHmTPU+n9FoiJEZdekcnIs8kx9CFBai1BVput1/0Bc7P81NzTKGeotIN8gt87HAI3STQoxFs2xAVfVJRzMaKUOzyJs8VPlwiPFxA4r/U34ik1BQnJP7ANvr3ZYd10tH5Pycg7UYgwxlRMelg0rHItoGny+I2cOvIJEZhbK1Vc5N/+Y3v5mr+fDeh/vSpTzMThuCyS7khjYQjPjw6GOP4sChDbQqFFLVUhDbRkElkQl65XaqpXIoTBoeowefOV0uqdS5IDFYv0/SDo2EzNMQKVgqimPYL2Rvlc+5eM5BQZAWhcboROFyHiqDY+mxvM8ozfu8aGQcw+jEFMxnpMeL6YtRhuOYsmlIYjAc66rSZeRgNCSP2zSZIVQq0tR/tWNGeuSD77CbQFqcrzqPQwyIxtPSohTF8DnXzOeUCaM41yr3vV6RL9fLaKhQKmWtfC6GL8p1S/HDXT/yRjrbtDgvsa5SpZFC6A/ytYtOGOXpOOSV75IP6oRYltiaPPCiATE7MWDwf8qpqvvquiRgBAKyXurEKnKnHBjcqhmCxretq+0CjtmDm2bUM+XNXeLtMVwv5cQARh1wTdwU4l/yplBWz4/Irp8niKXjr2FoZB+8brfUSn/3d383XPOf/uQ/7Tn90EmsHVzD6taDKI1tIZqI4MyDZzAyNoKGxgYxZuJFTsj0tJ0iqAimI4NBL5dKrZJUzXdoSIxQgvvuG3b1vkqiCe8zWpEWIx1xaF1dXXWMhhi8uvNH2hSm4F4N+6QmaDRqubh4OhojL/nbnpdpicYq2JI416CXVEyszDGMnpyXn7dxKSGGWq2SlLaNPbczDnfkCJm4puqYKmbm8yqkqO428tn2JTK6j4mJ85guJWqb+JUl8qaTsSxKSYfrIn3uQm4HAkZdqQVk15LObBQYQGhG+jQ08sZ1UQ/sxrDYI680WuLwbflu645Rj2smnxzLudi1qMIZRt8qlKM8+A4dlHyQX27XK1UKGcNuAoOYSsNaxCz3OYZrYTuP/FC/opP78/A+dUE6fCbr1WrlXfK3vftKnkUXBgMam5oko3GDKhQKIBhqx8TGS7C6UwItCoXC//yrv/qrnpovvvhiaXC4H23tEeR7JpAbPoRoIoy1jTV0VrpQ31CPllZuGRoRikRQkhNwOam0yQgZZ+Rl34+HWHgIR4xQqZAU7AvwAE5eTmmxwc2URJzJqMD3eTKOVT+Vwq1ICppeSTo8CcfnnINFDAWay+dR6e2RDgoraSqBygi3RdBVqaBy/ytQHEM8zsjKMTzSyCqYvU4qgQUTIQnHZvl8cFC+YpTOZAROkQ9/MIBKT6/Mx50udm9Il+vLFQro6++XfjFptrS0iIIi0Sj6BgbQe/8ZFcYCjYYcCIXQzSOZXV3IFfJigFS0x+cDj3UWOzpkXaRPpTOqtcViMqa3r082o5qaqQuLOHy+WJT3O3gkNBAA25fkUa/XweXxCL1coSi0GdkZLEgzwq+BlUrgmgiDKEMGArPVglQmLWdhKH/qlbKSGsTlEjlSlvyqEjMGsxOhRSKVElp8xszFzECDJbSR9/M8fZj+Skb8+lQynZEx1C+dRwKi0YhYPC6y5fzM1Dx9SdlyB9bHDB2MY2rjBRjsETHkzs7O//HXf/3X5Zr3P3p/gbtRDU31sPlSyAwehDfgwsbmAQwMD0jrg4SYrskYLyqY6Yc4jhUnsRqvQKiKb+hdxK7EZsQ8HEPIwTTDwsdm5SmyoGxchNvCwjCNm4ZM6MAFsJ/JFhLHU2j0/khbWOAG3yHO4jyMGOyCcG6n2wnH/UNKEhH1BqFDKETHYera5o3jaERMVz6/VzZo+I5EQY1W0iTXxI2b7bFKFXG3XnqahD0Ol0OgCo2e6yVc4NYsoQDTInmkoxDXErf7g364PC5xVDoYnZqKp3zcXjec9+ESozNlSzlQhpyLaZjGyKjLiCx62H7mYY/YKJmL9QThAw8NEWNyLOnSOciL0OR9n1f4JP6l4ZE2nYFj3F6P6IpZkNmQrUjSkw0u0nM5xbgILajH7VqBsIRz0F44L3W3PQ9lQWhBwycP27xRN9vZnvdkvT6P8MbgRphC2XIebpP7Au2YWL0Om6cdDzxQw378f//tb3+brfnkk49m25PtUKgVcAbjiHXMwOG2IZqIwuVzYdeunaLw1bVVxOIxYYSpmwxxo4KReGhkCA6nXZRsNLN/y90dI1b3V8cwmtMAzFYeLlJicHAQPMxOgegIS0wG6I0GaQMNDQ9ieGQIJoupmoIs/FaxQoxn7cAa2GGhQZKWyWKWqEt6/YN9sNG4TSYxvGrv24etI1sSrdm6Y8QhpqOREHvROA5srCGVSckYrsnC9yxW+dbL2MQYrHarzEODVmk0YkAbBw8gFKmeLpMxElF0mF+Yx8DQoBg418yxFjFYtfTSS+USLDaLZJ3qRokaC4sL6B/sh8PNbyobZX5Gb0bD/WurSGfTMj+dhevj5gCj3J7lPfD6vfLMbKl2KahwlVojX4IYHh0Wx6YxUlbEuTT+9QNrwjvly/loYHV19XI+hYfk6VCci+syEtpodLJ5MzY+KnQM99dFA0umUljcvQiX2wmT6N0s+qTsZ+dmkC/m/90Y9u+5+7qwOA+bwya64jzkkb30pd2LiMTaRPfkgXpW6wyw2KsbJQwUXl8AsVQ3wuF2GI0Gboz9ty+//DJe89ZbfzTTnkrAymhAT/T74PC4YHU6YLKZ5fQbI9f4xDhiCe7pV7c4g+GQYFMe4+zq6Qb/J4APhnn43C0YbWZuBtF4DL7A9hhWrkpJh9093XK2gcYskeo+sO/p60FPXwWBUEAMnZCBmI5GR6jTFmsTb2WHgeMYJZOpBLKFrPBGxUSiYREOjaXSWxGeJMp43JJNGAlpyCyIyvy2QzxWjVzkPxQQAVMJmXxWOhJ2p0O6KEyljHakyUzCqOPyVncGCX2KHUVkCzkQTnEMjZ3Zg1FtYHhQAgEzU3XNAUnNnV38Dl4GoXBQ3qX8SJeQZHB4ENF2fvu4GiW5bdzY2Ig2bk1TFtE26Y7QoHkRwnBthGqFjqKsm/NzTYym1Mvo+ChCbWFZF42W/JBmoVQU/klT+Av4Rc6kxy9UUE6cg8/aYhGpTbi7uS0LRlZ/wCfPmQ07uztlXezocAwDEDE5N896+3tFv7QXogFmBW7hk1Z7Mi5r8viqmaqZnRh9NYqzQKX8vR6nnI9hobq2tv5ff//730dqvvvdb0119PRibGk/esdnMbF7P4bnlpEsdUNrZLrfKandy7TodYuHafVaiRzsCpgsFvCZzekQxRjFm1mEqBDgOV2PS97V6LUSEdlId7Da9/skYjBSG+jNZjPq6holrXkCPoEIWr1OPHd7k4Pno10et0Rvta668UFBM1JxDKOpWqsBswLHcLwvFIDD7QIjCZ8x8pMHjqNhunxeuHwekG+VtkqTqY5rdfu8EpnUGrXQ5L4/sxHPoDg9LuhNBggf9ws2rvXf8qE36gWqEFoIHyILFsBVPliQuQgbfF7JCKRF/hjFNbo/8M6opdER71sFs5qtNjkrTh50Bh00evJVhVnMklwv+aBcNKRp0AtGZ/HtCwdhZ/Q3G4UmMTMLY46hHJgZKDfSrWJ1hUATHiAz2ywiQ8qZBSwzIscQ0jGzcr3bhfa2/CRraqu8EyIyEpM3Ojrn4XoJ5wi1SIvjSIPPuF7Zdtfz/Hn1bDeNmd0RwhMeI1hbW//Hv/zLv/TXfOf118ZzHWUsHTyO89dfwZVv3sTayQvwhNuhUKnEkFtbW2Bx2KA16NDS2ozGpkY0NzfJjhIrUKPFJNCkqblJOg8siOiVTONUTnNrsxSNLCqUcp7ZCL3ZIGNIq6G+Dq2tzWhoqJe0wmdKVat0THhP0doqrS8qs1XZioaGOtTV1aJOxrWAhqbSqtDY3CD3+M1v0mMPnE7XomhBfUMdamt3ob6+VhRHmgpFqyhToVKgobFextbX10lHhIphRU7+6uprZT4WYEqlQuSgEP7qwfeFR97X62S9TS1NaGysPmNXo6mpUZSu0qjQ1Mwt1+oYPqMD0ckpI/LA6Mj1SKfEYoJSXR3T1NQg/JIW5UADUKoVQo98cRydk9CCDqYzGkRXzS1NUqyzG0IHNVnN2OaDayMPzBjkQ28yolWlqG6CqZQSdQlXqs9Ir0Uu6lG6QveDEHkkLXYYSIs0OY/WoBdavE/b4H06nNHKH6VRCu+8v13I875ap4XIr6lR9EdcrdUZ5dgCMTzhBf/ynAkNemPj4N/9+Z//uVMMmYVSsXcIL9/+FC+++RGOPHwFWqMFTS0twkBDYxMampSob1bhgZ0N2FXbiOYWHpjXoVVJ49KirqEFdfVslaih1Rmg0TECmqDS6NHQ2CrbjGRIb+Av8ligN1rRqtShoZG4Tg+9wQqdgfct0Bo4N89DcAOCWJgeb5X7SrUe9Y0KoW8w2WEwOeTS6vlrPDooVAZ5l2MMZgd0BhuUGiPqZB4jjGa7XCaLXXggLxxT16CCWkOsboXRZIVWxzaVCU0tarS0aqHRmWAwWqHVm6HVc11sDalAfnR6E/QGEzRct9YgvLe0aqDWUg7cNtdBpSZvWvkaWUurGmoNW4LMHLoqrWYVGhoVwgPlx7EqtVZkTBkplHyP7S9eGrmampVobFYJnValGkq1Rgy5VamCUkWDUEGh0slzGrhSydaYEs0tCtTWNaG5WSXb5zS+Zl6tCtTWN6K+oUXOyrBDwtTOi5GxtrZRvuvI/9n23B5XV9+IXbUNaG7i+y1SgDML8ZzErl31cvSABSUdjvc5V21dg2yANTU236dT/UvIV1OzQ6Afi0bak9PlRby9XQyYRsyrGpE92Nra+t2f/dmfmWpef/0748SwxcoAvvX+D3H927dx9JGnoDaa0dDchObWFkTas5hcXMfywQfx6LVv4di5p7G0ehQrB09L73n10Dk89vSrePKF17H/yHmsHz0n18axCzj9yNP41lsf4+pLb+LQyYvYOvUojj34BLZOXsKNr72J1978FCfOP42DJy7g0MkLWD98DkdOP4HX3vgIF576JlY2zmD14ClsHD6HpX3H8OTTr+HWBz/FoVNXMCc/WrKJmaVDWDv4EL7z5ie4cOU1jMzsx/DUMgan9qB3eAFbJ57ErQ/+Iw4efRylrlEUu8flKlXGkMh2Y2PrIt5+/z9iYu4I0rkKch19SOV7kCkM4Nrzb+DomatoT/N3PgpoT5cRbMugXJnEpauvodw7C28ghlg8i0g0CX8oidPnbuDo6avwh1Pw+KMItSXhC8ZR6hrDk9e+jen5DTg9EUSiKbTFMnB7ozhx9irOX3oBHn8K/HJpMByH2xuSb1Q/cfVVdPdNwWhxwun2IxCMwmRxYOvYo3j6xquwWP1SEPF+INAGl8sHq80nzzcPPwSHix0dYl7iUQeyuW688PXXsbRnHTqdSb4u5vEQs1tw7ORFPPbkMzCZuCHEb+C4ZDMqkyvjlW/dxPDwtHxX0253yqlDtjCPnXwYx06ckXYmD4zxNKLJaMH0zG689PK35ZvrPBxVPVHIzTEfzl94Eg9fuISAfC0uLN+GIZSZnl3Cy698W77jWOKvHZUrsNmccqaCX2jgbvC2MbNuWl9f//XPfvYzXc3rb31nnO20TLmCF964iydfeQPLh89Cqa2mBXqQ3uKR6OYPRHHxuT/C0PwhiSQWuxdOXxsYGc9degaXv3kHvnAcBrMT3lAcFocPyXQZ333nM2yeeRJqnRXecByBaFqi7/Ezl/D6nS8QiJVgtnsRiGZhd4fEKF745tuYXT4OrckBm9OPYDQNvcGMvfuO4bU3PkAkUYHWYILTE5JvfSfTJVy8/CIqQ4tQMXqaHXDwF4U0evQPzeGZl76HXGlQMola54BK74RKZ0VDUzN6+qZw6cqL8AaS0nxnNtKbrBIdVzdOo294TiIqI6LF4Zbo5Pa2YXRqL+yugOBFg8kqcIBRfWpuP4bHl+TUGyO/ycJWmxq+QBSLezaRynbIGKOZc/C32tQYGJ7F+NRutLRyq5sHmaqbLC5PAPO7D8DLn5VSV6M8IzYxat/gNBaWVuXgOed3OHyw2z1Ck1mut39cfs+C79qdrupcCoX8TsmBg8fRPzgimcRstsFCXtRajE8sYWV1XU7ZEauzncbUH4kl8fDFy0il8uD73OJnW45ZZXV9C9Mzc1KX0MAddqccXR2ZmMeTT12Xb7RYbdWvOXFLnFvsZ85dkq/V0RHYR+dPnLGrMT2/F9efeV4MO5XJYWpqWn5dKJVKSYHHSExDZmuP7b6lpaWf/+hHP9LUfO9735oIRyPoGZ3BviNnsH7yPNZPPox0uQKlRiVpoKnFjNp6LVRaF9ray1CoXVCqLbDYQ9CbvFCoLQi25WFxxtGqNMHqDMLpiaK2QQWj2QN/JAelzgGFygR3IIYWpQEqrRG+UBKeYAoNzcRUbhgtXuyobYGBkcefQGMrfyqJxtqGxib+QJ8GZs5p5ncJW2C0uNGqtmDnribojfwRDy927OQ2rQEag0s+85lW70RTqx61dcTBrXjggV2oqXlAGuq7dtVBo+NhHD127NiJFgXntKKmphaNzVq0KkzYsZPYu1V+YHDnrgbs2EVs7cDOnc3YsbNefoywsVktX1Mnj41NakmpdXUKKNVm7NhRJzS4fvLNOZtadKhvaJU0ym+t19WrsKu2Drt2kX89amp2YVdts/xgISHHAzvqBALV1rUIbw0NhAha2dYnTCC9hkYN6uoV2LWL0E+FuvoW4Y/zaHUW7HigVmAe4QlhAiGEls7c0IydO+sFyjU2tUqLj7BJozXigQd2oKlJAYWiunPITRe9nptXDWhqapHfbKMDsC3I46ps1+3aVVuFmFq99I4JRRjheZ/fAtKo9dBqdFK40iHoaISvOq0BJhO/G6iAQc9vGCWQyxahVlW/W8iOBaMwL0Z3h92BpcWl/+PevXuqmpu3b04EI0EpYExWkxRuRotZijGVVgmNNoj2+CY8vjWkskexsu9FpHPHUejYwsDYw+joOQazewLl/pNIlo7D6Z+FNzSLjv6DUGhicPpLCMUHYHXnoTW2odg1A3+kBJsziUh7BfH0AOyOGELhDgyO7EY41oH2ZK/8+mYy3Y9kqh9jk2sodk6j1DmJSs+s/MJnqWMSQ6MrmJ47iOHRZUxNr2Fx9xGMT6xiz/JRHDh4HpuHH8HK6gkc3HoEW4cfxur6GRw6fB59ffMod05heHg3Tp66iDNnL+PYycs4fvISHr30HE6dvowTp57ExSdexLmHb+Chc0/j8tWX8cSVb+DiYy/gyWsv4/JTL+PJK/z7Ip5+5hVcvf4NXLn2Ii5fexFPP/tNXHvmZTx5lZ9fxbPPv4qr17+O689+Azee+waefubruPHca3jm2Vdx/dlX8PzXvoMbz7+Ka898HS9+/du4/uzLuHrtRTz3wqt47sXXcPnKc7h+42u4TpqXn8PlKy/gpa99S+4/8cR1PHP9RTxy4TIOHz6Lra0zOP/w47hy+RlceuwqLl26gitXbuDh84/h3LmLePTRJ3H+/EU89NCjuHz5GVy//gIef/warl19Ds8+93VceuwpXLr4FF584RU8deUGHr14GU89dR2PPXYZJ46fwYVHLuHs2fNYWzuIrc0jOMHfftu9jJXlVZw8cQpbW8dw5OgJXLhwEQ8++DBOnzyLy5efwhNPXMH584/g7NlzeOjBh3Dq1GmcOXNW7j388AU8+ugl3LjxHL72tZfxyjdexR+9/ia+9903cOPGC6h096EtHEE81o5wKIxIKIw2/lCm14eHH37kp1988UXz/wIB6itZWvNrOAAAAABJRU5ErkJggg==;fontStyle=1" parent="IfvViQirqnI56DDQwfop-2" vertex="1">
          <mxGeometry x="93" y="619" width="178" height="32" as="geometry" />
        </mxCell>
        <mxCell id="PqhAA0QRvtxAwvTUZkwT-14" style="edgeStyle=orthogonalEdgeStyle;rounded=0;orthogonalLoop=1;jettySize=auto;html=1;exitX=1;exitY=0.5;exitDx=0;exitDy=0;entryX=0;entryY=0.75;entryDx=0;entryDy=0;endArrow=none;endFill=0;strokeColor=#B3B3B3;" parent="IfvViQirqnI56DDQwfop-2" source="PqhAA0QRvtxAwvTUZkwT-2" target="PqhAA0QRvtxAwvTUZkwT-4" edge="1">
          <mxGeometry relative="1" as="geometry" />
        </mxCell>
        <mxCell id="PqhAA0QRvtxAwvTUZkwT-18" value="&lt;span style=&quot;background-color: rgb(245 , 245 , 245)&quot;&gt;ISL&lt;/span&gt;" style="edgeLabel;html=1;align=center;verticalAlign=middle;resizable=0;points=[];labelBackgroundColor=none;" parent="PqhAA0QRvtxAwvTUZkwT-14" vertex="1" connectable="0">
          <mxGeometry x="0.8432" relative="1" as="geometry">
            <mxPoint x="9.1" as="offset" />
          </mxGeometry>
        </mxCell>
        <mxCell id="PqhAA0QRvtxAwvTUZkwT-12" value="&lt;span style=&quot;background-color: rgb(245 , 245 , 245)&quot;&gt;ISL&lt;/span&gt;" style="rounded=0;orthogonalLoop=1;jettySize=auto;html=1;exitX=1;exitY=0.25;exitDx=0;exitDy=0;entryX=0;entryY=0.25;entryDx=0;entryDy=0;edgeStyle=orthogonalEdgeStyle;endArrow=none;endFill=0;strokeColor=#d6b656;gradientColor=#ffd966;fillColor=#fff2cc;labelBackgroundColor=none;" parent="IfvViQirqnI56DDQwfop-2" source="PqhAA0QRvtxAwvTUZkwT-3" target="PqhAA0QRvtxAwvTUZkwT-4" edge="1">
          <mxGeometry x="0.8942" relative="1" as="geometry">
            <mxPoint as="offset" />
          </mxGeometry>
        </mxCell>
        <mxCell id="PqhAA0QRvtxAwvTUZkwT-13" style="edgeStyle=orthogonalEdgeStyle;rounded=0;orthogonalLoop=1;jettySize=auto;html=1;exitX=1;exitY=0.75;exitDx=0;exitDy=0;entryX=0;entryY=0.25;entryDx=0;entryDy=0;endArrow=none;endFill=0;strokeColor=#d6b656;gradientColor=#ffd966;fillColor=#fff2cc;" parent="IfvViQirqnI56DDQwfop-2" source="PqhAA0QRvtxAwvTUZkwT-3" target="PqhAA0QRvtxAwvTUZkwT-5" edge="1">
          <mxGeometry relative="1" as="geometry" />
        </mxCell>
        <mxCell id="PqhAA0QRvtxAwvTUZkwT-19" value="&lt;span style=&quot;background-color: rgb(245 , 245 , 245)&quot;&gt;ISL&lt;/span&gt;" style="edgeLabel;html=1;align=center;verticalAlign=middle;resizable=0;points=[];labelBackgroundColor=none;" parent="PqhAA0QRvtxAwvTUZkwT-13" vertex="1" connectable="0">
          <mxGeometry x="0.8824" y="1" relative="1" as="geometry">
            <mxPoint as="offset" />
          </mxGeometry>
        </mxCell>
        <mxCell id="PqhAA0QRvtxAwvTUZkwT-16" value="N1" style="edgeStyle=orthogonalEdgeStyle;rounded=0;orthogonalLoop=1;jettySize=auto;html=1;exitX=0;exitY=0.25;exitDx=0;exitDy=0;endArrow=none;endFill=0;strokeColor=#66B2FF;entryX=0;entryY=0;entryDx=0;entryDy=0;labelBackgroundColor=none;" parent="IfvViQirqnI56DDQwfop-2" source="PqhAA0QRvtxAwvTUZkwT-3" target="PqhAA0QRvtxAwvTUZkwT-0" edge="1">
          <mxGeometry x="0.9682" relative="1" as="geometry">
            <mxPoint x="138" y="610" as="targetPoint" />
            <Array as="points">
              <mxPoint x="20" y="185" />
              <mxPoint x="20" y="600" />
              <mxPoint x="93" y="600" />
            </Array>
            <mxPoint as="offset" />
          </mxGeometry>
        </mxCell>
        <mxCell id="PqhAA0QRvtxAwvTUZkwT-3" value="" style="shape=image;verticalLabelPosition=bottom;labelBackgroundColor=#ffffff;verticalAlign=top;aspect=fixed;imageAspect=0;image=data:image/svg+xml,PHN2ZyB2ZXJzaW9uPSIxLjEiIGlkPSJMYXllcl8xIiB4bWxucz0iaHR0cDovL3d3dy53My5vcmcvMjAwMC9zdmciIHhtbG5zOnhsaW5rPSJodHRwOi8vd3d3LnczLm9yZy8xOTk5L3hsaW5rIiB4PSIwcHgiIHk9IjBweCIgdmlld0JveD0iMCAwIDExMS44IDExMS40IiBlbmFibGUtYmFja2dyb3VuZD0ibmV3IDAgMCAxMTEuOCAxMTEuNCIgeG1sOnNwYWNlPSJwcmVzZXJ2ZSI+JiN4YTs8cmVjdCB4PSIyLjIiIHk9IjEiIGZpbGw9IiMzOEIwREUiIHdpZHRoPSIxMDgiIGhlaWdodD0iMTA4LjgiLz4mI3hhOzxyZWN0IHg9Ii0xODA1LjIiIHk9Ii00NjYuOCIgZmlsbD0ibm9uZSIgc3Ryb2tlPSIjRkZGRkZGIiBzdHJva2Utd2lkdGg9IjMwIiBzdHJva2UtbWl0ZXJsaW1pdD0iMTAiIHdpZHRoPSI0NDc3LjIiIGhlaWdodD0iODgxLjYiLz4mI3hhOzxnPiYjeGE7CTxnPiYjeGE7CQk8Zz4mI3hhOwkJCTxnPiYjeGE7CQkJCTxsaW5lIGZpbGw9Im5vbmUiIHN0cm9rZT0iI0ZGRkZGRiIgc3Ryb2tlLXdpZHRoPSI0IiBzdHJva2UtbWl0ZXJsaW1pdD0iMTAiIHgxPSI1NS40IiB5MT0iNjIiIHgyPSI5NC41IiB5Mj0iNjIiLz4mI3hhOwkJCQk8Zz4mI3hhOwkJCQkJPHBvbHlnb24gZmlsbD0iI0ZGRkZGRiIgcG9pbnRzPSI4Ni4zLDcyLjIgODQuNiw3MC4zIDkzLjYsNjIgODQuNiw1My43IDg2LjMsNTEuOSA5Ny4yLDYyICAgICAgIi8+JiN4YTsJCQkJPC9nPiYjeGE7CQkJPC9nPiYjeGE7CQk8L2c+JiN4YTsJPC9nPiYjeGE7CTxnPiYjeGE7CQk8Zz4mI3hhOwkJCTxnPiYjeGE7CQkJCTxsaW5lIGZpbGw9Im5vbmUiIHN0cm9rZT0iI0ZGRkZGRiIgc3Ryb2tlLXdpZHRoPSI0IiBzdHJva2UtbWl0ZXJsaW1pdD0iMTAiIHgxPSI5Mi42IiB5MT0iMzEuNCIgeDI9IjU1LjYiIHkyPSIzMS40Ii8+JiN4YTsJCQkJPGc+JiN4YTsJCQkJCTxwb2x5Z29uIGZpbGw9IiNGRkZGRkYiIHBvaW50cz0iODQuNCwyMS4zIDgyLjcsMjMuMSA5MS42LDMxLjQgODIuNywzOS43IDg0LjQsNDEuNiA5NS4zLDMxLjQgICAgICAiLz4mI3hhOwkJCQk8L2c+JiN4YTsJCQk8L2c+JiN4YTsJCTwvZz4mI3hhOwk8L2c+JiN4YTsJPGc+JiN4YTsJCTxnPiYjeGE7CQkJPGc+JiN4YTsJCQkJPGxpbmUgZmlsbD0ibm9uZSIgc3Ryb2tlPSIjRkZGRkZGIiBzdHJva2Utd2lkdGg9IjQiIHN0cm9rZS1taXRlcmxpbWl0PSIxMCIgeDE9IjE3LjkiIHkxPSI3OS4zIiB4Mj0iNTUuNCIgeTI9Ijc5LjMiLz4mI3hhOwkJCQk8Zz4mI3hhOwkJCQkJPHBvbHlnb24gZmlsbD0iI0ZGRkZGRiIgcG9pbnRzPSIyNi4xLDg5LjUgMjcuOCw4Ny43IDE4LjgsNzkuMyAyNy44LDcxIDI2LjEsNjkuMiAxNS4yLDc5LjMgICAgICAiLz4mI3hhOwkJCQk8L2c+JiN4YTsJCQk8L2c+JiN4YTsJCTwvZz4mI3hhOwk8L2c+JiN4YTsJPGc+JiN4YTsJCTxnPiYjeGE7CQkJPGc+JiN4YTsJCQkJPGxpbmUgZmlsbD0ibm9uZSIgc3Ryb2tlPSIjRkZGRkZGIiBzdHJva2Utd2lkdGg9IjQiIHN0cm9rZS1taXRlcmxpbWl0PSIxMCIgeDE9IjU1LjQiIHkxPSI0OC44IiB4Mj0iMTcuOSIgeTI9IjQ4LjgiLz4mI3hhOwkJCQk8Zz4mI3hhOwkJCQkJPHBvbHlnb24gZmlsbD0iI0ZGRkZGRiIgcG9pbnRzPSIyNi4xLDM4LjcgMjcuOCw0MC41IDE4LjgsNDguOCAyNy44LDU3LjIgMjYuMSw1OSAxNS4yLDQ4LjggICAgICAiLz4mI3hhOwkJCQk8L2c+JiN4YTsJCQk8L2c+JiN4YTsJCTwvZz4mI3hhOwk8L2c+JiN4YTs8L2c+JiN4YTs8L3N2Zz4=;gradientColor=none;" parent="IfvViQirqnI56DDQwfop-2" vertex="1">
          <mxGeometry x="79.73" y="170" width="60.54" height="60" as="geometry" />
        </mxCell>
        <mxCell id="PqhAA0QRvtxAwvTUZkwT-4" value="" style="rounded=1;whiteSpace=wrap;html=1;" parent="IfvViQirqnI56DDQwfop-2" vertex="1">
          <mxGeometry x="360" y="120" width="30" height="80" as="geometry" />
        </mxCell>
        <mxCell id="PqhAA0QRvtxAwvTUZkwT-5" value="" style="rounded=1;whiteSpace=wrap;html=1;" parent="IfvViQirqnI56DDQwfop-2" vertex="1">
          <mxGeometry x="360" y="294" width="30" height="80" as="geometry" />
        </mxCell>
        <mxCell id="PqhAA0QRvtxAwvTUZkwT-10" value="FABRIC A" style="text;html=1;strokeColor=none;fillColor=none;align=center;verticalAlign=middle;whiteSpace=wrap;rounded=0;dashed=1;fontStyle=1" parent="IfvViQirqnI56DDQwfop-2" vertex="1">
          <mxGeometry x="79.73" y="120" width="60" height="20" as="geometry" />
        </mxCell>
        <mxCell id="PqhAA0QRvtxAwvTUZkwT-11" value="FABRIC B" style="text;html=1;strokeColor=none;fillColor=none;align=center;verticalAlign=middle;whiteSpace=wrap;rounded=0;dashed=1;fontStyle=1" parent="IfvViQirqnI56DDQwfop-2" vertex="1">
          <mxGeometry x="121.5" y="314" width="60" height="20" as="geometry" />
        </mxCell>
        <mxCell id="PqhAA0QRvtxAwvTUZkwT-52" style="edgeStyle=orthogonalEdgeStyle;rounded=0;orthogonalLoop=1;jettySize=auto;html=1;exitX=0;exitY=0.5;exitDx=0;exitDy=0;endArrow=none;endFill=0;strokeColor=#B3B3B3;entryX=1;entryY=0;entryDx=0;entryDy=0;" parent="IfvViQirqnI56DDQwfop-2" source="PqhAA0QRvtxAwvTUZkwT-2" target="PqhAA0QRvtxAwvTUZkwT-0" edge="1">
          <mxGeometry relative="1" as="geometry">
            <mxPoint x="103" y="410.5" as="sourcePoint" />
            <mxPoint x="281" y="619.9999999999998" as="targetPoint" />
            <Array as="points">
              <mxPoint x="60" y="393" />
              <mxPoint x="60" y="560" />
              <mxPoint x="271" y="560" />
            </Array>
          </mxGeometry>
        </mxCell>
        <mxCell id="PqhAA0QRvtxAwvTUZkwT-55" value="N2" style="edgeLabel;html=1;align=center;verticalAlign=middle;resizable=0;points=[];labelBackgroundColor=none;" parent="PqhAA0QRvtxAwvTUZkwT-52" vertex="1" connectable="0">
          <mxGeometry x="0.9294" relative="1" as="geometry">
            <mxPoint y="7.24" as="offset" />
          </mxGeometry>
        </mxCell>
        <mxCell id="PqhAA0QRvtxAwvTUZkwT-17" style="edgeStyle=orthogonalEdgeStyle;rounded=0;orthogonalLoop=1;jettySize=auto;html=1;exitX=0;exitY=0.25;exitDx=0;exitDy=0;entryX=0.25;entryY=0;entryDx=0;entryDy=0;endArrow=none;endFill=0;strokeColor=#B3B3B3;" parent="IfvViQirqnI56DDQwfop-2" source="PqhAA0QRvtxAwvTUZkwT-2" target="PqhAA0QRvtxAwvTUZkwT-0" edge="1">
          <mxGeometry relative="1" as="geometry">
            <Array as="points">
              <mxPoint x="50" y="376" />
              <mxPoint x="50" y="570" />
              <mxPoint x="137" y="570" />
            </Array>
          </mxGeometry>
        </mxCell>
        <mxCell id="PqhAA0QRvtxAwvTUZkwT-56" value="N1" style="edgeLabel;html=1;align=center;verticalAlign=middle;resizable=0;points=[];labelBackgroundColor=none;" parent="PqhAA0QRvtxAwvTUZkwT-17" vertex="1" connectable="0">
          <mxGeometry x="0.9286" relative="1" as="geometry">
            <mxPoint as="offset" />
          </mxGeometry>
        </mxCell>
        <mxCell id="PqhAA0QRvtxAwvTUZkwT-2" value="" style="shape=image;verticalLabelPosition=bottom;labelBackgroundColor=#ffffff;verticalAlign=top;aspect=fixed;imageAspect=0;image=data:image/svg+xml,PHN2ZyB2ZXJzaW9uPSIxLjEiIGlkPSJMYXllcl8xIiB4bWxucz0iaHR0cDovL3d3dy53My5vcmcvMjAwMC9zdmciIHhtbG5zOnhsaW5rPSJodHRwOi8vd3d3LnczLm9yZy8xOTk5L3hsaW5rIiB4PSIwcHgiIHk9IjBweCIgdmlld0JveD0iMCAwIDExNi4yIDExNS43IiBlbmFibGUtYmFja2dyb3VuZD0ibmV3IDAgMCAxMTYuMiAxMTUuNyIgeG1sOnNwYWNlPSJwcmVzZXJ2ZSI+JiN4YTs8cmVjdCB4PSItMTgwMy4zIiB5PSItNjI0LjMiIGZpbGw9Im5vbmUiIHN0cm9rZT0iI0ZGRkZGRiIgc3Ryb2tlLXdpZHRoPSIzMCIgc3Ryb2tlLW1pdGVybGltaXQ9IjEwIiB3aWR0aD0iNDQ3Ny4yIiBoZWlnaHQ9Ijg4MS42Ii8+JiN4YTs8cmVjdCB4PSI0LjEiIHk9IjMuNCIgZmlsbD0iIzkxOTE5MSIgd2lkdGg9IjEwOCIgaGVpZ2h0PSIxMDguOCIvPiYjeGE7PGc+JiN4YTsJPGc+JiN4YTsJCTxnPiYjeGE7CQkJPGc+JiN4YTsJCQkJPGxpbmUgZmlsbD0ibm9uZSIgc3Ryb2tlPSIjRkZGRkZGIiBzdHJva2Utd2lkdGg9IjQiIHN0cm9rZS1taXRlcmxpbWl0PSIxMCIgeDE9IjU3LjMiIHkxPSI2NC41IiB4Mj0iOTYuNCIgeTI9IjY0LjUiLz4mI3hhOwkJCQk8Zz4mI3hhOwkJCQkJPHBvbHlnb24gZmlsbD0iI0ZGRkZGRiIgcG9pbnRzPSI4OC4yLDc0LjYgODYuNSw3Mi44IDk1LjUsNjQuNSA4Ni41LDU2LjIgODguMiw1NC4zIDk5LjEsNjQuNSAgICAgICIvPiYjeGE7CQkJCTwvZz4mI3hhOwkJCTwvZz4mI3hhOwkJPC9nPiYjeGE7CTwvZz4mI3hhOwk8Zz4mI3hhOwkJPGc+JiN4YTsJCQk8Zz4mI3hhOwkJCQk8bGluZSBmaWxsPSJub25lIiBzdHJva2U9IiNGRkZGRkYiIHN0cm9rZS13aWR0aD0iNCIgc3Ryb2tlLW1pdGVybGltaXQ9IjEwIiB4MT0iOTQuNSIgeTE9IjMzLjkiIHgyPSI1Ny41IiB5Mj0iMzMuOSIvPiYjeGE7CQkJCTxnPiYjeGE7CQkJCQk8cG9seWdvbiBmaWxsPSIjRkZGRkZGIiBwb2ludHM9Ijg2LjMsMjMuNyA4NC42LDI1LjYgOTMuNSwzMy45IDg0LjYsNDIuMiA4Ni4zLDQ0IDk3LjIsMzMuOSAgICAgICIvPiYjeGE7CQkJCTwvZz4mI3hhOwkJCTwvZz4mI3hhOwkJPC9nPiYjeGE7CTwvZz4mI3hhOwk8Zz4mI3hhOwkJPGc+JiN4YTsJCQk8Zz4mI3hhOwkJCQk8bGluZSBmaWxsPSJub25lIiBzdHJva2U9IiNGRkZGRkYiIHN0cm9rZS13aWR0aD0iNCIgc3Ryb2tlLW1pdGVybGltaXQ9IjEwIiB4MT0iMTkuOCIgeTE9IjgxLjgiIHgyPSI1Ny4zIiB5Mj0iODEuOCIvPiYjeGE7CQkJCTxnPiYjeGE7CQkJCQk8cG9seWdvbiBmaWxsPSIjRkZGRkZGIiBwb2ludHM9IjI4LDkxLjkgMjkuNyw5MC4xIDIwLjcsODEuOCAyOS43LDczLjUgMjgsNzEuNyAxNy4xLDgxLjggICAgICAiLz4mI3hhOwkJCQk8L2c+JiN4YTsJCQk8L2c+JiN4YTsJCTwvZz4mI3hhOwk8L2c+JiN4YTsJPGc+JiN4YTsJCTxnPiYjeGE7CQkJPGc+JiN4YTsJCQkJPGxpbmUgZmlsbD0ibm9uZSIgc3Ryb2tlPSIjRkZGRkZGIiBzdHJva2Utd2lkdGg9IjQiIHN0cm9rZS1taXRlcmxpbWl0PSIxMCIgeDE9IjU3LjMiIHkxPSI1MS4zIiB4Mj0iMTkuOCIgeTI9IjUxLjMiLz4mI3hhOwkJCQk8Zz4mI3hhOwkJCQkJPHBvbHlnb24gZmlsbD0iI0ZGRkZGRiIgcG9pbnRzPSIyOCw0MS4yIDI5LjcsNDMgMjAuNyw1MS4zIDI5LjcsNTkuNiAyOCw2MS40IDE3LjEsNTEuMyAgICAgICIvPiYjeGE7CQkJCTwvZz4mI3hhOwkJCTwvZz4mI3hhOwkJPC9nPiYjeGE7CTwvZz4mI3hhOzwvZz4mI3hhOzwvc3ZnPg==;gradientColor=none;" parent="IfvViQirqnI56DDQwfop-2" vertex="1">
          <mxGeometry x="120" y="360" width="66" height="66" as="geometry" />
        </mxCell>
        <mxCell id="j0OG2FaVqfN2Owm-drPW-2" value="&lt;meta charset=&quot;utf-8&quot;&gt;&lt;span style=&quot;font-family: verdana; font-size: 12px; font-style: normal; font-variant-ligatures: normal; font-variant-caps: normal; font-weight: 400; letter-spacing: normal; orphans: 2; text-align: center; text-indent: 0px; text-transform: none; widows: 2; word-spacing: 0px; -webkit-text-stroke-width: 0px; text-decoration-style: initial; text-decoration-color: initial; float: none; display: inline !important;&quot;&gt;Private&lt;/span&gt;" style="text;whiteSpace=wrap;html=1;fontSize=10;fontFamily=Verdana;fontColor=#1B3D0F;" parent="IfvViQirqnI56DDQwfop-2" vertex="1">
          <mxGeometry x="127" y="426" width="49" height="30" as="geometry" />
        </mxCell>
        <mxCell id="j0OG2FaVqfN2Owm-drPW-3" value="&lt;meta charset=&quot;utf-8&quot;&gt;&lt;span style=&quot;font-family: verdana; font-size: 12px; font-style: normal; font-variant-ligatures: normal; font-variant-caps: normal; font-weight: 400; letter-spacing: normal; orphans: 2; text-align: center; text-indent: 0px; text-transform: none; widows: 2; word-spacing: 0px; -webkit-text-stroke-width: 0px; text-decoration-style: initial; text-decoration-color: initial; float: none; display: inline !important;&quot;&gt;Private&lt;/span&gt;" style="text;whiteSpace=wrap;html=1;fontSize=10;fontFamily=Verdana;fontColor=#1B3D0F;" parent="IfvViQirqnI56DDQwfop-2" vertex="1">
          <mxGeometry x="85.23" y="230" width="49" height="30" as="geometry" />
        </mxCell>
        <mxCell id="PqhAA0QRvtxAwvTUZkwT-15" style="edgeStyle=orthogonalEdgeStyle;rounded=0;orthogonalLoop=1;jettySize=auto;html=1;entryX=0;entryY=0.75;entryDx=0;entryDy=0;endArrow=none;endFill=0;strokeColor=#B3B3B3;exitX=1;exitY=0.75;exitDx=0;exitDy=0;" parent="IfvViQirqnI56DDQwfop-2" source="PqhAA0QRvtxAwvTUZkwT-2" target="PqhAA0QRvtxAwvTUZkwT-5" edge="1">
          <mxGeometry relative="1" as="geometry">
            <Array as="points">
              <mxPoint x="330" y="410" />
              <mxPoint x="330" y="354" />
            </Array>
            <mxPoint x="186" y="410" as="sourcePoint" />
          </mxGeometry>
        </mxCell>
        <mxCell id="PqhAA0QRvtxAwvTUZkwT-20" value="ISL" style="edgeLabel;html=1;align=center;verticalAlign=middle;resizable=0;points=[];labelBackgroundColor=#F5F5F5;" parent="PqhAA0QRvtxAwvTUZkwT-15" vertex="1" connectable="0">
          <mxGeometry x="0.826" y="1" relative="1" as="geometry">
            <mxPoint x="3" y="2" as="offset" />
          </mxGeometry>
        </mxCell>
        <mxCell id="IfvViQirqnI56DDQwfop-3" value="&lt;b&gt;Site B&lt;/b&gt;" style="shape=mxgraph.ibm.box;prType=classic;fontStyle=0;verticalAlign=top;align=left;spacingLeft=32;spacingTop=4;fillColor=#f5f5f5;rounded=0;whiteSpace=wrap;html=1;strokeWidth=2;dashed=0;container=1;spacing=-4;collapsible=0;expand=0;recursiveResize=0;strokeColor=#666666;fontColor=#333333;" parent="IfvViQirqnI56DDQwfop-1" vertex="1">
          <mxGeometry x="690" y="80" width="390" height="690" as="geometry" />
        </mxCell>
        <mxCell id="PqhAA0QRvtxAwvTUZkwT-22" value="&lt;meta charset=&quot;utf-8&quot;&gt;&lt;span style=&quot;font-family: verdana; font-size: 12px; font-style: normal; font-variant-ligatures: normal; font-variant-caps: normal; font-weight: 400; letter-spacing: normal; orphans: 2; text-align: center; text-indent: 0px; text-transform: none; widows: 2; word-spacing: 0px; -webkit-text-stroke-width: 0px; text-decoration-style: initial; text-decoration-color: initial; float: none; display: inline !important;&quot;&gt;Private&lt;/span&gt;" style="rounded=1;whiteSpace=wrap;html=1;dashed=1;fillColor=#cce5ff;strokeColor=#36393d;direction=south;" parent="IfvViQirqnI56DDQwfop-3" vertex="1">
          <mxGeometry x="131" y="323" width="115" height="141" as="geometry" />
        </mxCell>
        <mxCell id="PqhAA0QRvtxAwvTUZkwT-23" value="&lt;meta charset=&quot;utf-8&quot;&gt;&lt;span style=&quot;font-family: Verdana; font-size: 12px; font-style: normal; font-variant-ligatures: normal; font-variant-caps: normal; font-weight: 400; letter-spacing: normal; orphans: 2; text-align: center; text-indent: 0px; text-transform: none; widows: 2; word-spacing: 0px; -webkit-text-stroke-width: 0px; text-decoration-style: initial; text-decoration-color: initial; float: none; display: inline !important;&quot;&gt;Priv 112&lt;/span&gt;" style="rounded=1;whiteSpace=wrap;html=1;dashed=1;fillColor=#cce5ff;strokeColor=#36393d;" parent="IfvViQirqnI56DDQwfop-3" vertex="1">
          <mxGeometry x="216" y="120" width="110" height="140" as="geometry" />
        </mxCell>
        <mxCell id="PqhAA0QRvtxAwvTUZkwT-24" value="IBM FlashSystem" style="shape=image;verticalLabelPosition=bottom;labelBackgroundColor=none;verticalAlign=top;aspect=fixed;imageAspect=0;image=data:image/png,iVBORw0KGgoAAAANSUhEUgAAALIAAAAgCAYAAAC2JCIgAAAgAElEQVR4AVW8Z3CdZ3YmCJFEBm7OOSfci5sjLoCLnHMiCRAECBJgThIpUaQCKVIUFbulbqmTFSiKEqlASS11t7qnp2dtb22tt9vlDuPd7rZVY7vKdrl2/Gd+zLrWM8/Ucy6htn98hYvv+97znvfE55z3vbcGwEP/+q//in/6p3/CP/7jP+If/uEf5PO//Mu/4J//+Z/xp3/yx/jpT3+Cn/3sZ/jZz34qn3/ykx/jJz/+Mb744kf40Q9/gB98/jk+/+wzfPb9T/H973+CTz/l9Sk+/vgTuT75+BN89NE9fPDBh3J9+MGHeP/u+7h7533ckesu3n33zr+7br/zLm7ffg/vvHMHb799G2+99Q7e5PXm23j9jTfxxhs38cbrb8v1+hu89/b9d27hzbdu4a0338Ebb9zCm2/y/9t46+a7uPn2u9W/t+7g1q338fatO394drP67K2b7+Gtm3fx1lt3cPPm3a+ur/5/+y7efud93JLrA7xz+0Pcvv0R3n33I7z73sd4784nuHP3U9y98ynu3P0EH370A3x074f4SP7+QP7/4MPP8f4Hn+L9Dz7D3fe/L+9zDN/fvt6787HQe/c90r13n/bHuHOXc9zDe3Lvnny+fftDvEN+bt2Rv++++yGq48gXn9396vktked7uPn2e7L2N968jTflorzexuuUKeVGeb55Czdv3sLbN9/Brbdv4/Y7732lozt3PsDdux+IPqnbe/c+xr17VT1/9NFH+OTex6De7937CPfu3cPHH3+MTz75WGyDdvLZ9z/D9/n3s0/xOe3n8+/L9cMffl61qR98hs8++wR33nsXvPf//Pb/xq9//Ut8+eWX+Nu//Vv8zd/8Df7+7/+etvo5gKaaL//Ll7//3/70j/GTn/4EP/4PP8YXP/kCP/rxj/DJ9z/GC197GVvHzmHr6KNYP/QIDmxewMbmI1haOYml5ePYs+80lvaexOLek1jYcwLT84cxu3gE0/OHMDV3EHNLRzA9t4XxmUMYnVzH4OgKhkdXMDG1jqGxdQyOrKF/aBV9g8vo6p1HV2UWA0N70TewF53d8+iszKOrdxH50jjKXdPo7l1AqXsOueIE8sUJZAsjSGb6kSuNIZ0fRjo/gmRuBJnCMOKpHrQne5DKDSKW7EcsOYBYoh+ReAWeQB5OTxr+UBHRRC98wQ64fQW4fXm4fTnYXQn4Ajm4fVlYbO0wW2Ow2aPQGjzQG72wOaIwmIPQ6v3Q6b3Q6VxQKC3Q6V3Q6T1QqZ1Qqp1Qqe1oVRhR36iGXu+ASmNFq8IMBS+lCU3NOihVZihUFjQ1G9HYZECLwoTmVj0aGzVQa2xoUVjQ3GpFcyvHWNDQoJbnKrX1/jMLVCoHVGobmlt0aGrWCm3+36KwoqXVCoXSJmNbWo1Qa+1Qqm1QqBxoVdqhUNmEJ76v0Trlf5XGCbXGBZXGAbXGDp3eCaPJC4PRB6MpAKs1BLsjDIcjDK+3HR5PHB5PEl5vGoFABqFgGm2RHGLR/P2riES8A6lkGalUJ7LZCgqFPhQL/SgVB9DdOYSeyigG+icwMTGP6endWJhfwezsHoSC7YhGs9iz7wA+uvchfvXLX+E3v/4NfvHzX+Av/uIv8Lvf/u7/+8Uv/mK95uZ77/63XCmHUqWEjq4SCuU88uUcit0ltCUieGDHTrTH0xgZGUd3dw/S6Szy+QJy+QJcbh+KpU709PQinkgh1p5AqaOMULgNPn8Yo6PjyGbzaGtrRzyeQi6Xh9PlQ6XSh/6BIWSzRblfLHYgFotDqdRjZnoW/f2DyGSKyGby6Ovrh8vllbnn5uYwODSEjo4O9PT2olKpIBAIYXJyCpOTEyiXO1EqlTA6OopoNIZisYzduxfR19eHYqmESk8PBgb6YbXQIBqFn+XlvRgeHkaxWBJ6HJvJ5LC4uIi5uVmUy13o7q5gZmYGbZEYiqUO7Nu3grGxMfT09GF4ZESu9vYEyN/S0iJ6e/vQ1VXBxMQEKpUe4f/gwYOYnp7GwMCgyGt8fAzpVEbGLMzPyxylYgdGRkfR09sHrzeAlX37MDY+ge5KL3r7BoQHl8uD7u5e7NmzB4ODwyh3dmF0dAzDwyNwOl3QaPUYGR7G3OwsSC+VzMi6SDPSFsPupSUMDAwgnyugkC9icGAQZrNF1jwxPo6OEo0ti45Sh8jZZnfIe2Oj5DeLWLRdZNXWFpV1DQ0OIpXKIBhsQzQSQzKRgtliRTyelHF+Xxhulx/hUBQ+fwBKpRrZbA4+bwAWsx0Omwt+XxAqlQ6hYEQui9kBk8EOl9MLm82BxmYdYukBxGJpWC122G1O2KxOuBxe+L0RDPbO//81r99+55/KlTIGRgfQO9SLSn83egZ60D8ygHg6jp07d6Bc7sbmsdPYu34Yk4urmF3ZwMTMEpKJPCanF7B++AQmF/dhbHEfFlY30F0ZRDrdicMnzmBp9SDG55cxtWcNM4srSCY7sLRnPw4ePYmFlQ2ML65gft8GevtGYLEmsXFoC/s3j2Fm9yrGF/dhcd8aYvEO9PaNY+PYWew9dBJTK5uY2X8MI5OLiEbzmFtcxfrRs5jdt4XJlS3Mr24ik+tGR3kImyfPY++h05haOYyZ/ccxPrcCj4eCMyCbLWP9yGnsO3wW0yuHMc3n8/uQy1WwtHwAB46fx/TyFqZWjwnN9ngHCoUKDh47i+XNUzJmZu04Rmf2It6ex/zuNWycOIe51SOY5Hyrh9HTOwKXO46Dh09g/5GzmF89XH22vIFMpgPziyvYOPYg5vcfxuTyIczs28LA4AQCgSwObB3DyuZJTO5ex+TyJuaX98Pry6KrewwbR05hae0wJpbWML18EKNTC3C5wlCrDZiansfBo6cxu2cdI3PL8nx8ck4i4eaxk1jeOIqppf0ydnF5FW5PCr29Yzh4pKqTkdm9mN67jsmZRYTDeYyNL+DIiTOik7G5vVgQfQ2Jjo+cOIU9qwcwMbcbkwvLmF3ci0Qij7mFveBcs0srGJ2ax9ze/Rgdm0IwlMDxk6exuHcVI5OzGJ9dwuKeFSQTBexbPYD1g5sYm5rF8Pg0Fvfuw8DgCGrr9VBqvLBZ3GLYer0RBoMJKoUOOo0JFl0CNbfuvve3xa4iegd70d1fQUd3EcWuArr7uhFNRrGrdifaoikcfOgaDl74GvacvI65o1fQM7YHwUAOPYNzOPr4N7D/oeexdOoGJtcfQrYwhGCogI3Tj2Pr0ivYc+o65o9fw9DCJoKBAsZm9+PIpZew/6HnsHjiaUwfegyZfD/05i4srBzC0ce/iX1nn8UC6e07gWCkgmyuH+unL2Pt7HXMbz2OyY0L6Bqch8+bw8jUCjYvPI+9J57CzOEnMbZ8DNF4F5KpHqyffBz7zz6Duc1LmFx/WPi2O4JQKAyIRFJYOfIIDpx7FotHnsDUxkX0Tawg1t6F8fk1bF54EUtHL2P60BMYXdpEuK2CWKyI9VNPYO2hG5g/TD4eRWWUsshifP4ANh95HntPXsXs1hMYXT6FfGkQNkcae9aPY/PCS9h9/Apmtp7EyJ5jiETI+zK2LjyPfaevY+7IZYzvP4dSeRhuTweWD57G4UuvYO/Ja5g5fAUj86twuLuQyQ3j4ENXsXH+Bew+fhWzh59A9/AibPY2aDVm9A5N4sijL+LAuRewRPluPoHu/gnE2nuxeuQcDj/+KpZP38DCiWcwOr8Gu6uCTG4Ah85dx4FHXsLuU89g7thTqIwswe0po7tvHkcffRZr56o6nt18DNlCP0KhYlXHF7+OvaevY+HE0xicOwSfL4XhyRUcf/xrWDv3HJZOPo2ZzcdQ6hyCy5PG+vGHsXmRtnQV88evYnhmFaFgERNz+7B14QZWTj2FhWOXMX3gPArFfuyqs0Fn9GF13wE8c/0Gnr72DB5/7DIeevARPHX5GsrpSdTc+uDOf86V8+js68bE7CSW9+9FR6WIzr5OhNsj2LlrFwLBGKampyWddjJ9FwsoFDrgC3Qil69gZnZG0jfTekdHHolUL7z+PGZmpjE+PoGuri6USgUUS2X4AmVUeoYxOzcnabbc0YFSqYhEshNqYw9GRkYxMzuHvv4BlIoldHV1wOPvEKOcnBjDyFA/ysU8SoW0wBa3t4ju7gFMTYyip7uMYi6DckcWwUgB0fZOTE+OYWTw/ph8CoV8AUazH/UNSgSCcUyMjWFsZBBdHQWU8mnkczmEo13o7RnA9MQoujtLKGRT6OzIwRsgbMphanIcI0MDKBdzMiaXK8AXKApkmp4aR2+lE8VcWnhMZbphsaUEZkyMj6DSRR7TKBayCISy6O7uA8f093ajVMiiVMggm++FzVnA2OgIJsZHq2PyaZGFzdmJeLIPU1MTGBkeRLlURKmYRTZbEDyv0VpRKpUxOzsjMKqjWESxkEOxVEEw0o3JyfEq5OnuFj12dXXC4uxDPFnB9MwMRkbH0NnZhVJHEYViGU5PLwrFQcwvLmCAUKbchc6uTsTai/AHCpiZW8DE9DwqvQMod1VQ7OiC25tFV2UEC3v2YWh8Gl09gyh39yKd7YbdmcLs4m7MLK2ib2QKXX0jKFeGxC76hyaxuHoQozN70Dsyi+7+cSTTPdhR54Te5MHa/kN47dVv4d5HH+M73/kefvD5j/D5Zz9AMtorhvyn6Y4s8t1FHDl5FM+/+DyS2TQi7W0ItgVRW7cLHm8Qk1OTGBkZQnd3dSHFUpdMnsmURai9fb3o7OxEV1cJyXSveJ4Ie2QE3d3d6OzsQEe5C14/jXNAxgz098sYPkukOqHUlQW/cVxvby/K5TK6uzvhDXQgnigLDh4cGhTH6OwqI5fvgNOTQ2dnHyYmxtHT0yM4uaurjHCkgEikgKnpKQwNDaGLfHeWBdMbjB7sqm2C1xsRRxsZGRYeOR9xdbitjEqlH1NTk4IvOY58+ENlBIIpuT88TJrVdVHhXn8W3ZU+4XGb93K5A+lsBRZrO8bHx+Wq9FRkXeXOTgRCaXR192FickICAeVX7iwjV+iD3ZnD6MgwiKVZC5BWd6UbNldZMgZ5k3V1UR9VWVhsMWg0ZsGwXDexMGmS/1JHLwLhToyPj2JsdPQPNLsrMDt7EI13YmpyAkMi306hWSh2weHpQS7fg5mZKfRRx+UyKN9orACfP4tJOhTtgnyUO1AodsDlyaKzqw/T01xXLxisOsu0iy7YHHFMMbjImE6UGUDKvfD4S+jpGQCdvbfSLffLHUXE4hXsrHdBpTajkCtifGwSfX2D6O0dRCFbxkDfCDKJYdTc/vDuT7KlLAgvDh3dxJmHHoTV4YFKY4Db70ZdQx1sNpcUVx3lDmRzWaRSKSnSHK442qJJ9PT2oFAoIJ1OI51OIBRhtR+qLryzE9lcDql0ColkWqr/TLaE3t4eFItFZDIZpNMphMIJtKjCKHUQD/d+RS+bzcDuaEMwlBRjKxSr8ySSCbS1xWCxBJBO50XwfJf3U6kEXK4QfL4YKpVu5At5mT+ZiEtRaTBY0dTUCofTK4oulorCeyIRR3t7HC5XBJlsXoyX/JEmebTZgnC5g2JQReEjhWQygVisHVZbAJlsThw9l8shmUyC9EKhdugNHjF6Gmk2m60+SybgcPqRzuTEyfL5PJKppNCLtCVhMPnvGyGrfI4hD2npkviDcZE5M1kmm0EqnUQ0Godeb4dCoUE8npDnsq5MGqlUEu3xDByuKHoq3WAUzlGP6aTIX2uIIhBKoLevR+RPOXK9LNBNlnbEEzkMDPbd1xczYQY+fxQOZwT994NRPp9DJpNGIpGCxRpCLldC/0A/Sh0l4Z98EsqZLH4MDPaLDAuFPLI58l+EzdmOjo4u9Pf3SsFOGdLWAsEManaosWNHPXbtrEftzgbU1OzEzh31aKhtQXODGuXCLGru3vvgHg0535HFiTMncPGxx9HYrIBCpYbT60JtfS1cbq+k/1y+apDxOA2CynOJAEWgVHgiIQJnxe1weKXqlTGplDyLtcfgdHqRzmSFnhheIoF4Ii7dB4XSIF0BLpAGFI+3ixKsVod0Tmj4XByNhIqNRqNwODzI54vIF3KiaPJGhTudbkSjCREKhbg9JhaLwWg0Q6c1IhyOolAsgkIT50zEwfFer186M+Rj+z75sZhtCATDotBtgxRDjsZgd7iQTme+cs6qLJLw+9mucqKrq1vmSVPZyYQYudvtlTF0TnGYBO8nEApFYDbbJXLTQGhUdAryolbrEI0mpQsjsrhv/G3RNmh1OhgMZiSTKdCIt3lMxOPi9JQ9s85XekzEZT6NxoBwJFodI4EqKXJoi0ZhNNmRyeTFIClHyoeO4XZ7EAhEqjq+P4bzRKNtsFjsSCbTVdln0jKGa/Z5/bBYHFUeqMdUUnQfibTBZnMjk81iO1C1t9OBErA73HjggZ3QavVwuzzwuL1iK+2xBLo7K4hFknj9u3dR8/btd75LQ87kk9g6uomnrl2D0+OB0+uB2+/FrtpaaQVRwC6XEzabTQyIDDucLkRj7QiGgrBaLfB6PWJgVF4o1IYUDcrlhN1hRzgcAg3Z4/Ejk8kiHA7LfZfbJQryen3QaPQoFEoIBPyw2zkmLIK2WGxIpbOIRMKwWC0wmUygQQaDQWkBMXpyHr1BD5/Ph/Z2GpZDWoJUsNFkhNFkQjgSQSQSgVarQ3dXn8AHKstqs0Kv13/13OPxIZVKg7zp9DoEAgFxKrPZLK1FOtA2H/zMtTkcTrSLE7DfaoDb4waV4fF44HC4RankyWQ2wev1yrrYSkskaew+WCwWWQMdzufzw2K1i2KdTicsFrPInMasUqkRT6QRjUVFfjYbW10JkYXBaITPHxTnCIZCsi6HwyFOHAyGqrLPZuF0OkSPoVBIjEyt1iAabReanI/6Ih8h6tVml1ZrWzQCm90Kv98vz/hepK1dPrvcbrhcLlk/5Wuz2ZFIpkRffI/yo8NTFnR4Ohg/86KMqFfKgoGAn91uN9ra2oQ27aC+vl4yaS6blWDAgMYg09XZiVQyjf/9T/6v/1nz1q2bL7OPnM2nsby6F4e2DqOtPYtYqgC334ddtbtAxXp9Xmi0WigUClGGzW4T5bGPa7aY0dLaCp1OV1WI0ykRMRwJQ6lUQqlSwmAwwGq1CsMUvMXMjQEFtFqtGCZ7oFQSow7pqFQqeeZwOmAwGCVlUSk0Vj6jUXGRjLyx9jiMRqPcp0HS2TgXlUPn0uq0UGs0whtp0JDj8bQ4jdvjEd7II43MbnfA4/GiLRoT41ar1cIHFaXXGxAIhkDFkUeujWvnfDTkQCAofPE++SCPdDBmFDoG59BqNdBotMIf10yF/VveTSYjPF4vTGYr2KslLY1GI/NxLUqlSlI+jY2yowzpBOSBbSlmG0Y43uNYvkMDp/M4XW5xZI6hDLkGGhNpEqZZbbavaJrpWA6n9G0Z4ensrfd1zLlIPxJmYHKDMvq3fNCQQ+EwzGYTmpubRRbUB2VP+dKw+b7IjzJyOsUuwuGI6KK5pUUCD9/nPLW1tZLZtrMcMy7thP+nEhn82f/5y/+35tZ7t1/KFrNIpOOYX5rHiVMnEYtn4AlEvjJkh8MFei8Xuh0luSlBA/P7g8III2EgGJRCjB7FKCqRy2KRaMGUxDFmud8uYyhcjmMhRk9vaVHc90KbeCW9lYUKG/ZMfRQAjZd0mR6Jy9lPjMbicDjsslhCHuI2CjsYDEu05GdGcEYCpla1Sg2lQgmfj5kjLO8yclNALKw4XzRGGOQUmsR+LCTpjIQDjFSkST4Ij6qyMIjyKHzyGQqH0D8wIJHKYDRLtKEyuU4qgDiVxk+j45qYXXhx84bZieuKtbfLPBzDKMRLoVCKg1JunIsRsIonc1CqVGLMvEfH4zs+v094p96sVrvIgXxUo2RS5NiqUIqs6NRul1v4yBcKwqdGo0N7nNHUJc5AOtQXswt1TzqUBddL4yJEokPRkJ0Oh4zhO+xciSE7HFWd3OeBY6rQwi4ZkbIg38xy7IIxINTW1okeaEN0fDFgMeQ4cpkCfvGLX/+u5r0P7r6QLWYQz8Sxsn8Fx04cgzfgF3jh8XtRW1crRskFcAIKl2mNBDkJoxdTI4UXaYuIIVJQJpNFFE2PpxHxYsqXiNEWlQhPGnQQGhCF0dyskDTJyCNp7z5mrEbCMHx+v8xDWhxLnMZ5wuE2ESgNi1dbW0SivM8bFKMj7xQCeSQ/zCzEWnQOGonAnlg7aMz832qxisP6A35JfVwvaTCSMgMEggH5n+vhfD6vF0Y6dSCAQNBf5SHaJjxSFlwzUzWjF52TY8gLow3XSYfenoNro8J1OoPsTjITxmLR+yk4gtZWJUIhOrUfwWBAxlEnlA0hgtFkFkOkAXMO0qexfBVcYoyiHuGBdPlOS3OrGArH8H3KtsqvV7ApgwN1TGhG3mlIJpMZHq9f3vcJj9Rvu/BEPBsMVe2FNkF61DHHWCxWsZOqLcUEI1PfZrNVnIGfyRfnIRzhmpqaFcIf6VM+VZyekgK+XOrEL3/5n/+Yhnw9VUgjkUtg8+gmNre20NUzgnSRLRGfGDKFwxRPLEwvYQSg5zAlMo3QkyksttloCFQQI4rX5xOhMWLJGIddFsNF2J1VHMYtXI/Xc9+QW0EsR9jCbXAWOaTHqMACjHRpUL09bAnlJG0zK9CZmMLZnaDnUzmMnsRdxIPkmy0xtqKoUJVShUK+Q7ZWLVZrNSt0daGjXBKjYkSmsskH242M4lSIRq2R1MjMRCzH6M0oybnJB6MUP7No4RY6jYKGTKNk2mR6rrYomYF8sJgtgqWJcyk/RmPKxuF0Cvzx+/xSl1CufE5ZtLZSqWEw9VPhXC8Ni/ogNJOiyO2G3W4ThTOTcC7ifTo9jZWf2QumTigPQgbK0GSuOhzXTFhIhyIMY81D/fN9diHoyAwuLpdb8DQDANuD5IPr5TOOpQyZBWkzdGLWNpQtoRkNlXJtj7eLXq1WwjNGeb+8TxkyI2q0OjS1qCRQbQcB2gCjPNdS6erB73/35fs1b91+65FEPoVYqh0r6/uwd98KhicXUaiMwRMKCj4hY4waNMzdu3dj//79AraJs2jIZIBKPXDggJwHoMJ0Or1EXU7GMwh8RqHTKN0erwiG0ODAgQ3Mz88JjYaGJhEajY8K39jYwMDgALQ6vRQJdBgWZ7y/f/+qpDHiO6ZiOsPU1BS2NjflTEPVyaqpjQLg/BxHoTY1NQtEYGpkUUbFrK6u4sCBdUmbjLxULBVB3o8ePYrR0RFotBpRBOdilCHN9fV1cSDyQcUypY+MjIBnK3hWg0UhOw2EDTRS9pOPHT8m50HII9+nwvp6+2QMN5dsYpQakTcVOzk5iUOHDgmUam5ukS4SDZDGQPntXV4Wg2hqbhVDpjORZke5jAPrB+TcCN83Mrh4vcLL3PycyCOVSqKpqUnkT15YkHNdS7uXJAAoWpXw+vxCj31rypB9b6l5bHYxUDr52v79WBY+4oJ/aaxOl0PkRhmx766TusEiumJU3b+2H7v37Jb/GQg4hnwuLCyIjVFXxNgs9gg/GI0ZHFxOhzQXaHcD/cP48su/ebnm9Ztvnkzm0whEwwhEgwi0BRHNZOCPxWH3uCUiU7EUADcA1tbWML+wILiLeI3pgq2VxaUlMXIyQUCvVmvFu+j5a+trcshlaHgYGrVWsCG9eGlpSe7v27dPjKaurgEer0/SGulRAJNTUyI0Ym4aAnuTu3cvidEWC0W0tijFgNiHJT3OPz0zDRZNxOP0XEbjxaVF2dFidlAoVSAuZKahsRLzLS3tFoNhT5yRjUbJdLi4uCAHgXiYh9GpWhf40d8/IAbEg0DsD1MWFCzHkA8aMY2FkEml0kqmIY979+4V5Y2Nj0k3hYGA7UcGCB70If+MyOSP0IbGSHocR+dmHcHKnwZOh9m3uor5+XlpS/IglEqlkTkJVRYWF4UeDxhRdgwulAcjPGXOOclTY2OTREVCFR504lw8NEXDaW5qlcDDz3v27AYPWc3Ozko2JhwgPRo4dcX5SI/OxjUwgq+sLMu46empqvyMRslmo2OjMobzBAMBaR1KpujsFCOmjpmhGhob/50hMyBE2/Pw+cKSdcZGxvHll//lUs379z48Hc8kYXPZ4YnEES30wxf2oFAuoC3eJoZMxdLDWQEzvbPyZopgNU1DZsrgtd21oLKJbejhvMdnep1OqnhGZFbrrOgZkarVPaGIAfUNjXAJ7jXJfd7jfKxumXqYglkhkx7TPHEp52Exynn4PrsTrNL5Hnlkda9Rq8UABUMajWJ05IM0mZKr66h2PcgT0zONUm8wCB9cL+dk1BUIcT9i8l3OU/2rgd1m/4rv7fvkiSe+GAjI4/ZlNBjks8yj1wsNYnfSMhlN0lXYlh8NkHKiLGgk7D4Q9lT5pty1IgtGTzob18SOQXUt1a4Q5U2IQz2SBz4TmlYrGhubBbtWYUGVF/Jtui8rQjTRl8koY8mHalu+9mr3hM9Jj3QVCpUEM9KozktZW6G8rweumTzwGd+hHqkzFuzb97kmztPSqkBzK6FFUKBSwB/EzNo1hGMV7Ny5U+796le/2qy59+m9E5FoBK3KFjhDWWSGNhCOBXHi5HEs7J5Hc0uzGBJ7sRQChcvPVKxWo4VepxcmeZ8T8xmZo/GTed5juhCGqXiNFharTRbMaLi9GMIXRmRGMPZhCfo5huNpyCwS6EiMAMR/HMeL89CZKByP2y33OG/VkKrKZDG2zR8VzOjJliKhCuECjYxwhq00zsd5+Jn0+Yxr3cag5JMpUrAs20P3+eB85JewgOsl9iYt3mN0peyoZEYU/jWbzNIW3J6H9Ih7ORfnpdMQi5MOsbLQttnQ1NwMq80pY4l9uVaOoYOxENTpaTwmaSUKH9SJ0Sjyo5HwfV58Vr1vEahFp9+WLz/zGelKW81abbdtj2ExTJ1Q7pQFZfQHPgwiXxr1tr2QDiGWtPzutyU5hvKp8m6QdhvH0CYoQ43ygTAAABfbSURBVNoAn7e0tKJVqZEagxtkPPI5t/V1OPxF1NTUiB5+/vOf76358OMPD8ZSCah0GrjbCsgOHkA4GsBjTz6GA4cOoFXR+lWPkMKmIXFBrFQZEYRhl0sUxPusstmPZYuLyqcBCa5xu6q9aDHkat+TRdk2LQqvtrZeDJkYm7iLWI/4lZGUQuPCWK1zbi6YF42SRk46TLecTzoMajX0LMDsdhE0n3l998e0sq9tknOz3GygULk2t8cl9Bnt6VB0ju31smDkeqk4KoX02CkgXuaa2fqiIXJ+pmimSbakqKhWhUr4Iy+s/InLWTtwJ45rYtYQGd0fS6Ogg3J+yoDPhEe/D+yxWmzcWOHmTPU+n9FoiJEZdekcnIs8kx9CFBai1BVput1/0Bc7P81NzTKGeotIN8gt87HAI3STQoxFs2xAVfVJRzMaKUOzyJs8VPlwiPFxA4r/U34ik1BQnJP7ANvr3ZYd10tH5Pycg7UYgwxlRMelg0rHItoGny+I2cOvIJEZhbK1Vc5N/+Y3v5mr+fDeh/vSpTzMThuCyS7khjYQjPjw6GOP4sChDbQqFFLVUhDbRkElkQl65XaqpXIoTBoeowefOV0uqdS5IDFYv0/SDo2EzNMQKVgqimPYL2Rvlc+5eM5BQZAWhcboROFyHiqDY+mxvM8ozfu8aGQcw+jEFMxnpMeL6YtRhuOYsmlIYjAc66rSZeRgNCSP2zSZIVQq0tR/tWNGeuSD77CbQFqcrzqPQwyIxtPSohTF8DnXzOeUCaM41yr3vV6RL9fLaKhQKmWtfC6GL8p1S/HDXT/yRjrbtDgvsa5SpZFC6A/ytYtOGOXpOOSV75IP6oRYltiaPPCiATE7MWDwf8qpqvvquiRgBAKyXurEKnKnHBjcqhmCxretq+0CjtmDm2bUM+XNXeLtMVwv5cQARh1wTdwU4l/yplBWz4/Irp8niKXjr2FoZB+8brfUSn/3d383XPOf/uQ/7Tn90EmsHVzD6taDKI1tIZqI4MyDZzAyNoKGxgYxZuJFTsj0tJ0iqAimI4NBL5dKrZJUzXdoSIxQgvvuG3b1vkqiCe8zWpEWIx1xaF1dXXWMhhi8uvNH2hSm4F4N+6QmaDRqubh4OhojL/nbnpdpicYq2JI416CXVEyszDGMnpyXn7dxKSGGWq2SlLaNPbczDnfkCJm4puqYKmbm8yqkqO428tn2JTK6j4mJ85guJWqb+JUl8qaTsSxKSYfrIn3uQm4HAkZdqQVk15LObBQYQGhG+jQ08sZ1UQ/sxrDYI680WuLwbflu645Rj2smnxzLudi1qMIZRt8qlKM8+A4dlHyQX27XK1UKGcNuAoOYSsNaxCz3OYZrYTuP/FC/opP78/A+dUE6fCbr1WrlXfK3vftKnkUXBgMam5oko3GDKhQKIBhqx8TGS7C6UwItCoXC//yrv/qrnpovvvhiaXC4H23tEeR7JpAbPoRoIoy1jTV0VrpQ31CPllZuGRoRikRQkhNwOam0yQgZZ+Rl34+HWHgIR4xQqZAU7AvwAE5eTmmxwc2URJzJqMD3eTKOVT+Vwq1ICppeSTo8CcfnnINFDAWay+dR6e2RDgoraSqBygi3RdBVqaBy/ytQHEM8zsjKMTzSyCqYvU4qgQUTIQnHZvl8cFC+YpTOZAROkQ9/MIBKT6/Mx50udm9Il+vLFQro6++XfjFptrS0iIIi0Sj6BgbQe/8ZFcYCjYYcCIXQzSOZXV3IFfJigFS0x+cDj3UWOzpkXaRPpTOqtcViMqa3r082o5qaqQuLOHy+WJT3O3gkNBAA25fkUa/XweXxCL1coSi0GdkZLEgzwq+BlUrgmgiDKEMGArPVglQmLWdhKH/qlbKSGsTlEjlSlvyqEjMGsxOhRSKVElp8xszFzECDJbSR9/M8fZj+Skb8+lQynZEx1C+dRwKi0YhYPC6y5fzM1Dx9SdlyB9bHDB2MY2rjBRjsETHkzs7O//HXf/3X5Zr3P3p/gbtRDU31sPlSyAwehDfgwsbmAQwMD0jrg4SYrskYLyqY6Yc4jhUnsRqvQKiKb+hdxK7EZsQ8HEPIwTTDwsdm5SmyoGxchNvCwjCNm4ZM6MAFsJ/JFhLHU2j0/khbWOAG3yHO4jyMGOyCcG6n2wnH/UNKEhH1BqFDKETHYera5o3jaERMVz6/VzZo+I5EQY1W0iTXxI2b7bFKFXG3XnqahD0Ol0OgCo2e6yVc4NYsoQDTInmkoxDXErf7g364PC5xVDoYnZqKp3zcXjec9+ESozNlSzlQhpyLaZjGyKjLiCx62H7mYY/YKJmL9QThAw8NEWNyLOnSOciL0OR9n1f4JP6l4ZE2nYFj3F6P6IpZkNmQrUjSkw0u0nM5xbgILajH7VqBsIRz0F44L3W3PQ9lQWhBwycP27xRN9vZnvdkvT6P8MbgRphC2XIebpP7Au2YWL0Om6cdDzxQw378f//tb3+brfnkk49m25PtUKgVcAbjiHXMwOG2IZqIwuVzYdeunaLw1bVVxOIxYYSpmwxxo4KReGhkCA6nXZRsNLN/y90dI1b3V8cwmtMAzFYeLlJicHAQPMxOgegIS0wG6I0GaQMNDQ9ieGQIJoupmoIs/FaxQoxn7cAa2GGhQZKWyWKWqEt6/YN9sNG4TSYxvGrv24etI1sSrdm6Y8QhpqOREHvROA5srCGVSckYrsnC9yxW+dbL2MQYrHarzEODVmk0YkAbBw8gFKmeLpMxElF0mF+Yx8DQoBg418yxFjFYtfTSS+USLDaLZJ3qRokaC4sL6B/sh8PNbyobZX5Gb0bD/WurSGfTMj+dhevj5gCj3J7lPfD6vfLMbKl2KahwlVojX4IYHh0Wx6YxUlbEuTT+9QNrwjvly/loYHV19XI+hYfk6VCci+syEtpodLJ5MzY+KnQM99dFA0umUljcvQiX2wmT6N0s+qTsZ+dmkC/m/90Y9u+5+7qwOA+bwya64jzkkb30pd2LiMTaRPfkgXpW6wyw2KsbJQwUXl8AsVQ3wuF2GI0Gboz9ty+//DJe89ZbfzTTnkrAymhAT/T74PC4YHU6YLKZ5fQbI9f4xDhiCe7pV7c4g+GQYFMe4+zq6Qb/J4APhnn43C0YbWZuBtF4DL7A9hhWrkpJh9093XK2gcYskeo+sO/p60FPXwWBUEAMnZCBmI5GR6jTFmsTb2WHgeMYJZOpBLKFrPBGxUSiYREOjaXSWxGeJMp43JJNGAlpyCyIyvy2QzxWjVzkPxQQAVMJmXxWOhJ2p0O6KEyljHakyUzCqOPyVncGCX2KHUVkCzkQTnEMjZ3Zg1FtYHhQAgEzU3XNAUnNnV38Dl4GoXBQ3qX8SJeQZHB4ENF2fvu4GiW5bdzY2Ig2bk1TFtE26Y7QoHkRwnBthGqFjqKsm/NzTYym1Mvo+ChCbWFZF42W/JBmoVQU/klT+Av4Rc6kxy9UUE6cg8/aYhGpTbi7uS0LRlZ/wCfPmQ07uztlXezocAwDEDE5N896+3tFv7QXogFmBW7hk1Z7Mi5r8viqmaqZnRh9NYqzQKX8vR6nnI9hobq2tv5ff//730dqvvvdb0119PRibGk/esdnMbF7P4bnlpEsdUNrZLrfKandy7TodYuHafVaiRzsCpgsFvCZzekQxRjFm1mEqBDgOV2PS97V6LUSEdlId7Da9/skYjBSG+jNZjPq6holrXkCPoEIWr1OPHd7k4Pno10et0Rvta668UFBM1JxDKOpWqsBswLHcLwvFIDD7QIjCZ8x8pMHjqNhunxeuHwekG+VtkqTqY5rdfu8EpnUGrXQ5L4/sxHPoDg9LuhNBggf9ws2rvXf8qE36gWqEFoIHyILFsBVPliQuQgbfF7JCKRF/hjFNbo/8M6opdER71sFs5qtNjkrTh50Bh00evJVhVnMklwv+aBcNKRp0AtGZ/HtCwdhZ/Q3G4UmMTMLY46hHJgZKDfSrWJ1hUATHiAz2ywiQ8qZBSwzIscQ0jGzcr3bhfa2/CRraqu8EyIyEpM3Ojrn4XoJ5wi1SIvjSIPPuF7Zdtfz/Hn1bDeNmd0RwhMeI1hbW//Hv/zLv/TXfOf118ZzHWUsHTyO89dfwZVv3sTayQvwhNuhUKnEkFtbW2Bx2KA16NDS2ozGpkY0NzfJjhIrUKPFJNCkqblJOg8siOiVTONUTnNrsxSNLCqUcp7ZCL3ZIGNIq6G+Dq2tzWhoqJe0wmdKVat0THhP0doqrS8qs1XZioaGOtTV1aJOxrWAhqbSqtDY3CD3+M1v0mMPnE7XomhBfUMdamt3ob6+VhRHmgpFqyhToVKgobFextbX10lHhIphRU7+6uprZT4WYEqlQuSgEP7qwfeFR97X62S9TS1NaGysPmNXo6mpUZSu0qjQ1Mwt1+oYPqMD0ckpI/LA6Mj1SKfEYoJSXR3T1NQg/JIW5UADUKoVQo98cRydk9CCDqYzGkRXzS1NUqyzG0IHNVnN2OaDayMPzBjkQ28yolWlqG6CqZQSdQlXqs9Ir0Uu6lG6QveDEHkkLXYYSIs0OY/WoBdavE/b4H06nNHKH6VRCu+8v13I875ap4XIr6lR9EdcrdUZ5dgCMTzhBf/ynAkNemPj4N/9+Z//uVMMmYVSsXcIL9/+FC+++RGOPHwFWqMFTS0twkBDYxMampSob1bhgZ0N2FXbiOYWHpjXoVVJ49KirqEFdfVslaih1Rmg0TECmqDS6NHQ2CrbjGRIb+Av8ligN1rRqtShoZG4Tg+9wQqdgfct0Bo4N89DcAOCWJgeb5X7SrUe9Y0KoW8w2WEwOeTS6vlrPDooVAZ5l2MMZgd0BhuUGiPqZB4jjGa7XCaLXXggLxxT16CCWkOsboXRZIVWxzaVCU0tarS0aqHRmWAwWqHVm6HVc11sDalAfnR6E/QGEzRct9YgvLe0aqDWUg7cNtdBpSZvWvkaWUurGmoNW4LMHLoqrWYVGhoVwgPlx7EqtVZkTBkplHyP7S9eGrmampVobFYJnValGkq1Rgy5VamCUkWDUEGh0slzGrhSydaYEs0tCtTWNaG5WSXb5zS+Zl6tCtTWN6K+oUXOyrBDwtTOi5GxtrZRvuvI/9n23B5XV9+IXbUNaG7i+y1SgDML8ZzErl31cvSABSUdjvc5V21dg2yANTU236dT/UvIV1OzQ6Afi0bak9PlRby9XQyYRsyrGpE92Nra+t2f/dmfmWpef/0748SwxcoAvvX+D3H927dx9JGnoDaa0dDchObWFkTas5hcXMfywQfx6LVv4di5p7G0ehQrB09L73n10Dk89vSrePKF17H/yHmsHz0n18axCzj9yNP41lsf4+pLb+LQyYvYOvUojj34BLZOXsKNr72J1978FCfOP42DJy7g0MkLWD98DkdOP4HX3vgIF576JlY2zmD14ClsHD6HpX3H8OTTr+HWBz/FoVNXMCc/WrKJmaVDWDv4EL7z5ie4cOU1jMzsx/DUMgan9qB3eAFbJ57ErQ/+Iw4efRylrlEUu8flKlXGkMh2Y2PrIt5+/z9iYu4I0rkKch19SOV7kCkM4Nrzb+DomatoT/N3PgpoT5cRbMugXJnEpauvodw7C28ghlg8i0g0CX8oidPnbuDo6avwh1Pw+KMItSXhC8ZR6hrDk9e+jen5DTg9EUSiKbTFMnB7ozhx9irOX3oBHn8K/HJpMByH2xuSb1Q/cfVVdPdNwWhxwun2IxCMwmRxYOvYo3j6xquwWP1SEPF+INAGl8sHq80nzzcPPwSHix0dYl7iUQeyuW688PXXsbRnHTqdSb4u5vEQs1tw7ORFPPbkMzCZuCHEb+C4ZDMqkyvjlW/dxPDwtHxX0253yqlDtjCPnXwYx06ckXYmD4zxNKLJaMH0zG689PK35ZvrPBxVPVHIzTEfzl94Eg9fuISAfC0uLN+GIZSZnl3Cy698W77jWOKvHZUrsNmccqaCX2jgbvC2MbNuWl9f//XPfvYzXc3rb31nnO20TLmCF964iydfeQPLh89Cqa2mBXqQ3uKR6OYPRHHxuT/C0PwhiSQWuxdOXxsYGc9degaXv3kHvnAcBrMT3lAcFocPyXQZ333nM2yeeRJqnRXecByBaFqi7/Ezl/D6nS8QiJVgtnsRiGZhd4fEKF745tuYXT4OrckBm9OPYDQNvcGMvfuO4bU3PkAkUYHWYILTE5JvfSfTJVy8/CIqQ4tQMXqaHXDwF4U0evQPzeGZl76HXGlQMola54BK74RKZ0VDUzN6+qZw6cqL8AaS0nxnNtKbrBIdVzdOo294TiIqI6LF4Zbo5Pa2YXRqL+yugOBFg8kqcIBRfWpuP4bHl+TUGyO/ycJWmxq+QBSLezaRynbIGKOZc/C32tQYGJ7F+NRutLRyq5sHmaqbLC5PAPO7D8DLn5VSV6M8IzYxat/gNBaWVuXgOed3OHyw2z1Ck1mut39cfs+C79qdrupcCoX8TsmBg8fRPzgimcRstsFCXtRajE8sYWV1XU7ZEauzncbUH4kl8fDFy0il8uD73OJnW45ZZXV9C9Mzc1KX0MAddqccXR2ZmMeTT12Xb7RYbdWvOXFLnFvsZ85dkq/V0RHYR+dPnLGrMT2/F9efeV4MO5XJYWpqWn5dKJVKSYHHSExDZmuP7b6lpaWf/+hHP9LUfO9735oIRyPoGZ3BviNnsH7yPNZPPox0uQKlRiVpoKnFjNp6LVRaF9ray1CoXVCqLbDYQ9CbvFCoLQi25WFxxtGqNMHqDMLpiaK2QQWj2QN/JAelzgGFygR3IIYWpQEqrRG+UBKeYAoNzcRUbhgtXuyobYGBkcefQGMrfyqJxtqGxib+QJ8GZs5p5ncJW2C0uNGqtmDnribojfwRDy927OQ2rQEag0s+85lW70RTqx61dcTBrXjggV2oqXlAGuq7dtVBo+NhHD127NiJFgXntKKmphaNzVq0KkzYsZPYu1V+YHDnrgbs2EVs7cDOnc3YsbNefoywsVktX1Mnj41NakmpdXUKKNVm7NhRJzS4fvLNOZtadKhvaJU0ym+t19WrsKu2Drt2kX89amp2YVdts/xgISHHAzvqBALV1rUIbw0NhAha2dYnTCC9hkYN6uoV2LWL0E+FuvoW4Y/zaHUW7HigVmAe4QlhAiGEls7c0IydO+sFyjU2tUqLj7BJozXigQd2oKlJAYWiunPITRe9nptXDWhqapHfbKMDsC3I46ps1+3aVVuFmFq99I4JRRjheZ/fAtKo9dBqdFK40iHoaISvOq0BJhO/G6iAQc9vGCWQyxahVlW/W8iOBaMwL0Z3h92BpcWl/+PevXuqmpu3b04EI0EpYExWkxRuRotZijGVVgmNNoj2+CY8vjWkskexsu9FpHPHUejYwsDYw+joOQazewLl/pNIlo7D6Z+FNzSLjv6DUGhicPpLCMUHYHXnoTW2odg1A3+kBJsziUh7BfH0AOyOGELhDgyO7EY41oH2ZK/8+mYy3Y9kqh9jk2sodk6j1DmJSs+s/MJnqWMSQ6MrmJ47iOHRZUxNr2Fx9xGMT6xiz/JRHDh4HpuHH8HK6gkc3HoEW4cfxur6GRw6fB59ffMod05heHg3Tp66iDNnL+PYycs4fvISHr30HE6dvowTp57ExSdexLmHb+Chc0/j8tWX8cSVb+DiYy/gyWsv4/JTL+PJK/z7Ip5+5hVcvf4NXLn2Ii5fexFPP/tNXHvmZTx5lZ9fxbPPv4qr17+O689+Azee+waefubruPHca3jm2Vdx/dlX8PzXvoMbz7+Ka898HS9+/du4/uzLuHrtRTz3wqt47sXXcPnKc7h+42u4TpqXn8PlKy/gpa99S+4/8cR1PHP9RTxy4TIOHz6Lra0zOP/w47hy+RlceuwqLl26gitXbuDh84/h3LmLePTRJ3H+/EU89NCjuHz5GVy//gIef/warl19Ds8+93VceuwpXLr4FF584RU8deUGHr14GU89dR2PPXYZJ46fwYVHLuHs2fNYWzuIrc0jOMHfftu9jJXlVZw8cQpbW8dw5OgJXLhwEQ8++DBOnzyLy5efwhNPXMH584/g7NlzeOjBh3Dq1GmcOXNW7j388AU8+ugl3LjxHL72tZfxyjdexR+9/ia+9903cOPGC6h096EtHEE81o5wKIxIKIw2/lCm14eHH37kp1988UXz/wIB6itZWvNrOAAAAABJRU5ErkJggg==;fontStyle=1" parent="IfvViQirqnI56DDQwfop-3" vertex="1">
          <mxGeometry x="71.97000000000003" y="622" width="178" height="32" as="geometry" />
        </mxCell>
        <mxCell id="PqhAA0QRvtxAwvTUZkwT-21" value="N1" style="edgeStyle=orthogonalEdgeStyle;rounded=0;orthogonalLoop=1;jettySize=auto;html=1;endArrow=none;endFill=0;strokeColor=#B3B3B3;entryX=0;entryY=0;entryDx=0;entryDy=0;exitX=1;exitY=0.75;exitDx=0;exitDy=0;labelBackgroundColor=none;" parent="IfvViQirqnI56DDQwfop-3" source="PqhAA0QRvtxAwvTUZkwT-29" target="PqhAA0QRvtxAwvTUZkwT-24" edge="1">
          <mxGeometry x="0.9554" relative="1" as="geometry">
            <Array as="points">
              <mxPoint x="310" y="410" />
              <mxPoint x="310" y="560" />
              <mxPoint x="73" y="560" />
            </Array>
            <mxPoint x="195" y="412" as="sourcePoint" />
            <mxPoint as="offset" />
          </mxGeometry>
        </mxCell>
        <mxCell id="PqhAA0QRvtxAwvTUZkwT-29" value="" style="shape=image;verticalLabelPosition=bottom;labelBackgroundColor=#ffffff;verticalAlign=top;aspect=fixed;imageAspect=0;image=data:image/svg+xml,PHN2ZyB2ZXJzaW9uPSIxLjEiIGlkPSJMYXllcl8xIiB4bWxucz0iaHR0cDovL3d3dy53My5vcmcvMjAwMC9zdmciIHhtbG5zOnhsaW5rPSJodHRwOi8vd3d3LnczLm9yZy8xOTk5L3hsaW5rIiB4PSIwcHgiIHk9IjBweCIgdmlld0JveD0iMCAwIDExNi4yIDExNS43IiBlbmFibGUtYmFja2dyb3VuZD0ibmV3IDAgMCAxMTYuMiAxMTUuNyIgeG1sOnNwYWNlPSJwcmVzZXJ2ZSI+JiN4YTs8cmVjdCB4PSItMTgwMy4zIiB5PSItNjI0LjMiIGZpbGw9Im5vbmUiIHN0cm9rZT0iI0ZGRkZGRiIgc3Ryb2tlLXdpZHRoPSIzMCIgc3Ryb2tlLW1pdGVybGltaXQ9IjEwIiB3aWR0aD0iNDQ3Ny4yIiBoZWlnaHQ9Ijg4MS42Ii8+JiN4YTs8cmVjdCB4PSI0LjEiIHk9IjMuNCIgZmlsbD0iIzkxOTE5MSIgd2lkdGg9IjEwOCIgaGVpZ2h0PSIxMDguOCIvPiYjeGE7PGc+JiN4YTsJPGc+JiN4YTsJCTxnPiYjeGE7CQkJPGc+JiN4YTsJCQkJPGxpbmUgZmlsbD0ibm9uZSIgc3Ryb2tlPSIjRkZGRkZGIiBzdHJva2Utd2lkdGg9IjQiIHN0cm9rZS1taXRlcmxpbWl0PSIxMCIgeDE9IjU3LjMiIHkxPSI2NC41IiB4Mj0iOTYuNCIgeTI9IjY0LjUiLz4mI3hhOwkJCQk8Zz4mI3hhOwkJCQkJPHBvbHlnb24gZmlsbD0iI0ZGRkZGRiIgcG9pbnRzPSI4OC4yLDc0LjYgODYuNSw3Mi44IDk1LjUsNjQuNSA4Ni41LDU2LjIgODguMiw1NC4zIDk5LjEsNjQuNSAgICAgICIvPiYjeGE7CQkJCTwvZz4mI3hhOwkJCTwvZz4mI3hhOwkJPC9nPiYjeGE7CTwvZz4mI3hhOwk8Zz4mI3hhOwkJPGc+JiN4YTsJCQk8Zz4mI3hhOwkJCQk8bGluZSBmaWxsPSJub25lIiBzdHJva2U9IiNGRkZGRkYiIHN0cm9rZS13aWR0aD0iNCIgc3Ryb2tlLW1pdGVybGltaXQ9IjEwIiB4MT0iOTQuNSIgeTE9IjMzLjkiIHgyPSI1Ny41IiB5Mj0iMzMuOSIvPiYjeGE7CQkJCTxnPiYjeGE7CQkJCQk8cG9seWdvbiBmaWxsPSIjRkZGRkZGIiBwb2ludHM9Ijg2LjMsMjMuNyA4NC42LDI1LjYgOTMuNSwzMy45IDg0LjYsNDIuMiA4Ni4zLDQ0IDk3LjIsMzMuOSAgICAgICIvPiYjeGE7CQkJCTwvZz4mI3hhOwkJCTwvZz4mI3hhOwkJPC9nPiYjeGE7CTwvZz4mI3hhOwk8Zz4mI3hhOwkJPGc+JiN4YTsJCQk8Zz4mI3hhOwkJCQk8bGluZSBmaWxsPSJub25lIiBzdHJva2U9IiNGRkZGRkYiIHN0cm9rZS13aWR0aD0iNCIgc3Ryb2tlLW1pdGVybGltaXQ9IjEwIiB4MT0iMTkuOCIgeTE9IjgxLjgiIHgyPSI1Ny4zIiB5Mj0iODEuOCIvPiYjeGE7CQkJCTxnPiYjeGE7CQkJCQk8cG9seWdvbiBmaWxsPSIjRkZGRkZGIiBwb2ludHM9IjI4LDkxLjkgMjkuNyw5MC4xIDIwLjcsODEuOCAyOS43LDczLjUgMjgsNzEuNyAxNy4xLDgxLjggICAgICAiLz4mI3hhOwkJCQk8L2c+JiN4YTsJCQk8L2c+JiN4YTsJCTwvZz4mI3hhOwk8L2c+JiN4YTsJPGc+JiN4YTsJCTxnPiYjeGE7CQkJPGc+JiN4YTsJCQkJPGxpbmUgZmlsbD0ibm9uZSIgc3Ryb2tlPSIjRkZGRkZGIiBzdHJva2Utd2lkdGg9IjQiIHN0cm9rZS1taXRlcmxpbWl0PSIxMCIgeDE9IjU3LjMiIHkxPSI1MS4zIiB4Mj0iMTkuOCIgeTI9IjUxLjMiLz4mI3hhOwkJCQk8Zz4mI3hhOwkJCQkJPHBvbHlnb24gZmlsbD0iI0ZGRkZGRiIgcG9pbnRzPSIyOCw0MS4yIDI5LjcsNDMgMjAuNyw1MS4zIDI5LjcsNTkuNiAyOCw2MS40IDE3LjEsNTEuMyAgICAgICIvPiYjeGE7CQkJCTwvZz4mI3hhOwkJCTwvZz4mI3hhOwkJPC9nPiYjeGE7CTwvZz4mI3hhOzwvZz4mI3hhOzwvc3ZnPg==;gradientColor=none;" parent="IfvViQirqnI56DDQwfop-3" vertex="1">
          <mxGeometry x="154.97000000000003" y="360" width="66" height="66" as="geometry" />
        </mxCell>
        <mxCell id="PqhAA0QRvtxAwvTUZkwT-33" style="edgeStyle=orthogonalEdgeStyle;rounded=0;orthogonalLoop=1;jettySize=auto;html=1;exitX=1;exitY=0.25;exitDx=0;exitDy=0;entryX=0.985;entryY=-0.004;entryDx=0;entryDy=0;endArrow=none;endFill=0;strokeColor=#66B2FF;entryPerimeter=0;" parent="IfvViQirqnI56DDQwfop-3" source="PqhAA0QRvtxAwvTUZkwT-34" target="PqhAA0QRvtxAwvTUZkwT-24" edge="1">
          <mxGeometry relative="1" as="geometry">
            <Array as="points">
              <mxPoint x="350" y="175" />
              <mxPoint x="350" y="600" />
              <mxPoint x="248" y="600" />
            </Array>
          </mxGeometry>
        </mxCell>
        <mxCell id="PqhAA0QRvtxAwvTUZkwT-61" value="N2" style="edgeLabel;html=1;align=center;verticalAlign=middle;resizable=0;points=[];labelBackgroundColor=none;" parent="PqhAA0QRvtxAwvTUZkwT-33" vertex="1" connectable="0">
          <mxGeometry x="0.9723" relative="1" as="geometry">
            <mxPoint as="offset" />
          </mxGeometry>
        </mxCell>
        <mxCell id="PqhAA0QRvtxAwvTUZkwT-34" value="" style="shape=image;verticalLabelPosition=bottom;labelBackgroundColor=#ffffff;verticalAlign=top;aspect=fixed;imageAspect=0;image=data:image/svg+xml,PHN2ZyB2ZXJzaW9uPSIxLjEiIGlkPSJMYXllcl8xIiB4bWxucz0iaHR0cDovL3d3dy53My5vcmcvMjAwMC9zdmciIHhtbG5zOnhsaW5rPSJodHRwOi8vd3d3LnczLm9yZy8xOTk5L3hsaW5rIiB4PSIwcHgiIHk9IjBweCIgdmlld0JveD0iMCAwIDExMS44IDExMS40IiBlbmFibGUtYmFja2dyb3VuZD0ibmV3IDAgMCAxMTEuOCAxMTEuNCIgeG1sOnNwYWNlPSJwcmVzZXJ2ZSI+JiN4YTs8cmVjdCB4PSIyLjIiIHk9IjEiIGZpbGw9IiMzOEIwREUiIHdpZHRoPSIxMDgiIGhlaWdodD0iMTA4LjgiLz4mI3hhOzxyZWN0IHg9Ii0xODA1LjIiIHk9Ii00NjYuOCIgZmlsbD0ibm9uZSIgc3Ryb2tlPSIjRkZGRkZGIiBzdHJva2Utd2lkdGg9IjMwIiBzdHJva2UtbWl0ZXJsaW1pdD0iMTAiIHdpZHRoPSI0NDc3LjIiIGhlaWdodD0iODgxLjYiLz4mI3hhOzxnPiYjeGE7CTxnPiYjeGE7CQk8Zz4mI3hhOwkJCTxnPiYjeGE7CQkJCTxsaW5lIGZpbGw9Im5vbmUiIHN0cm9rZT0iI0ZGRkZGRiIgc3Ryb2tlLXdpZHRoPSI0IiBzdHJva2UtbWl0ZXJsaW1pdD0iMTAiIHgxPSI1NS40IiB5MT0iNjIiIHgyPSI5NC41IiB5Mj0iNjIiLz4mI3hhOwkJCQk8Zz4mI3hhOwkJCQkJPHBvbHlnb24gZmlsbD0iI0ZGRkZGRiIgcG9pbnRzPSI4Ni4zLDcyLjIgODQuNiw3MC4zIDkzLjYsNjIgODQuNiw1My43IDg2LjMsNTEuOSA5Ny4yLDYyICAgICAgIi8+JiN4YTsJCQkJPC9nPiYjeGE7CQkJPC9nPiYjeGE7CQk8L2c+JiN4YTsJPC9nPiYjeGE7CTxnPiYjeGE7CQk8Zz4mI3hhOwkJCTxnPiYjeGE7CQkJCTxsaW5lIGZpbGw9Im5vbmUiIHN0cm9rZT0iI0ZGRkZGRiIgc3Ryb2tlLXdpZHRoPSI0IiBzdHJva2UtbWl0ZXJsaW1pdD0iMTAiIHgxPSI5Mi42IiB5MT0iMzEuNCIgeDI9IjU1LjYiIHkyPSIzMS40Ii8+JiN4YTsJCQkJPGc+JiN4YTsJCQkJCTxwb2x5Z29uIGZpbGw9IiNGRkZGRkYiIHBvaW50cz0iODQuNCwyMS4zIDgyLjcsMjMuMSA5MS42LDMxLjQgODIuNywzOS43IDg0LjQsNDEuNiA5NS4zLDMxLjQgICAgICAiLz4mI3hhOwkJCQk8L2c+JiN4YTsJCQk8L2c+JiN4YTsJCTwvZz4mI3hhOwk8L2c+JiN4YTsJPGc+JiN4YTsJCTxnPiYjeGE7CQkJPGc+JiN4YTsJCQkJPGxpbmUgZmlsbD0ibm9uZSIgc3Ryb2tlPSIjRkZGRkZGIiBzdHJva2Utd2lkdGg9IjQiIHN0cm9rZS1taXRlcmxpbWl0PSIxMCIgeDE9IjE3LjkiIHkxPSI3OS4zIiB4Mj0iNTUuNCIgeTI9Ijc5LjMiLz4mI3hhOwkJCQk8Zz4mI3hhOwkJCQkJPHBvbHlnb24gZmlsbD0iI0ZGRkZGRiIgcG9pbnRzPSIyNi4xLDg5LjUgMjcuOCw4Ny43IDE4LjgsNzkuMyAyNy44LDcxIDI2LjEsNjkuMiAxNS4yLDc5LjMgICAgICAiLz4mI3hhOwkJCQk8L2c+JiN4YTsJCQk8L2c+JiN4YTsJCTwvZz4mI3hhOwk8L2c+JiN4YTsJPGc+JiN4YTsJCTxnPiYjeGE7CQkJPGc+JiN4YTsJCQkJPGxpbmUgZmlsbD0ibm9uZSIgc3Ryb2tlPSIjRkZGRkZGIiBzdHJva2Utd2lkdGg9IjQiIHN0cm9rZS1taXRlcmxpbWl0PSIxMCIgeDE9IjU1LjQiIHkxPSI0OC44IiB4Mj0iMTcuOSIgeTI9IjQ4LjgiLz4mI3hhOwkJCQk8Zz4mI3hhOwkJCQkJPHBvbHlnb24gZmlsbD0iI0ZGRkZGRiIgcG9pbnRzPSIyNi4xLDM4LjcgMjcuOCw0MC41IDE4LjgsNDguOCAyNy44LDU3LjIgMjYuMSw1OSAxNS4yLDQ4LjggICAgICAiLz4mI3hhOwkJCQk8L2c+JiN4YTsJCQk8L2c+JiN4YTsJCTwvZz4mI3hhOwk8L2c+JiN4YTs8L2c+JiN4YTs8L3N2Zz4=;gradientColor=none;" parent="IfvViQirqnI56DDQwfop-3" vertex="1">
          <mxGeometry x="239.73000000000005" y="160" width="60.54" height="60" as="geometry" />
        </mxCell>
        <mxCell id="PqhAA0QRvtxAwvTUZkwT-36" value="" style="rounded=1;whiteSpace=wrap;html=1;" parent="IfvViQirqnI56DDQwfop-3" vertex="1">
          <mxGeometry x="10" y="294" width="30" height="80" as="geometry" />
        </mxCell>
        <mxCell id="PqhAA0QRvtxAwvTUZkwT-27" style="edgeStyle=orthogonalEdgeStyle;rounded=0;orthogonalLoop=1;jettySize=auto;html=1;exitX=0;exitY=0.75;exitDx=0;exitDy=0;endArrow=none;endFill=0;strokeColor=#B3B3B3;entryX=1.002;entryY=0.901;entryDx=0;entryDy=0;entryPerimeter=0;" parent="IfvViQirqnI56DDQwfop-3" source="PqhAA0QRvtxAwvTUZkwT-29" target="PqhAA0QRvtxAwvTUZkwT-36" edge="1">
          <mxGeometry relative="1" as="geometry">
            <Array as="points">
              <mxPoint x="70" y="409" />
              <mxPoint x="70" y="366" />
              <mxPoint x="40" y="366" />
            </Array>
            <mxPoint x="40" y="370" as="targetPoint" />
          </mxGeometry>
        </mxCell>
        <mxCell id="PqhAA0QRvtxAwvTUZkwT-28" value="ISL" style="edgeLabel;html=1;align=center;verticalAlign=middle;resizable=0;points=[];labelBackgroundColor=#F5F5F5;" parent="PqhAA0QRvtxAwvTUZkwT-27" vertex="1" connectable="0">
          <mxGeometry x="0.826" y="1" relative="1" as="geometry">
            <mxPoint x="2.1500000000000004" y="-1" as="offset" />
          </mxGeometry>
        </mxCell>
        <mxCell id="PqhAA0QRvtxAwvTUZkwT-31" style="edgeStyle=orthogonalEdgeStyle;rounded=0;orthogonalLoop=1;jettySize=auto;html=1;exitX=0;exitY=0.5;exitDx=0;exitDy=0;endArrow=none;endFill=0;strokeColor=#d6b656;entryX=1;entryY=0.25;entryDx=0;entryDy=0;gradientColor=#ffd966;fillColor=#fff2cc;" parent="IfvViQirqnI56DDQwfop-3" source="PqhAA0QRvtxAwvTUZkwT-34" target="PqhAA0QRvtxAwvTUZkwT-36" edge="1">
          <mxGeometry relative="1" as="geometry">
            <mxPoint x="30" y="340" as="targetPoint" />
            <Array as="points">
              <mxPoint x="110" y="190" />
              <mxPoint x="110" y="314" />
            </Array>
          </mxGeometry>
        </mxCell>
        <mxCell id="PqhAA0QRvtxAwvTUZkwT-32" value="ISL" style="edgeLabel;html=1;align=center;verticalAlign=middle;resizable=0;points=[];labelBackgroundColor=#F5F5F5;" parent="PqhAA0QRvtxAwvTUZkwT-31" vertex="1" connectable="0">
          <mxGeometry x="0.8824" y="1" relative="1" as="geometry">
            <mxPoint x="-4.059999999999999" y="-1" as="offset" />
          </mxGeometry>
        </mxCell>
        <mxCell id="PqhAA0QRvtxAwvTUZkwT-37" value="FABRIC A" style="text;html=1;strokeColor=none;fillColor=none;align=center;verticalAlign=middle;whiteSpace=wrap;rounded=0;dashed=1;fontStyle=1" parent="IfvViQirqnI56DDQwfop-3" vertex="1">
          <mxGeometry x="241" y="120" width="60" height="20" as="geometry" />
        </mxCell>
        <mxCell id="PqhAA0QRvtxAwvTUZkwT-38" value="FABRIC B" style="text;html=1;strokeColor=none;fillColor=none;align=center;verticalAlign=middle;whiteSpace=wrap;rounded=0;dashed=1;fontStyle=1" parent="IfvViQirqnI56DDQwfop-3" vertex="1">
          <mxGeometry x="155.50000000000003" y="323" width="60" height="20" as="geometry" />
        </mxCell>
        <mxCell id="PqhAA0QRvtxAwvTUZkwT-35" value="" style="rounded=1;whiteSpace=wrap;html=1;" parent="IfvViQirqnI56DDQwfop-3" vertex="1">
          <mxGeometry x="10" y="120" width="30" height="80" as="geometry" />
        </mxCell>
        <mxCell id="PqhAA0QRvtxAwvTUZkwT-25" style="edgeStyle=orthogonalEdgeStyle;rounded=0;orthogonalLoop=1;jettySize=auto;html=1;exitX=0;exitY=0.5;exitDx=0;exitDy=0;entryX=1;entryY=0.75;entryDx=0;entryDy=0;endArrow=none;endFill=0;strokeColor=#B3B3B3;" parent="IfvViQirqnI56DDQwfop-3" source="PqhAA0QRvtxAwvTUZkwT-29" target="PqhAA0QRvtxAwvTUZkwT-35" edge="1">
          <mxGeometry relative="1" as="geometry">
            <Array as="points">
              <mxPoint x="90" y="393" />
              <mxPoint x="90" y="180" />
            </Array>
          </mxGeometry>
        </mxCell>
        <mxCell id="PqhAA0QRvtxAwvTUZkwT-26" value="ISL" style="edgeLabel;html=1;align=center;verticalAlign=middle;resizable=0;points=[];labelBackgroundColor=#F5F5F5;" parent="PqhAA0QRvtxAwvTUZkwT-25" vertex="1" connectable="0">
          <mxGeometry x="0.8432" relative="1" as="geometry">
            <mxPoint x="-13.14" as="offset" />
          </mxGeometry>
        </mxCell>
        <mxCell id="PqhAA0QRvtxAwvTUZkwT-30" value="&lt;span style=&quot;background-color: rgb(245 , 245 , 245)&quot;&gt;ISL&lt;/span&gt;" style="rounded=0;orthogonalLoop=1;jettySize=auto;html=1;exitX=0;exitY=0.25;exitDx=0;exitDy=0;edgeStyle=orthogonalEdgeStyle;endArrow=none;endFill=0;strokeColor=#d6b656;gradientColor=#ffd966;fillColor=#fff2cc;labelBackgroundColor=none;" parent="IfvViQirqnI56DDQwfop-3" edge="1">
          <mxGeometry x="0.9063" relative="1" as="geometry">
            <mxPoint as="offset" />
            <mxPoint x="238.73000000000002" y="175" as="sourcePoint" />
            <mxPoint x="39" y="140" as="targetPoint" />
            <Array as="points">
              <mxPoint x="110" y="175" />
              <mxPoint x="110" y="140" />
            </Array>
          </mxGeometry>
        </mxCell>
        <mxCell id="PqhAA0QRvtxAwvTUZkwT-57" style="edgeStyle=orthogonalEdgeStyle;rounded=0;orthogonalLoop=1;jettySize=auto;html=1;exitX=1;exitY=0.5;exitDx=0;exitDy=0;entryX=0.25;entryY=0;entryDx=0;entryDy=0;endArrow=none;endFill=0;strokeColor=#66B2FF;" parent="IfvViQirqnI56DDQwfop-3" source="PqhAA0QRvtxAwvTUZkwT-34" target="PqhAA0QRvtxAwvTUZkwT-24" edge="1">
          <mxGeometry relative="1" as="geometry">
            <Array as="points">
              <mxPoint x="340" y="190" />
              <mxPoint x="340" y="590" />
              <mxPoint x="117" y="590" />
              <mxPoint x="117" y="622" />
            </Array>
            <mxPoint x="310.2700000000002" y="185" as="sourcePoint" />
            <mxPoint x="258.2999999999997" y="631.8720000000001" as="targetPoint" />
          </mxGeometry>
        </mxCell>
        <mxCell id="PqhAA0QRvtxAwvTUZkwT-59" value="N1" style="edgeLabel;html=1;align=center;verticalAlign=middle;resizable=0;points=[];labelBackgroundColor=none;" parent="PqhAA0QRvtxAwvTUZkwT-57" vertex="1" connectable="0">
          <mxGeometry x="0.9645" y="-1" relative="1" as="geometry">
            <mxPoint as="offset" />
          </mxGeometry>
        </mxCell>
        <mxCell id="PqhAA0QRvtxAwvTUZkwT-58" style="edgeStyle=orthogonalEdgeStyle;rounded=0;orthogonalLoop=1;jettySize=auto;html=1;endArrow=none;endFill=0;strokeColor=#B3B3B3;entryX=0.75;entryY=0;entryDx=0;entryDy=0;exitX=1;exitY=0.5;exitDx=0;exitDy=0;" parent="IfvViQirqnI56DDQwfop-3" source="PqhAA0QRvtxAwvTUZkwT-29" target="PqhAA0QRvtxAwvTUZkwT-24" edge="1">
          <mxGeometry relative="1" as="geometry">
            <Array as="points">
              <mxPoint x="320" y="393" />
              <mxPoint x="320" y="570" />
              <mxPoint x="206" y="570" />
              <mxPoint x="206" y="622" />
            </Array>
            <mxPoint x="205" y="422" as="sourcePoint" />
            <mxPoint x="82.97000000000003" y="632" as="targetPoint" />
          </mxGeometry>
        </mxCell>
        <mxCell id="PqhAA0QRvtxAwvTUZkwT-60" value="N2" style="edgeLabel;html=1;align=center;verticalAlign=middle;resizable=0;points=[];labelBackgroundColor=none;" parent="PqhAA0QRvtxAwvTUZkwT-58" vertex="1" connectable="0">
          <mxGeometry x="0.96" y="-1" relative="1" as="geometry">
            <mxPoint as="offset" />
          </mxGeometry>
        </mxCell>
        <mxCell id="j0OG2FaVqfN2Owm-drPW-0" value="&lt;span style=&quot;font-family: &amp;#34;verdana&amp;#34; ; font-size: 12px ; font-style: normal ; letter-spacing: normal ; text-align: center ; text-indent: 0px ; text-transform: none ; word-spacing: 0px ; float: none ; display: inline&quot;&gt;&lt;font color=&quot;#000000&quot;&gt;Private&lt;/font&gt;&lt;/span&gt;" style="text;whiteSpace=wrap;html=1;fontSize=10;fontFamily=Verdana;fontColor=#1B3D0F;" parent="IfvViQirqnI56DDQwfop-3" vertex="1">
          <mxGeometry x="244.87" y="220" width="60.27" height="30" as="geometry" />
        </mxCell>
        <mxCell id="j0OG2FaVqfN2Owm-drPW-1" value="&lt;meta charset=&quot;utf-8&quot;&gt;&lt;span style=&quot;font-family: verdana; font-size: 12px; font-style: normal; font-variant-ligatures: normal; font-variant-caps: normal; font-weight: 400; letter-spacing: normal; orphans: 2; text-align: center; text-indent: 0px; text-transform: none; widows: 2; word-spacing: 0px; -webkit-text-stroke-width: 0px; text-decoration-style: initial; text-decoration-color: initial; float: none; display: inline !important;&quot;&gt;Private&lt;/span&gt;" style="text;whiteSpace=wrap;html=1;fontSize=10;fontFamily=Verdana;fontColor=#1B3D0F;" parent="IfvViQirqnI56DDQwfop-3" vertex="1">
          <mxGeometry x="161" y="426" width="49" height="30" as="geometry" />
        </mxCell>
        <mxCell id="PqhAA0QRvtxAwvTUZkwT-41" style="edgeStyle=orthogonalEdgeStyle;rounded=1;orthogonalLoop=1;jettySize=auto;html=1;exitX=1;exitY=0.5;exitDx=0;exitDy=0;entryX=0;entryY=0.5;entryDx=0;entryDy=0;endArrow=none;endFill=0;strokeColor=#FF0000;fillColor=#e51400;strokeWidth=2;" parent="IfvViQirqnI56DDQwfop-1" source="PqhAA0QRvtxAwvTUZkwT-4" target="PqhAA0QRvtxAwvTUZkwT-35" edge="1">
          <mxGeometry relative="1" as="geometry" />
        </mxCell>
        <mxCell id="PqhAA0QRvtxAwvTUZkwT-42" value="&lt;b&gt;Active/&lt;br&gt;Passive WDM&lt;/b&gt;" style="edgeLabel;html=1;align=center;verticalAlign=middle;resizable=0;points=[];" parent="PqhAA0QRvtxAwvTUZkwT-41" vertex="1" connectable="0">
          <mxGeometry x="0.0951" y="2" relative="1" as="geometry">
            <mxPoint x="-9.14" y="-15" as="offset" />
          </mxGeometry>
        </mxCell>
        <mxCell id="PqhAA0QRvtxAwvTUZkwT-43" value="Path A" style="text;html=1;align=center;verticalAlign=middle;resizable=0;points=[];autosize=1;" parent="IfvViQirqnI56DDQwfop-1" vertex="1">
          <mxGeometry x="565" y="240" width="50" height="20" as="geometry" />
        </mxCell>
        <mxCell id="PqhAA0QRvtxAwvTUZkwT-44" style="edgeStyle=orthogonalEdgeStyle;rounded=1;orthogonalLoop=1;jettySize=auto;html=1;exitX=1;exitY=0.5;exitDx=0;exitDy=0;entryX=0;entryY=0.5;entryDx=0;entryDy=0;endArrow=none;endFill=0;strokeColor=#FF0000;strokeWidth=2;fillColor=#e51400;" parent="IfvViQirqnI56DDQwfop-1" source="PqhAA0QRvtxAwvTUZkwT-5" target="PqhAA0QRvtxAwvTUZkwT-36" edge="1">
          <mxGeometry relative="1" as="geometry" />
        </mxCell>
        <mxCell id="PqhAA0QRvtxAwvTUZkwT-45" value="&lt;b&gt;&lt;font face=&quot;Verdana&quot; style=&quot;font-size: 10px&quot;&gt;Active/&lt;br&gt;Passive WDM&lt;/font&gt;&lt;/b&gt;" style="edgeLabel;html=1;align=center;verticalAlign=middle;resizable=0;points=[];" parent="PqhAA0QRvtxAwvTUZkwT-44" vertex="1" connectable="0">
          <mxGeometry x="-0.1808" y="-1" relative="1" as="geometry">
            <mxPoint x="17.07" y="-17" as="offset" />
          </mxGeometry>
        </mxCell>
        <mxCell id="PqhAA0QRvtxAwvTUZkwT-46" value="Path B" style="edgeLabel;html=1;align=center;verticalAlign=middle;resizable=0;points=[];fontSize=12;" parent="IfvViQirqnI56DDQwfop-1" vertex="1" connectable="0">
          <mxGeometry x="570.0010344827585" y="440" as="geometry">
            <mxPoint x="17.07" y="-14" as="offset" />
          </mxGeometry>
        </mxCell>
        <mxCell id="PqhAA0QRvtxAwvTUZkwT-47" value="Logical SAN Fabric - HyperSwap - Intercluster" style="text;whiteSpace=wrap;html=1;fontStyle=1;align=center;fontSize=14;" parent="IfvViQirqnI56DDQwfop-1" vertex="1">
          <mxGeometry x="399" y="15" width="370" height="30" as="geometry" />
        </mxCell>
        <mxCell id="PqhAA0QRvtxAwvTUZkwT-48" value="&lt;b&gt;Redundant ISL Fabric&lt;/b&gt;" style="text;html=1;align=center;verticalAlign=middle;resizable=0;points=[];autosize=1;" parent="IfvViQirqnI56DDQwfop-1" vertex="1">
          <mxGeometry x="520" y="50" width="140" height="20" as="geometry" />
        </mxCell>
        <mxCell id="PqhAA0QRvtxAwvTUZkwT-50" style="edgeStyle=orthogonalEdgeStyle;rounded=0;orthogonalLoop=1;jettySize=auto;html=1;exitX=0;exitY=0.25;exitDx=0;exitDy=0;endArrow=none;endFill=0;strokeColor=#66B2FF;entryX=0.75;entryY=0;entryDx=0;entryDy=0;" parent="IfvViQirqnI56DDQwfop-1" target="PqhAA0QRvtxAwvTUZkwT-0" edge="1">
          <mxGeometry relative="1" as="geometry">
            <mxPoint x="173.73000000000002" y="275" as="sourcePoint" />
            <mxPoint x="314" y="680" as="targetPoint" />
            <Array as="points">
              <mxPoint x="114" y="275" />
              <mxPoint x="114" y="670" />
              <mxPoint x="311" y="670" />
              <mxPoint x="311" y="690" />
            </Array>
          </mxGeometry>
        </mxCell>
        <mxCell id="PqhAA0QRvtxAwvTUZkwT-54" value="N2" style="edgeLabel;html=1;align=center;verticalAlign=middle;resizable=0;points=[];labelBackgroundColor=none;" parent="PqhAA0QRvtxAwvTUZkwT-50" vertex="1" connectable="0">
          <mxGeometry x="0.9698" relative="1" as="geometry">
            <mxPoint as="offset" />
          </mxGeometry>
        </mxCell>
        <mxCell id="vrslOE60v9lvM57UEgfr-0" value="" style="shape=image;verticalLabelPosition=bottom;labelBackgroundColor=#ffffff;verticalAlign=top;aspect=fixed;imageAspect=0;image=data:image/png,iVBORw0KGgoAAAANSUhEUgAAA1wAAADDCAYAAACWPRDPAAAAAXNSR0IArs4c6QAAAAlwSFlzAAAXEgAAFxIBZ5/SUgAAQABJREFUeAHsXQlgFcX539ndl4QAAgKCHOElQUDxrLbemAAVj1qtLR7/WusF4VCrXJ5AEA/k9OII4H20ldZqrfUiEO8eatWWVhDIAYIKyBlI8nZ3/r9v33vh5b3dl5dkX/ISvtHwduf45pvfzM7MN/PNN4rCjhFgBBgBRoARYAQYAUaAEWAEGAFGgBFgBBgBRoARYAQYAUaAEWAEGAFGgBFgBBgBRoARYAQYAUaAEWAEGAFGgBFgBBgBRoARYAQYAUaAEWAEGAFGgBFgBBgBRoARYAQYAUaAEWAEGAFGgBFgBBgBRoARYAQYAUaAEWAEGAFGgBFgBBgBRoARYAQYAUYgiQhMzlt44uQfLz0xiVkwaUaAEWAEGAFGgBFgBBgBRoARSHEERIrz1+rYm5hX1E1TlRstRZmoKEJKRXk4TdQ89EDxjTtaXWGYYUaAEWAEGAFGgBFgBBgBRoARaBICLHA1Cb46icXk4UsvFVJMV4V2nClNO1ATmmJJcw3eCjsWf/1SoVIIWYwdI8AIMAKMACPACDACjAAjwAgcCgiwwOVBLU/MX3SyEBoELfUioQglLGyFSZPQJfGfosjXpJTT5qwq+DQcxr+MACPACDACjAAjwAgwAowAI9B2EWCBqwl1e9PZj3RPT8u4VVXEOOxqdTKsQFxquuqDMGbsUaRYJHVjwdy3xn4XNwEHMgKMACPACDACjAAjwAgwAoxAq0aABa5GVN/IkS9q/b7ffaVQ5DQIUUeRoIWdq4QoCSEUDYIX0qxTpXJvadfOL6xYcVlQ/zAhChyJEWAEGAFGgBFgBBgBRoARYARaCwIscDWwpm7NW3KKT9cLIWFdCKMYdD6rgRSC0bEjZj9IxXzDstS7560e9UmjCHEiRoARYAQYAUaAEWAEGAFGgBFIWQRY4Eqwam4ZUXSkHlCmCKGOwpms9vWpDyZIVgmqGZqV2CBbVqVVzXns7Zu2JJqW4zECjAAjwAgwAowAI8AIMAKMQGojwAJXPfUz+uQi32Gd5FWqot2pqlp/MoghpbeGBm01Q+FTLMtYbwpx795d5gtLPymIfyCsHr45mBFgBBgBRoARYAQYAUaAEWAEWh4BFrji1MHk/MVnKiqsDyrqj+mEVmPVB+NkUSeI1AxJ+EI+KxXVLJzz9tgP6kTgF0aAEWAEGAFGgBFgBBgBRoARaFUIsMDlUF23Dl3cWxPqFAhaN0AIyvRKfdAhK0cvUjOE0LXfktYT1Zb64KMlozY7RmRPRoARYAQYAUaAEWAEGAFGgBFIaQRY4IqoHlIf7HyYcq0U6p26pvczTFgftO/PiojUTI90n5emwYy8ZZTDAuJ95V23PL1iRWFNM2XP2TACjAAjwAgwAowAI8AIMAKMgAcIsMAVAnHS8GV52FYq1FTtHDLxnmz1wUTrLqhmSOqM1ns4PTZ9fnHB6kTTcjxGgBFgBBgBRoARYAQYAUaAEWhZBA55ges3w4uyfFLchh2l6yHcpJv1XF6caHXRDhU5r3bIbGuGllEthfK4lOrseatuKE+UF47HCDACjAAjwAgwAowAI8AIMAItg8AhK3AV5j2ZsVetHgXBaIqupvUhQcsr4UhTdVIFrEaVCghKaV6dAbPVDEEb9L4G7VnmgcrHF3w04UDLNB3OlRFgBBgBRoARYAQYAUaAEWAE6kMgePtufbHaWPikoYuHGkJZDsFoDISYw0xpeFJCUv+jP6gjvic0cZ1pmc9ijysH+fQjYckLgQ6qhZTHYTBRf4HqSz/7TP9PN31Q9udSTwrARBgBRoARYAQYAUaAEWAEGAFGwFMEDqkdrtvzFvstVbtTCnmtKnQdu1CegFl7j5Y0K0zFerDjN1uWF64JGrggQxwdO4tRMPh+G/LMMiV20nBGzAtHO2kQ7gyQe9JUjVkLVo7b6AVdpsEIMAKMACPACDACjAAjwAgwAt4gcEgIXKQ+WKnXjBVSnQShp5e36oO2CfcqCFHLLT0we/5b4zc5Vc2EIQv7qpo+SahiNHjI8PKsmAYz8lIxtpqmnGtW7VvMaoZONcB+jAAjwAgwAowAI8AIMAKMQPMj0OYFron5S0dgB2q6rmqnk+VBUsnzwpHqoO2kLJbSmD5ndWKXFE/OX47LlK1CoajDKb1X1hBVgVvDwJMpzb8pljlzzuoxfw0yyP8yAowAI8AIMAKMACPACDACjEBLIdBmBa5b8xb217S0u3Fy6pcQRDxXHzStmjIITfccSD/wwqOv30wGMhJ2N53/SHr6gXZXQT66UxN6jtdqhhJqhpYUzwrDfGDOu2O+SpgxjsgIMAKMACPACDACjAAjwAgwAp4i0OYErilnPt5RaWeNkZaciIuDe5geXl5MptmxI7XfkspSI2DNfui9gq1NqY07hy3rYcBKopTWWJzHaue1NUMYA/kO57vm77cCCxeVjN/XFF45LSPACDACjAAjwAgwAowAI8AINByBNiVwTRy+dAQU62bAVuCp3qsPCsVSzJWaVKY/uGr0hw2H2j3FhKFLz1ClnAHLg0lSMzT+aSjWtAXFY95w54JDGAFGgBFgBBgBRoARYAQYAUbAawTahMA1ZcjCo6WeNhVm16/QVE14aX1QFz7FkIGvhFRmZq7a8nyhUujNIbComgRddf/QXr/EQaxpmqL3N2CqHjtfUbEa90rWDGGiXqpC+T0Ma8yYV1LwZeMocSpGgBFgBBgBRoARYAQYAUaAEWgIAq1a4Lolb0HnNK39WEWqt6qa1j0J6oN7YWZjsWoaC+aUjP+mIcA2Nu7kvIU9pardgnNnY/DXyXs1Q3M7BLmHDCtt4UMl1+5qLJ+cjhFgBBgBRoARYAQYAUaAEWAE6keg1Qpck/KXXayqynSYWD+JLi72bDdI6DCxTjtL8jXslE2ft3rcJ/XD6H2MifnLTlZVWago4icqLk2G9UFPMhGwZghDHYplBT5HKWfMXTX6T54QZiKMACPACDACjAAjwAgwAowAIxCDQKsTuCblLT5WUbWpqhC/gPCgeqc+GBREYDHwv7gY+b7yLl1+v2LFZd5IOTGwJ+YxcuSLWr/vd42EOuN0GAAZRGX1TLC0L022YFPDegl3gk1fsPrGNYlxxbEYAUaAEWAEGAFGgBFgBBgBRiBRBFqNwHX7WYu6mGn6BEWIcbqqHx6A9UHsQiVazrjxyPogzkztgWDzyH5R89DC4ht3xE3QzIG3jlh+uG5Yv8EZtVtwpuwwr9QMsXumAEvaPfteEXKRlm7Mn/XauJ3NXDzOjhFgBBgBRoARYAQYAUaAEWizCKS8wEXGJPYO63mpKtVCGH8YTKp1nu3yhNQHIWj9yRSBwrnF475I5Zq+bXjRcZZUZ0BQugRqhoJUKb1wQTVDXJpsmf+xhDmjY/E3LyXLOIgX/DINRoARYAQYAUaAEWAEGAFGoLUgkNIC1235j58gVbMQ+1iXwIAEBALvBQwp5cy5q0evQIV5s12W/JoXE4ct+bkqNagZasdCSPJOAA2qGWLfS7wsTWvGnJLRnyW/OJwDI8AIMAKMACPACDACjAAj0HYRSEmBa2JeUTfYdrhFCHETDDx4rkJnSWuHIs3Haqy0h1qrpT5SsTTSfDfD1PtNEEa72ue7PJIZQxc877Ysc1G1UbPg0fdu3tZ2PwEuGSPACDACjAAjwAgwAowAI5A8BFJN4BKThi29HOpy02B98GhPrQ/S7g12g4RQ/mCZ5oy5JWP/kzxYm4/yrflLB+uqMgM7dT8P3rfl5S4gMJPGGmz9zZxTPOpFlKq17AI2XwVwTowAI8AIMAKMACPACDACjEAcBFJG4JoydPGPpKJNx67WBVBp89gMugZD7+YnELSgPjjmlTh4tNqgSUOXXAQhdYYqVJjJ91DNEKqcJGVZinxDlcb02avG/qPVgsSMMwKMACPACDACjAAjwAgwAs2MQIsLXDed/Uj3jLSMSRCyxkI1rmMSLPDtgJGNBZqqPPbgyoLdzYxvs2ZHF0H7tA7jsNt1K9QCuwWx9GZTitQMseO4B5YSiwKKOu/h4lHfNmvhODNGgBFgBBgBRoARYAQYAUagFSLQYgJXYV6hXqn2ugqbWXfinNZRQfVBb4QDUq3DOS26vfgFy7Tum1dS8GUrrJtGszwlf9FAKXzTYOr9CgixHt5VJnBpMkzoWzUbpFBmdjQHPF9Yku+NDmOjS8sJGQFGgBFgBBgBRoARYAQYgdRFoEUErkn5RaeqqpiuKOr5BI0FFTgvHNTplKA1w8CniiWmw8reX7yg2xgaE4YvOk01NTl3dcHfG5PeizQT8hb/RFXVQuxOnUwYQwj1gqyNMRGCePyGKeSM+StH/c0TwkyEEWAEGAFGgBFgBBgBRoARaGMINKvANTlvYU+ppU0QUt6IXah2XqkP0pkvLajy9h1oz89sLx8tfLVgf0vU1S1nFx3p8wlc0KzcDIFEgp9FQquZO/vtm7a0BD+FFxVl7qsUsGQobsUZrx6mFYCg5M1OYkjNsArUFlWp1fMea6EytgSunCcjwAgwAowAI8AIMAKMACOQCALNInAV5q3W96lfXqsK3+2qquXYk37pzaSf1AdxRisAoxi/NU195oKSG9YnUnCv44w+uch3WBfrGlUeLCPlQYIgrCOWwZDFfR27dnmmcMVlNV7nnQi9W/OW94dy4Z1CUa/CrpfPuzvNhGILXigjDGvc2+Gbr58tXFPYImVMBAeOwwgwAowAI8AIMAKMACPACDQnAkkXuCYOLzpLlWI6VP2Gw5iDp+qDAiqEUJP7SIVa24MrR7/ZnMBF5mWX0VILIcgMcyojqTnC+iKVfbVhGTMWrB73TmT65nyemL90hKaS2X3tDM/VDFFGKc1VqJMZ81aNebc5y8V5MQKMACPACDACjAAjwAgwAqmIQNIErglDFvbVNP02RVWv04TmrfqgRoYbAluhsTdL0fY8PvetyZUtAS6VUfX5bodK47WJlJF2giDkVJmW9bihKbMfXllQ0RJ8j8tb2CFT1W/QhDpJCL2392qG5gHsOj5u6b7Z89+6blNLlJHzZAQYAUaAEWAEGAFGgBFgBFIBAc8FLlgfzNir9rwG5ivu0DRflml6fGbIMgKwkPeMKfT7F6y8bmNLgFg4+MW0fT13Xosy3qmqeoPKaJ83swVGY5MKgTHz8M7LW0rNcNK5j2YLI+NOCK7XQDVT9/RMXaiMQloPtO/a5fGWKmNLtA/OkxFgBBgBRoARYAQYAUaAEQgj4KnANWnosqEwRT4Duz1nOanWhTNt6G9YJQ+W3t+1VGP63JVjSxpKw6v4E/KXDCPLf5qCMsL4BKnlNcaFy2RZ1gdCmtNnrx5T3Bg6XqSZnL/0HGgDzhCqdk4y6s20zA+gZjh9fguW0QucmAYjwAgwAowAI8AIMAKMACPQUAQ8EbjuOveJvjWmcZcSVK1L83qnBLtkmxVV3l/lq37i0ddvrm5oIb2If9vwoizLUqfC+uDVECg9K6N9Z5gF04FCeTpgGvc9VDK2zAt+G0rjpvMfSW9Xk3G9JZU7fZqvt+HhzmTIcEgAu3tPQTy9b96qG8obyh/HZwQYAUaAEWAEGAFGgBFgBFojAk0SuCCEdDJNZTQMQvwG6oO9PVcfxHknnAV6UlOVWQ+20HmnSefOaS/NjjeoUpsE4aiPl+edwg0mrGYIy4FbsIv34J4OyvKlLWTW3hYspTIF1gxhVVLL9FR4ts+woYzSXBCw0pc/VHLtrjAG/MsIMAKMACPACDACjAAjwAi0RQTUphSqSqoZ2Jk5DRPz3hCMPLnfiVTt7F0faa2Gut6IuasKxrWUsDWF1Aetzm/6RNpDULnrY1g1npQxGnNSTTTMGkCp9ILg+vBhleLtKcOW/Tg6XnO8E9ZzigtuDFjyAgiAq6guqE6a6sLql9jt6oULAS7RLaNLU2lyekaAEWAEGAFGgBFgBBgBRiDVEWjSDleocGLisKKLhVSn6ap2UmNNjZPZ9PCdVYZpzgq0q36qpdQHJw8typVSvQMsXe3lnVWJNgYScrALZMCK/nPYYbpvQcn4FrlbbOTgwrSsHj1hZVK/Dfen+Rt7f1q4biHAleLU24MdDu/yJBvRSLQ1cDxGgBFgBBgBRoARYAQYgdaMgBcCl11+MjXeXksfB4t3UyAwdKUzQHhOCJvgxblGFSIXGYo5Z8GqsV8nlNDjSLa5dKHfCiFrvCr0HslQH0yUZVvNEIKXKY3vkGahqNIWzP7g+r2Jpvcy3pQfP95LmuYk0ByLus1oiJqhXbfSgGqoXKJqNXNmv33TFi95Y1qMACPACDACjAAjwAgwAoxAKiPgmcAVLuSU/EUDLVW7G2eArlRh9g67GuGgmF9SVaPdD6gjvg1rfVPnri74e0ykZvS44/xHutfUpD+qKerldKlyPN6bg63gThdEFWn+QU/3jX/g9eu2NUe+bnlMyFt0mqanzYAe6rnYfYtroTGibt+0FHPG3OIxH7nRZX9GgBFgBBgBRoARYAQYAUagrSLgucAVBmrS0CUXQWiZCnW0H0arGZKQpQu6vLhmgxTygT27xDNLPymgLbGUcJOHLf0JGJmGXa4fQtiBYGE1K18k7MESIna3zI8Vy5w+Z/WYvzYrA3EyG31yka9TJ+uXiqJO1bW0HNrtIlPyYRdZtzj8df/unfLZVKrbMJ/8ywgwAowAI8AIMAKMACPACDQHAkkTuIh5W81Q9Y3BJHwCLgg+klT0IIBBgDH2SUUU1SiVcx4uvuXb5ihoQ/OYcuaDHc2MzqOx2zUZvPfw0gKjGy+kRhhSwfsWO37z1Bp9SUupEbrxGPafdMbiI0SGPkUIWQDBtAPtBtKOHITrfaQ+qAf02Q+817I7cmFe+ZcRYAQYAUaAEWAEGAFGgBFoKQSSKnCFCzV5yJKjhE+7CxPxy6RQ3sXOzTSc0/pHODyVfyf/eMlRiqXdjW2c/4PhCD1ZaoYkrAAXMvX4vCWUe+cXj16XyriEeZs0bMnp2O2ajh25fPC/GhLX9JZWDQ3zxr+MACPACDACjAAjwAgwAoxASyPQLAJXuJAThy05ZsAu8VVBCqkPhnmr73fS0GVDoQl5L84mne6lmiHOudlm17Ez9DdLyKlzV45eWR8vqRZOaoadO2knZVqbPy0sKXQ/tJdqjDM/jAAjwAgwAowAI8AIMAKMQJIRaFaBK8llSTr5wouKMvfuF6NUKW/X1LSeTbFiGFYfxDm2b3AC6kFFb7ds7ltXVya9EJwBI8AIMAKMACPACDACjAAjwAg0GwIscDUC6tvzFvsNVbsTZ9Ouxo5XOgleDXHBc1q46VhRntFM475ZJWPLGpKe4zICjAAjwAgwAowAI8AIMAKMQOtAoM0KXLfmLexfo8mdC4tv3JGsqpg0dPFQRWgzNEU7S+LwFVljjOfCptJxt9b7ilSnz101alW8+E0Ju/X05Ycr6dWHt9SlyU3hndMyAowAI8AIMAKMACPACDACbQWBNidwFeIC5n162lghlSko3Lcwqz5t9uqCPykKfJLgbjr/kfR21emjpFAn6ULvZ5tJj7rwmUylazCDD+uMFaYi53f8ZsviwjWFtMOVDCcgCF4Cy4EzYK29F27Lmiuq9YWpau0wGQAwTUaAEWAEGAFGgBFgBBgBRiBVEGhTAtfEYUWX4MLlabrQTqLdJjonRVIWLlb+i2IpU+eUjP4sWcBPGLKwr+rz3a4q4johtIywmmHIzHs1+Hg8UH3gwYff/01Fsni4LX/JCaaqzkC5L1Yh5FmQuOg+LwiBn6tCKZxdXPBysvJmuowAI8AIMAKMACPACDACjAAjEItAmxC4bhm+8GiflXY3hJorNVUV0abbg0KPtQtKf4ulKefPKynYHguFNz4Thz9+libNeyB05ZPAB1PpqyD8zZi3asy73uQQS2X8sMe6Zsq0WxSh3qgJtbOBO7EgZtZGtO/Hsixcfaa8qFpy5oOrR6+pDeQHRoARYAQYAUaAEWAEGAFGgBFIGgJxBa7bhz+RE7BqzhX63mfnvjU55Szo3X7Woi6BdP0mTRE3Q4WuK6nzRQoakagF1fpw15VlfClVObODsfXFZJkwD6oZpl0LCUdss7Y++VRJYVUkL149jxz5oubfsfsyaEvejQulj4FwR7t5LuRDlypbgZ04b/ZwZY35yOL3x+10idxi3oVKobpvaK+LpaJ+Om/VDeUtxghnzAgwAowAI8AIMAKMACPACHiAQFyB67bhRccZlvIFLvz9QEhzKlTSVnuQpyckJg1d+jPcYTUdfyfEFzTqZkeGK0gog7bdq5YMzJi3etwndWO0jrcJwxefpFr6DGgOXgQ1RtpJS4hxgXu/IJwhvvGFsJQZs1ePeimhhM0QaQJUIrFDeS8uyD7P1OTpC94e83EzZMtZMAKMACPACDACjAAjwAgwAklDIL7Alb90sCnkx1DJyzCkgUflWU01Zs5aOW5j0jiqh/DkvKUnKqoyHZtHMAyh0o5VPSmcg0Om2Stxp9ZSTYgH7y8e9a1zzNTynXTu4iOUgHYbil4Awal9cFev4TySmiHthlnSetVSrenzV479V8OpeJOCyiRMbSKojdGF7zDsqtaAp9NakidvSsZUGAFGgBFgBBgBRoARYAQOdQQSErhwFimDgAoZgNhiKXKeou0uak41QzJzrrWTE1RFGYcdty7R55QaU5G02wPLgmQ9cF1AGg/s260+v/STgoZdqtWYjBuRpjCvUN+n9bwC+1NTVVUfYF+6jG26pjlSM6TdLnMXGsKjAV08tODNG75vGs3EU5NKZNa2HVegPu+GADjI3qVDmfBfNQSu01ngShxLjskIMAKMACPACDACjAAjkJoIQH5JzNE0GDsPFLkXhJR5wuhUPDlvyXmJpW58LDrTM3Hosiu1duZ7EA7ukkKBsOV+VqshOdEOT7BMYoBP9T3ZubP62qT8olMbQqM54hJP+7Ref8GO1rMQfgcYuDMZanceZC3JgiHR6YwzcFN1w3qfsB45ciTpXSbVTcxfdrL/+90va5rvOexUDiI+3M+fJZUVJs4IMAKMACPACDACjAAjwAgkDYGEd7hI4Ip0Ict3Afj/ThjWzDnvjvkqMtyL5+CZHg1mzpWLyeiFaSV2TqmxedMOHiwK7oM9v+XV1oF5j5bcvLmxtLxId8vZRUfqPmUKBJIbcPasQ2PVBxPlhUzI2/UsxJ8NJVCYjB2myXkLeyqqPglWHEejXB2jy0SWHcED73AlWmkcjxFgBBgBRoARYAQYAUYgpRFotMBFpaLJsabZlv++gyGKebjrqejBlQW7m1riO85+orvhC0yAiHcjhKCkCxqR/AatGdqXFG+Ulryv7Lstz61I3iXFkVnXPo8+ucjXqZP4pVDFXdjV6h/c/akr8NZGTsKDrqYphgzAKqVcpGjW3LlvjUX9Ns0VDi5M29ez92UQp6ahTo9yKxMLXE3DmVMzAowAI8AIMAKMACPACKQWAk0SuMJFIeMVtDsUMGv+PGfV6IvD/g39JXPqadUZl+EuqbtwrmcgGcRoKTUzsmaITTXaVXtXUcXMPTvlO8k+30WCVofD5RDVUOhMUx6JWHSBc0s4+3wbne+yjHXSMu/bJtNffKrk2kaZty8slGrle0uXacJ3HYx0xC0TC1wtUducJyPACDACjAAjwAgwAoxAshBI+AxXPAZoEm2bZldkv3jx6gtLr04flab5nkG8gcFzSm53StVHqenhJOjQMak0PWOIsORNnTN023BI0ym7U6A8NFPcmOZrl0exWkrYorzt8204K4Z9zAG6lv50Ny0wjvwb5UpKcN+yOLYlBchG8c2JGAFGgBFgBBgBRoARYAQYgSYi4InAFcFDk7ZjhJDdSVGxJQUNKgupFfq0NAV7MaUBY/+1VenVl83+4Pq9EeVMyiPl0b5rl8urzaprgMFGUu0jXlrS2YKnfbJL9mwKHygFrHOQyMWOEWAEGAFGgBFgBBgBRoAROHQQ0FOpqFLiKt4WnpSHDWfA7HyRMANz55SM/6Y5MSpccRltKz2Nu6leN0xjkpBiDKwzwrgE3TfWggKLVJokTDcnhpwXI8AIMAKMACPACDACjAAjkCoIpJTA1ZKg0Jktcrjg+U2oR05bsGrsP1qSn5ChiikTz1m6QpGBe1RVPU/gxmf7rqqWZIzzZgQYAUaAEWAEGAFGgBFgBBiBhBHwWqUw4YxTJSKp7JHqHnaP/odTU1fNWTnq/JYWtiKxmffO6H+2P2frhbhs+kpLKP8Jqhke8tUWCRE/MwKMACPACDACjAAjwAgwAimLwCE9cyf1QUVR95hWzSxLM/JmF49+HgJYC+rtObeTwsJCa27x6N9ZhplvmjX34zzU7iDvzvHZlxFgBBgBRoARYAQYAUaAEWAEUgOBQ1KlEHdb4TSUbVnxFVOIGfOLC/6VGtURn4t5JQXbEeOuyXlLV5iaUQjT7ReTSX4yn8+OEWAEGAFGgBFgBBiBSAT69++frhjGSYolYJSMToKb34u0tH+vX79+T2Q8fmYEGopATk7OAMU0++PIi6YYSrWpK2tLS0vLG0rnUIl/SAlcdLeUhrNalmWukcKcWXZ48R9WrFiRFGMQt+Qt6KwonZWHSq7d5XVjmlMy+rNCpfDSffk9fmEJfSrUDI81ZcvdWeZ1+ZgeI8AIMAKMACPACDQNgZy+fU+BsPUobC+fjCPgpNIDiUs1lYDx5VFZWbd/VVHxl6blwKlbEwL+Pv5zdF1ZSFceRTsyiC2knPZVeflL0WHR74MHD+5QtbdyLlb7L8O8ugvphUmYQdCk8l1uv35PYyNjWllZWaPubY3Oqy29HyICF53Tokt8zV0wOrFEaxeYPeu1cTuTVJFiyrCii9Gp3asIw5o0dOn0uatGvUxN2cv8IHBZymrlxdvPWvS2laZMBPHxuubrDMuGyMbTrLxkm2kxAimJwMknn+zbsWNHe6gUp0uYS8WKXRp+q33VPtMX2Fm1Ztu2fSnJODPFCDACjIADAtnZ2T2EZf0ec48c9GWRMTTcNzPYEtqzA/v0OWft5s1fRAbyc9tFAONbJ/wNdpojwh+bEUbXBEovIGzdq2pqgWXBugDaVrh1QWY7AgboJsOTrlGamQCtQypKmxe4NAhauJhZwqz6H01V3rNgZcG/k1XDE4YsP0nzyelofLaqH8lYqiJemjxs2SuKubSQdqa8znvW+7bgePfEYUteMEw5XRXiF0JoKqsZJob0wL59e0lNOyyx2LGxfIbx3ZrNm7+PDan10XP75Po1HZvtTXRWILCvU8+e337yySe406xprl+/fkemo/ONpGLp+pbmUDMJCTe5ZKom7IRp7lm7adOW8Htz/Ob06XOUUH35Uihn79q+I1eTsi8mIp3x/QphWhh+hGX4ampMX/tvc/zt10ML+T844rlSz8j459q1a2lAYccIMAKHIAJQpeqkmWYvTFLDc826KFhWzbqKio11PZv2NrBfv2yJBaFoKnSPDPWl+MWmwsFdBc1SLlKEGi1s2clpkgzeOxua71fwmGx78j9tHgHUuWULSHUF8NpyU3jti8sD5g50J+sVJGxFO/oYpIQQpijXYhdswZo1a3ihMgKkJk8CI2il1CMmSwoJW9jR+kyR1v1zVxWsSBaDE/OKuqmq+A0ErJtwPqyTYQVwaRV2mkJdMQxcXGyq5pDJ+UWLdTVj/gPFv97hNS/zisf8FzQvn5K/5FJTWHcjz5NI6Dq49uB1jm2DnqnqD6Ikv4xaAUyocOiclGpdn4jIC9wS+P3+boo03zWl0qSLo236um/77h07NuT2y34fa1G/XV9e/qlbvvX561LcD5Hi1+FyU1msgPEk0l1fX9qmhu/cseN6XRELTewkES3KW1G13+Lxl02lnUj6nKysYdjCuhFTpWHoJjraTOCBHH0vwafgGz2Dv8PxezRWTy7COHWHUVW9pn+W/0VNmsubW0gkrtgxAoxAyyKgWtZJWE59G7PX4H0yUeygz9iZm5t74oYNGzZFBTXq9WgskNUo4gN0TzHjCDGAvnQHetPj8bg1nAHOqfekq2TiOcQ5Ml44hzEC0QhA++MwqIu1x8AYHVT7jpDDzV27aHGABa5aVBSlTQpcJGzhvwMBacwyTd8jyThHFcSwUJ2S1+tKS1XuhnA3iO7IMixab6rrSAAjPVdN9d1pyJqfTR66bGbZqrdeXKF4f35s9uoxL902vKjYsKpvFULHxclKexa66tZH5Buw0WF4JKbnCAsi4bh2hKgOxhZSLMtxwA2nC/3SqBeTR1ScRF5x6Fl0BxunQVYZD13p5dhhm/Hl1183RoAnfmp5ovLi5f+O8vuXflVW9vdEmGlMHExCjlAM8zakrTMTwNpELS+NoZtIGqxKZ2Hnahb6hpGIr9vfhctKXyS9mLZAKhlCmWFIdXSO3z+vXfv2C7GSF/vhRxLh55RGAIYFustA4Fh803WWbVH3qqLrmzBxXp/SBWDmmhWB9MrKj6syM8vRl+SG1lXr5i/Uw6VhDIHn83UDGvdWJeWZmqoeGd0XETV7HBLKR+VlZd80groj+42g0+QkpG1iqOpAp28QZ4JKafuuyZkwgSYjgPqh7dH62k194U3mozUSqDPpaY0FcOKZjGNYirVlXvHoe5IlbE0eWvSDycN6vQIrHM9hwj6IhCraSnVzFGYLXoo4GhPmF7KHDX+FaLjFb4r/gysLdnewBt2LznkDWTFk544ABswt0rI2on7W1/4p8iuk2BaZCj3MZkzQv6qNQ/EtqxRSQjx1wjCJ6M4n+j0cL+4vDazkQoNuO7TzmwJ62svZ0NWPmzDBQNDPsKQyDdGT1mhEwByPfPzNvQiQk5VzlmrKYqjcXklCttPEJUGYbPyD6UVvqAzPr9pX+ScS5hJNz/FSDwERCAzB91QM+XtV5B/8VqHj/k3qccwctSQCwTOd6uvxVvnB3/le8agJcV48WuhTyfhFnXEFfvUaBEskTrx8vQwzNO0i+t4ivz96Jj/sDFztZV5Mq0kIUDur09YcqEm02friOCRr215tcocrXGWFeYV6YUmhpzbTJ527+AjF1LBCLwpg8bA9CVENcRZ2wchB5e9C7IjlTRm2vEir2T/rgfdurjPBbwhNp7j70jbBFKxTCPtFImAIeZeu6zN0DfZ1IpxZXX0D6ng+TawxKAFK+av09PRPIqLAGqop4JewJR6igwOFb2ExYLaqaYnsjNnZIZU0LaujImFpSsqR2JA7ivgK8XaWasmn/H7/zyL19yP5TPQ5KEQoI3L69TtvY3n5XxNNl2i8/n3758KQzPhQPokma3I8YHOaKq2XUZFdLeDmpQvVwQXYOXsDgu+VMIn7uZf0mVazIkArGvRXx6HFJG0Bok5G/NKqEMBa5quYdo4H07FthsYNKYYM7jP48DWb1ySyKOda9qysrC7IIt+t34T/bswq3oomgF2hT+qOanVj2ExL8c+6vi33hu+MRkhyTt+bk18wNv/brAh0qKzcUtmuXTkWq49zapM0z8Fi9H/X9OixV9m8uVl5S/XM2rTA5SX4JLxVqr2uEqZ6J6ywHGXKgL1j1dg8QmqG7TVVm2D62l04IX/J/fv2iN8u/aSgYRJcYxngdDYCISElRmiCat2ByKk59Jb3NdVQAg0mOPS8aWN5RXEj4X+pd+/e8zO0tAkY6G8HDTU04T8PAysEROWxRtIlAxBkMjgDnaUG2ndBxaoYBjSqG0nPMZkUxiTQ7wpJkcIJc1LDO4xekuWysfsHgfRxEracBgcv8g3VwdHI54/A7WLgtsYLukwjZRCI7ApShilmpGURsHaJvyuHWeXYNfc79i1C6X1A23cauGzS4lWaqh6PLtPvVNrg5Fb+ray8LOasWGZmZgmsyf0e1uQuj+YPk2Ws/Znvw2DUc050U9CPv8EUqZQvvv22Eqr0D2A+8zTaX+iqATBHExw4tNW9WGyYqXhg3CtIse38y6sGCdTlpPyiUyu13q9CPe9JRD+KzmlFd2AJkImJQmqGARNHYYUYCLP1T3furL46ZejyH8VEZI9mRwC9e6j7CGaN+vbkWwGdhHe2nAr9Nc5rbSgtvQtqFvfSYFvrhLwZk/0GCy9EAzz9HftlT4SeqT2eLmvMy2tpe/CQm5V1MrL6FX03dj6KeAJkP6TnZDocbich7xjKN54jPmr/ELH2OeQfLy2FEX0I5bkyYF5QX1wOZwQYgdaPwMadG3dDaeodt5KgD1Ex8TzXLTxRf5zX/QnRco8vXkNYjPognSvNOND+BswzbkUHVYI+ai2eN+D3I1OxZlQZxiUbN27c7U6XQxgBZwQ2lpX91rLEBRjNf4cYn2P+UIZR8F/4fQaN/sfrN5W96Zzy0PblHa449T/lx4/2ssyMyTCpMAq7Wg1WH4xDuk4QGdsgBzXDETBgf+bkoUuXGYo5b8GqsV/XicgvjEAIAUOxHoDZ3/MxpP8wJEwcpQYCZyG44aupkHlwqGmeKa3LIGl0Aw1IH/I2nEt6xaMBGfTUO0G7PQZ+Ek6gAiPnkqXCZFYozNdmoyjXh/BxzIoEK4TvxN9qPL4PsawU3/tWIJAO9cMjsSYyCP60Sn064nZyo0V0LNNaYqrKo44ZsWeqIxBfIk917pm/lkFAKq8j41+7ZY5jLMMHd+/eobH3+MG0dlrVvn15zlp29kLPfiicr3bLf802mOXepjyE8If8fn/njIChNdLIklsWnvljGOJv0DM0k09oY8XGlchlZZ8+fdrhaEVHA1e7NPVYQ/K5btkcWOBywH/0yUW+zp3Uq2B54y5d1XLJvLoBFcJku6CaoegA0/K3YmXsYgheM/9pbXmuxONzaMkuB9NPPgLUseVk+V/AIPVDys2e8Es5DI8NFrggDfnWVZRv7J/lXwhC00moAL1jcEiN1BTnEf2mOFhTzAc9mFQP7m5BwXt5eXl5KczbR17F1ZQsHNPqinop5KAulK+TI8wg/r0ppDVhfUXFf53ihP0gfA4AHqOA1VgSHCNp2nSkMm9DRdkUxLfCafi39SAgVanzdK/11FeqcIqLZ94zpPYd+DkimqdgHyEGGBkdB8EG08fR4Ym879+162jVl3ZCZH8TThfsd+QXfXNzv9ywKUajMByt9hdjxq7alxR8wAKXDkMLKcgZsxQPgc2bNx9AOP2xqweBONvU9aRsg8EjR47UJucvOqdTJ/EmdvCh8iRySQjCpKzZSksda9AQh8hRVe3JH6pHvjVx6JIhhUoh11Wz1ULryAhmgFajvdSqkmCmf3yTOE/TF2LQKwsN5CAlJmBVtGdTaNIlx6AzDTR8Nl1Lfq2a6a73ljUlr6i0tGA6NMqv9jVUxo/0fekj6xO2KBF2+tZtKC+fDPuG56I3+DelJ0e/uOZxwYbyUha2bERa5z/SVP2tk3PmuiURCN7DJ98P9wfRvMDfh3sxfxLtn+i78Pny0dMEz8k4JMKS0aslJSVtwjwWJjj9HIrIXoxAm0GAd7giqjJrx7AzcRDjDewwZQSFnojAZn60rRliZgc1w3zoKp22d2jP85RVyrvNzAZnl8II+Hy+7WZ1ACtLsgOxid2XXk1hF8YetuEwLF0EvdimJ0QvGIIgk9h3NJburh07sMskhtBCgj0pEXLBus3rkq4qix0pXM4oB5AKo6OzNRvV+9duX0sGQxJ2GzaUf5jTK+cnik/+EWe2TpGWvD8r2z8dOu1J29ka1Lt31xqR3ksRgXSpY8/dsgxDiO+xYl0BxpOWbwgUFXen9VZNsyuscuoosw91WYNJYJWSlvYdtZmEwWtCxB49erTvmJbWE/0zqXXa0i7aE5Yb9D0ZnTK+wXmVRl+w2atXr0yo0F5EX5CjE6JNTGgdy9ZCnt27D+7Qqd3eLCzwZMJiK3YXZU2oTZc1lCW6Q82qsnoqaUqGZVkq1KNr8I1822yXkqvqK1iTvdSNb3yg+Xl5efc2SjCS8kJ0nI6kQ9/hG46BrcwTammHo5wj3NhGWdv0N0jnr9Wamm5WUG0dsmfQSUuvEZbY1fnIzt98wkYowrAk+7d2zEN/gk1XkebVmMcCV0TV4QBsF+xstbiwFcGSvdsFAbCdVI2ukf78zAigM4CVP7kHSNgClxeI+Pbtez7QvsMYWN6y1Vgw1hdAeHmSdngaSp/OLlRLCGuQBEnYktL6b0DKJxpKpzHxfYFAe1PVe7qIW5gfWTukpv67MbQ3btlYAUyus0x5Lna25q0vL02ITP9+/U4CP247hlVYzf4w0jJkf78/D7LFdZhpnK4q0i8VTRe4KA2iq6JJsT23n389hIS3TSFfgPD1ZUJMJBgJeZ8GXn+GzIbgoupsTBp7CJUMWMJRXSpKtQwYW8DDWpje/KupylfBQ1mC5BOKRuaw01X1PBT5pyjyYMjOfZCwS3gCavOimbur9u3fBD7+AzXsP1q6eLu+c4d22aTsgvTUMrPQ749E+zwLg6oLXzIHarExdyrB/k2gxqr5IKRSU5s2t0+f/qquD8OhcidhGGZAzZXrKio21iYIPVA6qab5FdXqDss6ncDN/9aXlb0TGQ8Td718Q/npqmo5fvMox06k+VtkmnjPMGZzJjBwM7azG7u6RMupHDbZgQMHdjSqqs5yzUPXv4q8NNoPp0sxSir7fwozM/3RlDKCsIfatN//P4jRv4fw9Tyak6sKnH22qbLyAnB2pWIYPxSa6IsFFh242d+HoWpf43v7F6zCPr6hrOzP8crgynuCAQDnHVw7gcvnYYE1ylGbQhl/WPFVRQ6CGtSHDgJWAamc4tQug/2p/E96hw7/icqyzisZKwIDMeqOFAk0DuBS748i+5w6ifFC53PSdP0KTPpj54oaSMAQR3QbJRokBKvV5iBTk11RRz2kkHtx1cjvEUQaGVp23+wzqA2jTyMauC5E/h8+RlhjdP4GhaIOcvoGqQydunb9wEEYEbA0/CMI9IcTP9EOC0eVX5WWvgd/5wyjEuT0zTlFqGb3KG/7FTzsT2/f/iMyUuIU7uaH6u2J9joC+FyINjzYEiqNVyR41iYRGgRNzdq+a/v2zbl+/yeoh9f2Vu9f9S0sBdZGaoGHbNv6r/UDt6w10/xi3ebNjgur6H/PwXc5EC0hIezd8ojjL6qtwGvolx3zd0uH+jgV9XEpuKod83D2PMgk6gTMNnnMi/2I3Lg5FPzJUmrS2kDjAbR5ko6Dd+OJcsq2gkBkp3Wwp25k6dZu3743t0OHWUj+WyKBwaQLLgG7DY/X03tDXFVm5jVIHxLcwJoQsyvKy3c2hEZj42Lgxjza2SIkgWQporKmpqbRuyKY1JOw1kCBTb1HVcVPnCYV8NuhVlWdAJpfDxjQq5tVnT4LXdGv0c/bfXRsGtkN2JKBk9NwJcBNmIw8uq+q6sGmDsSYpP4AU8S7UVkXAqc0iCQQlCObGHIMunRc+pyNcPqjawnuBg9FuPtnfryJcjhxvF9SQ929Ywesqym3gJcBwMB2Ln1zJ4R3Ar/Hgo8rcB/af1GG+9eXlz/vkgfmd+IxTLhOri2XexntsmO5+SIMvNgBi3ZWFa7TOwa+pZEhlqqergl1iVBjcaOiGIr6f/ipFbhw790FWOC4EfX9I8w+MWknORADvCWpDO9E0sYkIlNV5ZNQN8+t5T8UgdJY0qJ7lX4UmSbeMxYYlwtVHeRC699+TFpRn1VuNKqqqvr7hPpXp3DiR7Gs+xCG9qQo2VnZIzUpH0LxehEOsc0KbVoRZ6PwZ6M9XZuTlXXLxoqK9yltpMNE+sTqyspZiDvCvrHJhjkG696os96o7J/075f9B6X6wLj133yTlN1Y3L1Xjrb/L5R3eDSOxDf821m6OQSPDRK4ApYYgvleZ0eaQUDeqW+Sj7q9H3V8bjQNwh/CyHemYVCf802QXOy/uKOyExYyloKPmLki8Kc6fA6patso2ssg1PEELMaMgAGhLIqDtDSx2gHh7U+0OIEdZayjyKfQhnNsvogZm1ZMHdoMURxgeBWErqtsj9A/dhkUuW3v1q30DW6PDMMzfX0PI49TY8pO34llbkYcP/5qVfLx7OrwLc8CrWExtMA3vrmt+A5ORGI6y1evA0adVUu5GbiOAit9wreOOfdvOFuKRTrUIS3UnQLBtKBDRrtP2/v9c8lSYL2ZJSuCaQ5RNf3FaDwoO/rusWByHR6fdMxeihvQ312Fc7OOwV54+qRvBOgkJHCFxzy01AuRJqljHj6FlHI+XCacUgwxM1iOCtaJj7FILQQMw6CPJSPMFbovT+7NErr+J3SkJdRxUoeKge2KAX2yE57EET+5ublYVRUT6TlEB6aIFVrhbE5nD+XRGVI3j4DOGRkZuFC0+RwG1BrC0+kPXFSZ6emB47CrY1WnrQCD1yMmtKOC8Z24jAjrjAF5avt27X5Lg7lT3ET8YITlN5invIP6+hlokxqFzatbWoTWlgVxjiAeMNl6GwPYSW5p6vPHzmHWru3f/wk1tAh8DAjzQL9uLjIO0hyDGd5zuVn+JwcO7NbROY2sjkwTjzalp5yj44fSVCG/GMbgZzrFD/thsmFP8miXBiq8C3DdyKso7/kgZN8VF46HXzdLTTH8h9OA0Yb2AU2iBcEV8/aD7cDh2SAMsTp/haZicg415XAc8o924TB0PScDl1f69+1bx6w6CadYLHkdk6MR4bjUDp2cHU4BQvmFTM/4na225hTRCz8hUYfuDosTNJlrmFPlBW4JCHSUO26edlqoV9biFFVPCHdsv5F5htp3lTuNg23UrmNFeRf9wCjUTxbRCaejvCLp4jmm3UWF13kN04n+RaQqfE/ODcAhj3B6Slcng3pf3HHEWFIvjmHy2dnZJ2DQfgsLbzMwuvYJ80O/8VxtPERCnfwA7ekFLCQsox3meOmSFVZfH0fh7nlLKLrE7TNq201j4yF/bDzX7zBO3NycY15KCVyWYvwVKhqf+VQImbQswq5FEaA6wBky3BUW+FwV5istygxnHoMAJjsd0TNhdT/oMOw0aAU1nC76l1RMcO3YfZjH2JMldF6ZhmZNRbzEP0rD+g3S+UMdJjo/OTPeSnk0D019r9F16vBdJ5/grROsDp7V1Hy8Sw+FS+ig7VfU+ej88gi3hjiKj0H4IiyHPjMY52MakhZxVazQz8Uk4CEMgx0amnc4L0qHPuMU/Psa6OWH/RP9Papfv6NV04LBIuVCotUYPsLpcNnrNUZVh6dJrTXR/Js7XlVl5WzU2S3g2b7AvLnzb478ULbAQFzPgL6JroCwhfhE8rXrXojDFU1bHrzeQVFosoqJ/DOY4PaEwJEIGTsO0cL3PjRd1x+AB5J771Qp3kaDdVTzssuiKGdgMYR2KRJypJKnWOKMUNo6aVAWEjHXZXToQLuZKeH6Z2VfhLp5Ers23Yln+o9dXQSgSpeHD50WC+yrXBqLkI2v3aaVG4yq6qfQVtLr5sRvCSBgj3m4Vufh5hzzEp9AJVCCpkaZv2r8h2pVzdCANKaB1g4dgleS+semstrG00OPycZefm+YgWk11t68OcXj3mvjhW51xVMNeRJURkjlwHa4mpnOW3jicMdGMZTy/mQP7tS5YwUeq8vnJUJ8QNaAHAhYBTQwBCcH8q84C/JmImm9ilNZWUnqgl9T/o6OeJPKbZgE+R3Dm9+zGupPF4Dfq5wmWYmwE0wnLqrK3H97IvHDcfpn+W+DoDSxvnwJy/BfOG30b6jOj0S//RR2q46KDnd7pwkmdi5oByRGvc0tTTx/CK/E68+q2rWfg3gujSAehaSGVUEgxZkwcVN9mCeVi2YgDuClIcXtqIvDG1rWYHzRFx3cHaRmir20BaBj7wI2lHW7XSri2uzs7LMbmjaR+F+Vl69Dj/IZfR/OThyB8zcJL/BYgcAP0UH1caZFvrK4KYZi3Ok2LASTVYO0GTBWPIKUGSxoOeM3MDt7IL53LBaIIxv6HThTtFVCqY+7FCvitiaJWzz2j0UAY96UlhjzUkrgIlhmvT9u59ziUTOFFTjTVIwXsOpqaQfnlLHIsY+nCASxxs1EMvA7fMxnzV1dMPOhkltdDy97mjkTaxACGNx+EU6ATny/alleCjWwOi+wyxVctUVb0DBYTCU1qHCebr+mUjMZ8btSOPiq0k11Jh4T2uJ3o9lQ/23bttFqs+uOn726iMk9JnOvQ5D8OR0Ob2geXsYHtu2g0g6VvuBZCZq2AcOYv/ryDE4s5S2JqvXRqits/k2LNwkgPuBIDeR/+PsIe3Hr8Y5zz86TS5sHMkZhWY8muPoqlIDxIFSDflAfH5F5hvFxw8SmJZTR/bOzfxIVx5nxqEgJvDZ4/LTbnWV1xE7A7WCiwekT4CllogTxF6dB3P15eEcqXGeRv/EYJhoQZH6+e/v2yYiXF24fkelrn+MRCoaR0DYGj17Vf2SOJog6nmWjSPSpQPMNQnZiDu3jIpTLkU9gIKHdkBIaJzhXVQODDziLJPzhukmkhPgOHMuWSNo6cXAgs857Cr5QH2hY9g5vXzeMwm04kn0nv8hweiZ6+G8yGdyJDkvVd1rrTDZvwMQ1j9CYN92tLoi30KfX4DEPhwMf8/v9tcc8ostZuzoeHdDS77NXj1sLHn45afiSF3EqcRpU235AptJxQLGlWWuT+UNfXlHJfpYV+BRNdebs4oKX22RB20ihgivkSuRlwi8lcp9UQ4q/rrT0c+g4P4dt9/Bu1WnVe/deBhrPudEJTvSDuzR2pyXlC+s2l/7DLX4S/SUOJr8JsxmXuOVBHS54HISe+Q8Zmv45LmJ+C6vKn8I07//S9qZthMl42iVrrOaHW7aO/sikFwLwZ/NEA2kFBJv3IISswcu3lhR98Ez3rA0Hz2Qa3ZGO7YmLmaGORKueV7lHQmYwhw4yOFQvYCnOld4BHHhfDINSz8FAxEZYDqyEyulhaWraMVBsugX0f+6URwjbEdIwrkT4U05xwn7Z2dnDscJztRsP1I4QRoPfX/D0GtJtpLQYCfxQ5aJzLhcjDpmrJ+86Dv4wIKdMxyD4doRKK13SWRkekZGKBB93gRsmqUGnug7h4Ms++Mdm6hAxwgvnu6BSJJRTsKMZ4e34GGbRMbA1eKKIdHYJTdeuw+9Qz6sx1HyO+dA2WArth6nNcISfFq8sAOFwfBWk0mzjQbTQID4Drfexw/8lpUXdk9EUElJ6O7UDm76Nt/wx2kIPtIVvbD8P/1EN5TXLpxSCpON5ZyyfDMGubycY3NkdL9vjcQVCpZDYDYutftCgCXZ5jWmmhDohsO6GTvSMeOUJhdUpDF72wz/xbxALPkhTE5OPEJVk5zDGP4U8OnXqZO3c/n1ZHQAi+Kttz4qAwC4/xvv32KHXUdd+tHv6Pi6Bn2sfjbDOiqpTX1+Iv9bgqsBkbd03hGFUNAkA9Z5b07Bj4ESXFlbRDSQw5sklGPOebeiYh47uXHyhVyDvp5zy1508U8lv7soxr4zLW1icCUtcKMytELy6m5ZBnU4qsdlqeaEOnHa1YLVnmyXMh6Xe7qF5b13tqIveagvZxhiHsDUU9bYcA11wJUXiMmEppyejmAHFmp0mVdpJC+5YCfUOrNj9GZPuPQ75kQW4OzCh6kCfJwbjXdgWI5WuFnFCGq9aUi/EgNTDbRJW6w9rihgQT6BJDlbBDxiZ1dtxCPy/KMan8F+LJeVPYYlqw5YtW2iikEy3H5PxWTi7UrRxw4YYq1e5fXOPlao5A2W6tJb3KG5sf5yDIgMUmNxVRAXXvmakpV2MdnS6Gx20r13SMn8FS3F/CScCPXr8Hn/v0x9UM6YBshnAydFhKnQLBLsX4+CmotHQjijsbcRSgT81pU1oTQVQS33dIZMnUU/nIe0SxO0XTYPesWBwsiaVPKR9A38ywzRGVuq6bY2K6GG3oA+sG36Ix5iJMuWPEf5ZbF/cSXEjHQZjq3TDhh2RfvU92/xASAXumRTXnoSRABFyUfwfDAhHaH2/KhUCBxSfxaUChdHm8LFjPimZ29kAAEAASURBVLNq//7JWEm9B9FI8HVzGSEwdkCAvrPaMp6NNscPQepBNKLHUWdDo3C0aVLrgvzdTbXMU/BY26bdMmyof41PrsUu9RrMU06Mzj/0nm1Z8kTQfSce7f3t2h2HRn9MNA07DUDAN/VhRUXFzng0miOM+EPTPRu41qp50vdCjv6lzzk8T8Njbd2iLzgwoNeAETVpNXrwA8DhPssabAp1pZ046h+iCZ2bhwNCzIsKglV73VwT5/qA6Pgt8R4yWV+Q08+/h+awdepVKLvxcdxTZZqLo9tziNfHYa1zGEalZ4CDbXDGpQzn41u6vz6rlS5pm9Vb6urtpmXNCNd9opmn1aQZZnpgLNr/DGAYbGhRiamtoN29plWlfRIVZL/iioNL4o15SL8LR6kx5m2s7R+ix7yj+mVPRbu+h/oTJ0djHu6NXOFkMTjlBS4q0KKS8fvw88Bv8he95LOsu7AbcyV2Y3QSvNg1HoGgoGWZhjSeV6Vx/+yV9q5i4wlyykQQoI6C/moHoPoSYVUmDZccHwaVwVysDP8a8X+FkS64Ii+Vzfj4r46eyNRHM9FwDOwbMal+DJPW6cEBVhwjA4FRSB8z+NkDQ9DCHdhDES25ZF25t/dDJco3xaN7QCCcPga4SaUxrqszCNJuh1D6omPui0oaYXesplXTTvetw+S+GKsTKzZUVPwdBL3ugKqgSnTt+tLSF92Y3bBpw39wF9Plm0pLF2PyCNPpzt0+8O+sGPI80FnqQkvHwDAqzqCHMdG8qTRC2HKis76i7F7sgp6M9vHTaF5C7eWE9PT0YUj7qlN67IhiAhq8GNspHH57LaFcVVpW/q5LuIJ7lt4AHeykiTcRpyPFs9sffqW0NktLPKWZxr/Jn9yazZtJYKx1WEDQcfWBM5CIhXZQWVZW6smOCPjSQLIPZU48En94/AA2tT7DGcyt+N1FYaYKTXqhlNJza3Z2GS25dENFeYFTOUITxPuwu+wHHK7tmdKigvajMq7C3XckOMc47FqVDezb91e4g+sj5JsV3R4pgd35CnEqHmsnVDGEGulBO6joK99EJiRUxTiqe01apN76TkxgXY/zERdraC5NUlopoU5ILIPDXvRr17Mid4Hlj/H6d7Rl2qHfrlo4aaxA2UBTDkCgCO9QyXVb1m2ndGE3KCenu2nS5oWLU9U9ZaXefIMuOSTb29xYXjYZ7bwSWN1tZ4arQLCTdTnGkuJ4mWPBqzinXw7MyFs0LsTMG6id4L/BBw4c6Inwini0UiEMAgzt8Mbd5XXik1QBSXMDZaXPOMbZbVDKNVgcu2HD9rV7YyJAXb++MU/BmBe5wOhAQ/mqvPS+0Jh3cfQ3Su/g44SOmZlDv3UY81qFwBUu9MNBNcOrJw9b8gJa2HTsdp3GaoZhdBL/rVUflOY/gOOMuatGYyubXbIRsM8xCOV8dBwlWKChiVcijkbddpiZHYFhrS8mtnikDlbZg6c3DZy/KSsr/zIRQo2NI6sPLJIZ7X6N1Tl/sINRb4HlsBfKy8u3hmnS2a7qfZV3YbKhE3NgcbMRPEgdjtIivwcCgfmZehrusxE/ju4c62MohHM4WhrUl47Fy7FSqLj3yv8urkSci8PypOLWZEeDBdSlX9hQUeYqbIUzKSkpMSAkTJQ1xqko13Fu5cLVfWRS21Hgyu3bl1QpXa2gWTiUX1pe8UI4zzi/mCVZs3GqhIQ7x/N9mDleijBHgQtN5Wfgw9HKFtob7rKVy0vLylyFrTBfuHfro9y+/Z5Wde1Gu96ksh58FUEifr68vLS2nYbjR/6apgmL5e4OPDoO8O4pEgrZhZXtmbjs+lnsFm9LKEUrjIQ+b2tAmjPqYx2tfxH6xKsQL7hrH5XAnkwpcgUJ11FBdV7XbtqEy7izn4XnXXUCQi+oS5IS+jmFeeEHNclXIV9MAi23/j2PzvSQJVin/Ohi682lZSPcWhza9remqtb7PTjRTqIfugv5NLQZZq8rL23UWITVHTe8bLZR7nifaBKL5ilpE4sFUyGUGzgRPQkd540by+MLW+HcN2ZnvZK7sfRTjEFuF2Fn4lvzI35FOE1b+s3pAwNM0noCQwLU6Z1LBu9tmBP9CvMhx8Wx/llZAxHHUaPDHn8VuWpDomOekBjzlPPBieOYh/bqOOa1ykY8p3jMG5mZ1rCADFDHtlXXSDskGWOic8W2Vl/CiLAizLA7OLnSrBk2Z/UoFraat0JJcBqCjuPMBP/OQryTsTLTl9ikySTcVqx2PVhlGGOwqtqoAY6IJOo2fPvtdyRchOODnz4+KcjAQ62r3rv/YnB2DvFnT46knBspkNVGbOYHUmULCPlrAPc3qI41KXcqWwh/yAIw3a6oL2Ol60lMoLo3iTASg64Fos8kSieo0imwe+fu8L2f2L//4Yc5xhDaUFSUo6BD8cELTVrjLDkfpNq5ogILN3Id1bujk8oQF/PsqBAxzDENPNGeAqRH7xYe7a9q4nHA+A8IruO1QPXpUEFMiTYYzSfece2C9SsIifPbsrAVag8fbYIQ5IBBHS8ckvsfWs9atzYU+vb+XCeR64tVTN+TWzB6qJ4Ia1pn4EI8o2PHzxH0pVM57L5DqMerpjnIJbmytbw8FxPnY+24UZFsmlJ5B32+44QyKnqzvIZ4enR9edn165phLGqWQiU5E2gFzMDO1ogN11xT7+JaLStYZENf+UHte+wDbp6y7N392KDW7YPx9TChW49jvMp2+i6odGiHNTBMOx596r/cSovxehjiOS7oUJrQ+Ovab0TS7VtensCYF3s9S1I6nUjGkvVc+GrB/nnFBfMCInAWDD08geHZYGuG7mjb2GDB2DQDTxFmc1aNnhtS1XRPxCGeI0ADVFP/wNSRmDQUpmn6x1CZu8eLCX99Bd1bVfUUJgKfE+/U6WFTvyBsGanH8T3aQ8n+ToSRI+nhS3Wf/mR9NJsrnAQ/zTJhKc16kUQCm8cmZm5jgIuJscN0DSzs/dkP1xSSEC52Q2V0U0NoGMLCGTVZRz0unJ74Q1mPUGo69An71flVldPrvEe8oHb3GFKSalBCDsryOKAsHOOHBsi+Ne3b948mBnPSveHXH+0lOsiuI5RtYyAQWBsT6OLxVVnZFzjUMWRjefmidVu2bHeJ1qLe1PawePJGfWorLcqkh5mjuOsTIUfqeGgG5fHiYrJSGi88HIaJZwWeXVWWwFPMWb1w2qb+2qbahbLSjQ6+SRxEkflu4djpORMLQ+3dwtF6PFeFdMsrEX98399Ck+FBxI39iBMhcIjGwWLQh0phYUKT+1qIhCD143iuLdaBBk2OR9Duzw6NJTHlD47nsrC0onRFTGCkR/wxb2/AsjCUJeZK7OME9Y15lTFjXqtSKXSCYsHKcRvhf/2kvMXPWsK6B4LF2agcqOeYTtEPOT+yPIhT42QU4wNTWtPnrx4TV1/4kAOoGQtMHQMOj38MlbTEV7ZC/MGwQHvcdYIJqvgBvI4FrTQM3tl4n4oJ/y8geN1gd+JJKg8dAIX59JnI7w+UBfLvbGn6HXi8vsPuzGvxydkHxamMaGf3lX7vaFQjSdzVT5ZUjRDrClzQ+QeMSriDQ5xip8ILBIz6CbjEsAUbIU7DYf0X/H7/BZg42mdwXKK7eqPPImtbZD0vYQdBchvUp/4HyM90HIyE6IiTSUeC4H8jiYLPDBR5IElk0Y76TtDaqe/dU++uRJ20QmIy4EAQkYC1D/sNA/D4WWQaq8byY9Oxqxv60J4towP2kWnqebbcVLXqSde8wUK+27wZtlxuaBH7E83dUpWdGK3cnNRUNSFaGbq+D6Y1q90Iwd+tycVJ0oAgKd9EBjchBWTEWIfh+Az4PhQbQj7ud3Xhu9zjU5X3nNM1vy/19RjP/l1ecVC1vPm5OHRyxKx2J4xnJLnxphaeOJt7GwaQXzuOb2A12AblU1DFnx2P89CYN8BpiAqNed/79u79Oh6NmLBGjHmtXuAKgzC3ZGxJYd6T5+7VAtdpQROy7cJhh+6vbGfIwHeYdN27d7d8fOknYxIasA5dvJJbcpqOYiD+F/S4G225Lw8HPzf36/dDTGB/gz3wy2l3AJ3O0eh6Xh7QN+fCdZs2/jNZpcDOwSs4u/QO8jsn1AFeCSMSOLMgcYFrqPOT1odaWlr8laZkMVg/Xbkeq2Cwmvdahs93HsoxEhVyJjrhvniuk9qtg68TKfRCcXFf4OnAgQTQ25zi1O+HE1cwj1R/vDoxoGYivwPydTwjX1RFsw+1R/oFMjLaaweq+zqWMdhIDSuzc49+HTt2jUxX33MwaWws219YMTtt2B0E7oqjcQA7jVR2gFpyJ8ex7CbXB20F1w7EPVOWXAaanTpVZUIO0sm38SKivSZES2Zm7hT7Kg+gY6TFg3gkkxJmCvERrGJuRp+SFZ1/6P1UUpMKqgUfZME2WU2q5ge9ap+C/ZP8+5dlZbR7l0JONGxhJoU4b22soO3AUGNr47rx/NL9mNgsmBb9DYUp0jeBxdL3YPXwFvjF3WHJwJgXOHAA32M4dcQvYSqVxox5dofkRhIbQPYxkIicgpdsRnq05ufCkmurwP+iSecuex3X2/9yR7vDacEMk5JDz31fuVXt4utcZCqBVxaUjF9/6CGQqiUWTVJnKaH2DAMBKN1H2N0g4epBdEjYHBHdDdVa6vf78xu7y5IAYjTBn4EJ/puI60M/BWMeylN47mSnRaeFSc7MVN9loHNd4Pcl+oNa2xGwunicip1D9NjHY7UrB/50xqMXMK3V93br9BHPdjD3TL8FA7Ozn1hbWro26Nsc/8p98QQuiHFUljouvaYGgpTsWMcz9ELlREn8QrP+Xmuz2SlihB/aAY1jGVABjPA9+Ei+EElj+MBe6JEumwChxA3b8TuYY2o/4axA3MlBanOfPO6oHXlBHZMrCQM+XpBqFA3qfzFZfBt9yfXOBGQvXBZ8DML+FhmeoWmD8An1ddtxxxkVMtDTMDW0yAyS8Iw5L7flJuCKew27YEKQA2MYfbBbmIV+sosTOVw1Bjke9/c5BbZBv/79+v9AEcYiFM3xnLEtbElZBquf1+DsoKv6cBiaGox5+B6bdczD2BYz5rWZHa4wsPQ7961Rpfi5N9LvUHt+4oPbyCzmvEOt3IdSebFTNg9Clx+Dnm2ZDRO5E3HL63XAYH6ycIDaYgmsLL6MDm9kSAixhS27A8SltLAiRsJYq3EbgnddFYNh+rPdgF69ukmfr7sUoi+EiNNw5mYoAs5AGR0v1w0lo53GTrid9wq8QyhtHocBGNUf16VFh2qWlYlZm2syBNBClePAH02L3hOcBKjRaYGXs0GP2oiJ7WjURucHRiBFEEBfjJ1/xVHgoittIFiRWmEdgQv9zY8wKcTFrLFfFHa/K6FT+UaKFI/ZaAICtJOZrmnnYXP/5xCuTwcp7P7jiIAK3SxXusEQp7bhmqSVBmDRuCfWbp/Et3CEY3kx4uET2adJddS6ijI6UlSvw/eTiUHNFd4kjXkx+cUMgvVyzhEYAUYgZRAQRg3tcH0TZggKhte7WIQLR2nqL82C74cRMOysHHTg4QAuB74PPrGzhYPRWsUTGVyAuff/4T6stzaWld2zobxsmCK1fFJfIMEynoNwdm4eTDvHi9OcYeA2pj5Qhhi/5uQpIq9U4SOCJX5kBJqOgFpT8wFspTuqjgZ3sMz86FzwVQ6J9qN36nOwA/8JruLY4BTOfq0Hgeys7B/jjGEJrll7CdP/X6Juc8B9GgkWify1npI2jlOo2qZDs2IphK3jCQ8nh/PsNKpNXFexcaVTuJNfqox5LHA51Q77MQKtBIH1X3+9GR33WzQohzqoow+0a3diMtmHNbjP0OU9TXmSs/NWlN9t3Ji882PJLE8CtM0NFRs+0NPTL0RfvzJc7uh0Ifxztqzf0iM67FB/R3uJL6ke6gBx+dsUArRogwZPFzDHlMueWCvKSYN69649I0lnuvCNnBy7PBJMjt2vt+j+vRhi7NFqEIA2yl248A9qoeJHdhsICVmtpgDNwCjU+2nR9qLQWBqTY3CuIeZtqCh1vF8yJkELejiNeSklcE3MKzrr1vylg1sQI87aAYEpwxcePWn44jyHIPZKAQTwEX8YZgMdEpZD1ZPD78n6xcH/uViT+86eUJBpctN4IFl5pQrdtWvp9nprOgaDaleepOwWUAK1EynXeM0U4NTpg//YWWBdfpBMoTJ69ReALXSYjo9x9fERk4A9GIHWggD6Rzpz5eLEkQFdP6E2MBDIxap+bnD3q9bXfsDHWC0t8VZdX35rTQjA2t54jMz3ou91VUunsbS+v9ZU5obympudPRrC6K3AyDEpYYOwl4VPu8sxQhzPlhjzVIcxL2VUXwgrqLCenyZ8BZOHLp0lqrWi2R9cjwkOu5ZCYFzewg7tNL1AVXy3W7LmGfBR0lK8cL7uCOAGhG/sUzeIYs9gyeR3kh0OhpfBFH0R7oyZCoMRyzZu3vxVkrNMCfLVpvmvdFVfBwt7xzkODELoqmriHHTzONS38+h0MPuqg4/BJ2mae9HZ4hhXrAsNahsxtI2MDW2cDw6Dq7pl1aq9RlDZGfHs8Jgyqo8OvLEXIxAfAahYF0tLUhuPOQ+J74ysc9L5nVVEBQtYQ7Bwpkd/zaHv8b/tDsv8nOKxa30IwDDGMVD1v48OHjm5UB2jn7avi/gIscrQNr5D/DoLe4h3PprNRMdxx4lwK/Lz+/3nCEuZh7I7bgIRRvg2/mMoclz5+vV1cEmkmDrGPNnMYx7OSseMeSklcKE91qia2lVT9DlmhnnZ5PxlhXNWj/prIoByHG8RmJy/5AIyyakJ/VQVF4dgha3G2xyYmlcISFXuiRqoHS37eJVfLR1df8wyrdNUy3i01q+NP2zevLkKpvG3xSsmBgfnkTVeokaHiQ7xkoKRmE4//bDDdlbtq9yDdBluadM7dMAdrmuS+s1joWArXRMYxzVPO47DQCsM4l3DFKm00tLSCvQVpFZ4gcskOQ+s3o8/iVnmme5si9eS/S26592mQ5rlW9GFNg7yQienNoA9LQzdci3OROMezYr346Gdm5XVOyh3xIvV+sL69+2fK6XxFKDoEDWPsQsTFLYkrgiRV+Puya2NKWFozCNrhi065jlKk40pkFdpLFwwZFgBXDGk/hA3tLw6aeiSZ6FqOMgr+vHoQE9asy8KjhepBcKIJ0yc4k9NPOKLsJ40bOnTqIBXVVU7leqC6oRda0KgeSb8toW/qgO/XLd589epjk5u377H9s/KarK68siRtAInkiAICCyIqw0V1GDtTHSPhz1mFFscwvdh4C6zB7LowCAHHap37ToiOsjzd2FtxiTEsXMhNjARSRnVTM/LniyCuOzaTxdbJ+4a2uYSp8wxSUPwz44w2KiL47Kzs4/AvYCZ2Ak7ySUezm1ZrzuGsWejECDBB4JO5oABAzo3gECjvpOcnJxOuLD4PLd80ED2G1Jeu7EivrBF6dFfN5vmhBu/XvsPHDiwo1SNpSib30kgDeVXZapi7Pry8n81If99UKQvb+kxL+UErjCgpoV+BpcS6Gr6Vbhh/l0IAXeQils4PBm/mmX+z7QCn+uqD4275aEhHogXYPGFqZj/S0aZwzQJ2yn5S+/QVO1dXfiuVqRQ7ToIR+DfVEYgI7IjwSS7UYNDYwq4/ptv4u72NIam12kwAR0EFbq/oEn/GROcgU2h//nnvUg9qJ/b4AD/SsvQ6lhwTDC/DJy9S0swrh0N5eqGwRx39zhXN/z3ohf7JpomrZbD3P26aH96pxkiXDdF+HLpIZlOb9euFPS/c19mlllkQrkhPOCsxEm5fXL7NyRNK4zrDBlVnZSZMIGcEGYkmEHabYhw1gqhalmWdU2UoFpijkbQd4Y+uwf+jk1PTz8KL9nR3zH16bB0uIHUmFu2FK0zd+Du/J0Ei4PrCGsSnU+iJpTMxqCAOvWDjV7RdUu0qH7x/z+wa/NRgrTpC29LThgHqh8BDkOd8KGChr6BGdgtXtGUgtOYB+uGa51oNOeY1/JShRMCIT8CwrCg1SKU7rrQ72+v+d6bMqzokjhJmhQ0e/W4tYa1P6/GChTiA9uh2/OfeN9sk7KLk1jYghYGz50Bq2bqvppA3kMrxydN4JoITDOBrarp9+Nwe3fCPNQI4/DIQamCAD5iEgJsF+yRY3WHw+GH2i9WGAdoUvkjOu5++MtRLfnHnL59T2ksDla1bwQGyT5O6WlwwP/fGJrRCCFUdglYVi8num5+miV+igszuzmFEy9wW9P279/kFK4q6jtO/uSHtJrUlQvcwuP5+3GHSm4WHX6OO9mxScAIyVbE+opAi3Y0AAPNo3w+34DosDjvGrQUHha69WH/ftlzBwzIyokTt1UGZWZmmgDGyQBJqM8WvdJFes9ECod67gGMu7lNdhKhwXHiI3B8ael66ON/EfoeYyNb1plCih/QNxcdSF8FPo0SqDEfiA7j93oRwBRGuqpEY5zsjPM0/nqpIAIsSHbEN+LY59eXXpOyC+rWfQFEOmogOJKVUk2pI0COTDbAs3+WfwrOQl/j1v/QN4Od36dxNcvsBpB1jYrFpSSOef4CZBw7kEVxk9ICV5jXg2qG2olYpf7j5GHLfndb/mNNVg8K04/8fajk1l3zVxXMwI7SEEsaz6tYZNKasZ0H8xJoZ8bvDFlz9rxVY+5d/P64eg6XR5Yg8ecpQ5YdPXnosuc1Rf2jJrQTWX0wcexSKSY6kkGR/FhS/Tzy/VB9HpCVlSMsawU67mOoU6c/PA/GvaN/zfX7fw1c6u0gI7Hr37t/H1CYFukX/YwJ/38rKioa/L2CLxIWroim5/ZOZqTB/U1u4ba/VP61Zts2x902SxPvAI+YlXdKZw+AUrl6EKQnm06C/wwePDgNpjgeUjVRlJPlvzmBZBKrjm+4xQMmacKSVE8JOdxxcymkjjPAf3dgM9Gq0f6GQX0WiuFPiEAriPTFF1/sRwXhPIOzA2aZGDuGO4fW9QX2OISP3Ux2SUMAy/Im1H5fdcsAyt/5mFVe5BSOXWj6Fp1VEp0SsF8kAhaEqm8jPSKfqb/Fu6uqX2RcpdrMw8CRY/eLdQKa/oIqTliIQmvwo0xtwuX06/dzKOff44Yp6gdtX3nfVJVbUGBMcZruVF33fMyje8OCY566JJExr1UIXGGoScUNkgjGc/1yS037YNLQoum35D3ZED3cMKl6f+cVj/nv7OJRV0E941LLMj8l1T4yHpEsR7Rt9UFpfIaO9pLZxaOvXLD6xjXJyO+WvAWdJw0rmmrp8kMIeP+H/Fh9MBlANw9NH1ZIR4SzQge2B0qon4bfD9Xf7OzsfqZQV2AFv84FitTBQ8rqjonOU7gX5VUIZcPylPovKoZFxjOkbryCgWCA2yBBWKtSvNIYzG2+pHI9BqIL60sP+SFDGsajGJOOjccLeF3pRgt3pmHlXVlFA5uTg39PKHU/kqhKHwmAVZWVy7BieTn6TPSVyqz+fv/FTrQj/UxV/QvKAAtdsY4mnKoQN+RkZZ0VG1rXh4RrmOGdA77tnQLCBX/dQeA2eEDwyr6qboqYN2cgEA0BqTTPoVWDTTHcR3oIOR71Efds31H9+h2Nb+P2yGT8nBwEcPfSm2iNMZbVQt/uqWhfI0LPdRhAoyuD9cIP63geoi/4rhs+6RaiwvWjBo7oIq7JzY2vfozLpo+EUaqZyD8pkz+cK+oHVuqlTf0w+tTz41V/ozCKIugFjSiSMa/ZfbKPx3x3EfB3VKEHD1Q3600hfwVjyLtiCDTSA2fON3g95mEcXlo75qnKrFy/P64GXsLSdSPLmIRkQTVDtP9OuqoXqqrx8wnDltw3v7jgRQyNng+Mc1ePeWXKmY+vstqZY9ApTtG1tG6mGUC9eZMVBj1F0zBFNgPbDcucrdboS+YmzRy+FDC5/wtgNxWGOI7DLl5QZTMJtcQkmwcBGIK4GDsjp1APZXdUlvxoXUVFWfPknpq5QI3wKKwgvOG2Khme3KBfv9BU1PM3Z5V93F/xr0b/8YklRaku9a2KWpUekLK3rmmDIT/QSuh5wDc9nDa65CHsN4k0vdEr0uhR2mMg+i0EwTmWqiyF3nrMCi0EyRNUS7mPeHflBcyhOWzXzEC8w/YSeS2D9sBPET1mXkK0UaaLYAL/T8BzMgS0f0eXOfQuIFidIwPGA4h/Wi1PQmSgi1w+oE/21nWbS//hklZBGf8NS26vQ7D6GQlYDq4j+qrfIo8b1peVvekQrhzVx3+qKcRyYNKvNv9QxFA5emDS5KiGR9G0Gs20dKMGIDgeSkdf354mXpF5Z+KlWtP2A5fdkf7N8YzZGZmOvtopr1B5ByqG8QyE0PHoCzZGxiMDDZl0gbclZ6G8MXhFxuVnbxDARfH/wYLNvzHunhLdPpGDo7oZ9SfYgVwFdSrPJpzelCY5VDTDMC1NN0HdXjCJzgWmdTo5fYNWRsa+4P2I0SkgxQjxkXOXEtzFB8Y9FMN8DgLA6NLNpV9EUqCdC1zCOxS1gGMWdRftIuPV94x+aSfU2EklNKaeqS2Ax5P6Z2cPX19a+lYcWmqGjuMeijjRof3UJsNCVzfCiPomdf/+vW7aDbUJHB5Av0sYZ6IT8Pkq169fv8chaqO8/FA5R7t+FmVxNcoEHvZjRJqq63plmJeGZBanb8Zms7oUuzZxx7w0VX8ZY96kBo95ishA2WjM2+I25rVCgSsIvcQXaOAPOzTHwYbf76BmeIViLp0xp2T0Zw2pnETihu4DmzNh2NJXFMu4Cx/gL6GCh1Eaa8BNcKQ+iHKgq6n5HYpy37yS0V82gVzcpBPyl5ygiWXTYer9Z7RYQ+qD7Fo3AmR5Dx3IPKwH2ebt7M5YyCKUquGrga0bijrc+0zTwEGXGCGiTiS8hAYvHGcSP8Lrj+gdC6lISx8HxBGh+OCj0domhYXiR5OpfYd+3EMb1q9vxPktmwTVmYo8OmIicA8eRuVm+T/ErGsDRglaHW+HEp0ACzpn49xWh3i80GQNE+q/1Gc9snd21pubSsteR3xHs9WUB0AYgTxPx8rd6xhM3gVAG8BLNYSj9rhh+2hYwD8XeeWDJ1hMPCgw2WmF6Gbq8lkMshdjpdKtb0NUa74U2k9AN0bgsekoog9Iv4JzWX9B034DeZchLsZkFWaS5Y+R6yUocvvI/CmcHGGBivv8QLeaV5Uy2yvmn/Sa9F3VulGByEdH07Dzl/JXuhCXRyYMgK4wLEwclDGR/s3xjHvN3sN3vx950dwixtk8C3Eednjfx45pMRAoRRuCoS+lByKfgfo6wW4jBwtb77cSkwl7NAQBmijQYsEpDUmEBt7oxZsG5ZMCkat9vu80S36DL7Z39GJ2qJnerCtibCSr9A1aB6pnw29GpH/42axU/q62k9+icfc42DOFQ2uFrlNVTZagf3sb/cQ6fCcgK7thweJU8PIj9Anhft/unw+mTuwJvJcj728gWGUf/NzqpE2D//L+ff03pR9WWbxmzUEVcLLgZ+2vOQk7PZPQ/0Ht1O5g6Vxaeh0KoReMWMsxVJmEi5mROQ3e86LjCcXYCSUxE5jECLZB/sQDEApmUjoDA59VY1/54tlOOM605cAg2/HRdRzFJy3WFWERT0edRwXV/2qg/JjgLkXMW6NjZ2VnvVXfmKeq4lxpWu+jTbyBMe+dBo55XeONea1W4AoDGRR6yMiEfomlm+dgB2ehZcmH55UUbA/H8ep3fvHodaD1a9wP9ntLyGma6jtV4jKZhppNx4eB6ZwG5W7zY8Uyp2MX7a9e8RhNZ/ywx7pmKvrNmDfepClaFwNCoimbJihG58HviSNAY0Tisd1jYsV/BLrfhZg4ZVFHaU+gLPlmRscOr7mnOjRC1paXlw7Izv4Z+oGXgEuOy0BXC0bdcEF9Ym2/WDesNkmdB8Ie7t0u3QJLlPI6QYm/COVrDDKbQet0uz4VpS86CUzyMbGPGHNo4lAfT2hge6Wuzq8v85KSEiOnT87timadjrhdnOKH8vr/9s4FPory3P9z2U0CQUSpWrVW8Sg9x/Ovn9N6tMdqNSRcjlrac2qhVq2CQMKlKiEBFREW8AYJgYrcEi+n3lpFrfZotUhIvFWrpT2tV5RbEFAUUZBLkp153//v2WTCEnaTze7sJpDfq2FmZ955L9935p33med5n7c3SvEzFORnXt743VwuFA7/e8ej05BjqE//gGmciePxBC4DLpFfhWBQhX5xfMx0mqwJspHPpZBJL8UQKJJNE/fmAVFkLBKde9M+0sNXcz1z6+qtIqDEDO989s5uCLdvgvO/xIyAxaxxvOWeiIoTc+ATdT4tu2s3bXofc9Nexf0xKBYvybT5+PFgGjGljL6HmsZtkaK9hn9lUv9BgmbkLP/xjQCWfFiB/ugmJIgxcfsB7bctoNw32495eMSApvtTaLr/jvv0xObHu3XF5GPMQR9kcO/GNEuTizd8umGbDJrRQV0ddc8fkG7zc3IUerPh0qE1PSdeh9sspmn9NqxI9kBowniv+dgBqcT/ISZxp50s1hNGv1ixJD3kehI+mT5Vvyf3H6ed3HMTzEjx7c60nPrGk/EJ7gzk23zP6DcRfR3q/PM45Wjpj+JxgSZxjRsMfoI8IdjGDMJzP1Mzaj9m9I4dRLnwvczEABRumeIHqW/v+KcTOGPGFkqb3nnfwDsvkMg7T+6J4R5rMNt/fyT5zmur0gnUqqtEETPDMGBYR0EImgZF6E9LB1RCkCl8LB0llMWYSweXvei6RxbhYSiFN8PjEzEzlAYT80GlnK1hHa7Y5zrLFtdOiDmpPfVya3PSwKqfwEPbLNsMniFClhPfqib17JhCQgTQYfaV9aBUIJDQi9dLFB0Vvku5uRhMy6Dwv/ESEW952ZEOGzv4YvQZZLlJXCCzidgHGzb8HZyHasN+AOzO8jpNj6dfW6Qto9v3tWuPWt3GoL7d/LQRhjZpAe6PsxA3K/IyxI+OBikPBnbl6zduiGcCeECS6zevfwuu1Evxfq9CPeLek7H4xToWnXgTG1WxdmPd49HHY+zr+nB4Ro9g1ndwTUTgjBEHxTuQR+vfra9pbptKrN/yVOtzB/027V9DLXg5jif8Tow8dgcllJEDLlqqAl9fC5Bb3DaTkrTFCBrCxdpQEzJS4m6eyZ6Ghr/g/l6De7Jd4VbuW2h9X13z0UdbuxE2KF7V/TAnuLiDdT6wU2h1MZ6RuxBBtNM5rU4d8LOt5wTv2irLMC/ABdB6dTy4rrnMDhjy4WO/IBOVjKftwfjwTAxiz4w80M0yn3R5UrbIPaHMhzBppg66qZ9HXR5vNyaXD7Zu3Q4hFJYCZhESjndt1HH/p+lEJZ7G3fjlXr9581unn3JKCaYPVIHuQZo+r1Cx7olYx7z4sm1656j58d55Cb9cohPtqvtNZoaN0HZl/TNcm899bNhjTwxfPlzsgn0P5Ssm70GiFZPzlz0NUQZmhsZVcOYR18xQzAeh0XKhYXrIdRtvnV87Ya3vhYpKsHBoZQ9rjzkLjjjOgGv5qDPcjSYA2/qbMWbBHB35Et4S5FY6EeZckQPykMFmbwm+wIktc3NXKKdgbqaNhWs3bUhIsMenHbn6YqSWb6IXjiSe6D8QuOB2KRsPdKTT9h78pgdcf45Oe8S6TZveTTS57hAPmoB3+/XrdwlMVSrASQbTbQ5AO8pE2KNR3oKI8/N1mzem+DyjXW27xmx0FkNzMdFr346UCR9/oD7VT2P+l5jZJBwgkNyHeWN98cLHfAXjANPAhBOJihjhIp8AtHH7urq66TiF7wRth60YCMBu/mqYLz6K67+TTP2jc4BGQdrmiey9e6bgeLsji3V162rwJboKeY9LNe/ocqRrfx3ms0Er9xDMX66K9CsdyCjSPlqtzOnVa3n97j0lHbiUUZMkgPt7b8RsremDWfupWNbT7Uc6vGJs2LTpKTB6DB/OoVVot8tIqPLo2/6KNO+CwDQlqecE/XvOEbn3NezePaidbxtxy4P5YW9gnLEM9bq2rb4l3rmm51W/l6Och79Qqr6HFfwr0vpuvPhxC9J8AgOdBQFtXIp0u+2SEJhXeX/zO+8OP995+Nh5x/pNdbcAdcwbuM2vY+01XFc9r5rGzs67n73bsUFtEhUqW1W0rnzVmGtglzoYkxZfFcFKzAW9IPvQumHw4b6CwdCg8uoxI9ItbEnevRt6SN2dZhZecbhtRQAd17cxaDkfnc+FUX95GLueHh0V52StFBzfH0+u06Y6OTpeAvtiFnEEJC8sutiBPy3XQPOBUaz8oRyRP+y+ipfTkPV1dWkzS02gTl02CkxVtq2t23gFnr3LMex+2+OWSoElDQQX6d0Lt7WDIdj54E0Uk2xc16pXzlS0sLiyT7iIElPi4z54Ai/TETBjqU/44uaI6+o2lMGO5UoksrUjeUfnIxr8yLVarwOdy5AmPmZgL8Gwfv36D7MMLc5AnpJ0kilH03WQsJS6z97z1cgOTBzX9a5Tgvrfn2zeCVbTr2g66IYnQah8qSOcJC74rsGX1sLIYqDJjiL9qkV3Skfrp8G+TeFfnmVE+RyLoNd0JzTNdXW0ZRVC65r08x+L2b7GxpnoGx/v6HMifSGmOo3Ec7Ibb9z9g7pYmbRzbNfevVPRrr/rSBkkyUh8mJqjQ/vFO5s37xDBHY44JuAdsU0+sCUTZD6tMswRuBG3SfryX3cMeD+VN7/ztnS0XTxeEXrSDs3vvPWbNk7FubjvvMNS4PJgZHILoWvVzlwFocu9Dg/DVlk0Wf4g8GyBZut6Ze/8T3hS7I6daCabIZm8Yvc20hFF/cVLGM4NYl/ffAE6WTmfE51WKvuSLEq2Ha/tanxD+UWDGx4Ezdbq5uwS3qBqQa8cuCimqUPCiSUbEfbhXhlQp7SWAd6+fuOY+gd4cU3Ay1d4wSx/fxu3VYXoeLgCL1/9FKzvhqyt2zAaLy9M9PYnZDmOLYuc5u7bNxJlLEOqe728Y+XgncOL81PEn1bvuim50YXW5FHMKb0AmtR7kd+XXvqyjRei44DLRmCdZSONdR8hrSTCe3V1H/ep6ztcK7cQL7H3otOPl1x0HDwXb+NL9hUQsket2b79q3jXxDou7HHdaJg2XYF6vIg4WE9t/z0SnY/s49xBc0okXTzzduu40b9RvpQGb5KHhPe3bPncaKz/KXK8H6XEXPGmsjad3f9vpKT7z63QrjNU5jk2xxCt+QF9nfcbB1vmhOxP7cA9fGTEuC/29c3HE7eiMc2WPilGmrAOa7uvPbBkEWuA2PVKc1/TqhwtP7Vtr8azukm0rzHq13QM5xDegAfrj1ouTGUHFhHx8kKyYpIe/+FGhPbeX/GegWSLvB5eP81A4DIouAqRxuv42xmv/M3H272/REjJ7tULfWrEiUS9l16sMrac0/rP6FN/tG7TuuZ3a2ocP8N6iLn1+36Bj3S3I4+vWvKJUQjvnGxR5lfxUe+H0e94vHNed7CGHvqR5/Dk7Y6O37Kv25wjZayvW/8svhjm4X14D/rtOhQDU8diPMcx5s1Jkdvr4+R8jKrJdbj5DfggipGXn8filLt1meSdZ2mVyjuvDvfJ7ETfee3erK0LyN/xCVT+b5FMzF5Ykn/37/FgYS6ZeFE0Zs9ZOWZT/Kt4pjMJwLDvNlur+5IpAzoPw7GsNW1dGwwGd8DjEeZc6XYHL22l451Dn1RvKfej1u6evfOJbpVr3WmZ6gGJr5W1I9Hr/IynXXOStlVfSRMu1D72M+1YaeFFJS6WF8Pl770YKJ6NRZEL0IQX4AVwEo4fh7/WE3VlNPIF2vkTfOFcD6vOF4yAuwpjobdjpe/XsX9s2ybmylP6n3rqcpRzJPqSPPw+BX898CcB4zYDgp7+ENvng6bxm/c31m3Efsph7UcfrUMio/v161cG9/NDkcdFYNAPx07A3/57WJxRmBHBfzMKA8+w6rlAdvaLH3zwQcrOilYbq8PGJqMK7fQo1sv4T7jlH4oynIk/LDxtHN2qkl/i2EcYjb+F1b+ewPyG6vXr63a2itORnwra4kdwwSMwcewPteM3Yg0q5dnXyt4SK2GMXFZCaIOZ8sFBGg62Jn8/+ExyR9Z+8ol4xbwGa5U9Yhn21bhhZZ7JN/HntZVYUqGc+i3c5w/m5OY+GT3PE7UYhYoc0Tp3qR+Y7tpYV9emPXpOTs5at6Ehdl2FkePI/ZRQALdlllIr4kXuUV+f0Ht09erVzun9+sGxgPKel5Ykm9ot0t9JU2Q0iDBx6kmn/hRWEZE+L1bmkfLZ1vpY55I6pvVN0BhVtL5WKi/vktzc3Db7fjm/76t9F8HXwUED6Laegdb5deQ33JA3IH4V/u7DenH9XaVOgJB60FhV8ldOYqxES4X0SuFs6nHclSMwFeAC/D4Zfz3x54WtSHMNRIFH7D27Hz3gg412b4Cs8DUvordFWuLJdV92To68W9oMzf36zehbH4W3vssh6w6UvhVtEd2nNeKB3QKD6HfQT/wGc1ufEoGxdcJ1dXV/w7GL0Ud9G8+M9M0tQbg4lvFBy4E4O6LpwqkxkTX7wuHTsH/A+0+so/A5ZWPMy237JTxfcZ97eAp+K9Z10M69a7rGENtuW9CPdW2ix6TDA7+E+gpJs3ks5b3zfoi+8mJpF5wSrl4/isPN7zzT2IwPApF3nhUMvoT7VfrghALSjR9uGFD5r3BJ+RfcgDlyY7UVInOUlPPX8lVFZ7UVr61zspBx0M4Khd3GtqK1e07M+HCzrOulPv7nUG3IafeCwzBC6eAHcg2n/k+YhHomNGwp1VAWZA6r8J3zVhXdlExCobyawG7rw1rbss9rz5U+7jXcabpBWercipXjpFNhIIG0EsCikkejVz0aK9GLu/WWPhGL8qospXbBq9Pn6FRl/l5KAXMAn8CXvZ/ICzFG2AKvZOfEmiiPF2Jvx3FOwOSqyAAS5XLtxsYda7ds2RwjHd8PRV7IjY3HYITW8vJRru2Y2aZowT5tHiD5nm90gmced1xuQ07OsRiUHxndRvAQsqtnY+MnzYOZ6Eu65b7cyzmW9XWvreReAa9P/dTEdkuwrPRhRaB1nwqBThnh8Pb2ltLwEwLKkG2HwydgdNanJV2tG42sLOlTEx7Et1zLHd8IpOudd9BXA99KzIRIgARI4BAgAFMy+crb5pfezqxGs7CXssCXbB2aX/6dOgBoFqg2JFuH7nJdV7+Xu0s7sJ5dm0Bn96lCB2UQTR77tC54q6TrnWd1wbqySCRAAiRAAiRAAiRAAiRAAiRwWBCgwBXVjMX5S06Uv6hDXWJ30gWLTpqSV4W5BAwkQAIkQAIkQAIkQAIkQAKHEgEKXFGthVmh5wRM+xWsrTW68KxlMT1QRUVP++61F92VXZpfOSYQzH5VB3RSi+6lvZDMgARIgARIgARIgARIgARIIC4BClwHoDEdywycYlqBqj59rGcnDlhy3gGnM/hjUn7l93Mac57BZM5KOAE5SfzxZDB7ZkUCJEACJEACJEACJEACJOADgS7lNAP+6eCfv3NlQHGFCXeXsljxoKClLywtWLbU1Wru/FXjYroA9qENDkhCzAftYLAEnqXGWmYw21Vh+G9FlBbfaQdEz8gPaRN4D+xS90pGKs5MSIAESIAESIAESIAESCBFAl1qEG2a9t8dt3EnFgw+0hFBox1X9CnWvc3LRdCBy+MslOU6Uzk/hpnhnPrshvsWPnedeJbxPYj5YFZD1khos6bCxf5Jkn9E2PI9p44kiBXq4BIe5dgJKZQu2juCjnFJgARIgARIgARIgARIAAQ6V53UqgnmVo95PKz0eUo5j0HYUbK2V2cGWS8HAqBod062rODinIacP04eUHmh32UqzV+S36OhxwoIN0ugyDpJ8pS8OzMIe7QB9H3uchNtUl5TJIuBMpAACZAACZAACZAACZAACXSAQOdKNDEKOr+m8B1oti4rza/6L8xbugVCyHdk4V4x8+usIGaGBv5Qlgux//zkgqoHwq5zx4LacRtTKdONeUtOcS37Bgg2otnKbtLqpZJi6teK+aCNhaMd5fxDm2p2+cqiJyBwdq70l3q1mAIJkAAJkAAJkAAJkAAJdAqBLqXh2k/A1OWrCn+32228wNHh6Ti+HaZ9omnaH6UT9kQgguYpB9qfwoAFb4YFVROKz63o0dGiyDWl+ct+6dr2K7YdHIs0O13YErbCGGG7o93pDdk9fzCveuzjFLY62rqMTwJxCVjxejB80YCTVAYSIAESIAESIIHDkUAXFbiaUC+unbC7vLpotnLVD1wdfhieI3SnmxliXpmY/FmmeaJlWncHeh5RjfldgxO9OUoGLBli98itQT0WQpg5MWI+2Ilz1aTcEaZiPqich0xlnV9ePWb2wueu3JVonRiPBEigfQJ43rdDsNqKmAf9QRDbGgwEoEpnIAESIAESIAESONwIdDmTwliA59UWvY/jV04uqPyt0mo6TPvOFjM/7MeKnpFjkbwj3gwD5yqtn52cX/kQBJfZd668Zn2sAhQPvO/UgHZuhmx1lWXZAQg3saJl9BgERgiOEfPB1aZphMpWFT6T0QIwMxLoRgSye/WcsHPnzpiarEAgoN/esCEtDnm6EWJWlQRIgARIgAS6JIFDQuDyyJVVFz4z5bx7X3SyG8djrtEkCF7HiuCiO1FDJPnjy3UAZRnhaGdw6YDKeb10uDIE7ZyUu3TwA7lGeG+RqdzJMB/8uuuK98HOFbZQ3ohWS2nnU3ggnG81BBbNfXXUVx5nbkmABPwn8M477zT6nypTJAESIAESIAES6OoEfBa40u9coVkwmFOct+gJbZvToJm5woa805lCjAh8YSVmhtYJth2Yt0cbl8HMcBpUcJbh1IdsO+t7opET88HODmI+iHXFXFc7DxuWurXshbEfprtMZxzzmX5jRydKxemuINMnARIgARIgARIgARIggTgEfBS4ROzQ4nVB5oWn3avd/NoJa5HPiJL8ykchzIQCVuAc8WTY2WaGkj+EmrMh0DwrE71sy7a7gvdBMR8UD4Tw+PgmPM7PgFOS5+LcE74ffvezY0zD+jI7cmf4njoTJAESIAESIAESIAESIIGuS8A3pxmuckXDc0ZpwbL/LRmw+KxMVXkeBAe1r0+eUuHrIOd9HLA735uhZ2YI0z27MzVv0gZiPihM4AlxGwTTib166jxhlqn2mZi/7Lt7rA/hWt74bmezyFSdmQ8JkAAJkAAJkAAJkAAJeAR81HBB3NHKxlymS5RlnT8lv+puV6kFcHix3cssXdv5rw3fh7QXFg9c/KztGjfCxHAERI3sdOWXSLqdOa/MKx/KkAN5y8E8rQfQOreXVRet886le3tTwd19XTO7GILetbYZ7O3A5JKBBEiABEiABEiABEiABLobAV8FLoEn5nMwXTsSJn43KyM8DCZ/t36vb59Hhi8fnnaXx/NXjhcPgYVwvf4EynCFcYzhmwbvULsx9jbmmD3NfTWNriquqCn8Q6bKP2zYY/bJ27/4Ge6CGUEj0N8xwrgnKGxlij/zIQESIAESIAESIAES6FoE0iKQyFwqcSJhm1Z/2zQf+MuOL58uKag8O1NVn1cz7o+9Vn08YsbyGeFM5dnV8jk279295TVFYytqxmRM2CrOW/rv/b7Y9aRpWQ/bhtVf7gFouLoaGpaHBEiABEiABEiABEiABDJGIC0Cl1d6OGiIOLGwzMAlyKgG62jNub5gwXHe+XRuQ0ZIYf5Stx3th0KhjC1SVjp4ybGlBZW3B2yrFit7/UgEbml7BhIgARIgARIgARIgARLo7gR8NymMBbTJzNDMta3glCyVe+nkAVWzcvWWR0K1oc5dkCpWYXksYQKhvFBgj3XClaZrTcVizqeLU4yu4JEx4QowIgmQAAmQAAmQAAmQAAmkmUCbGi7LCoiGKEtciqcaxLRM1qGC1umfTNv8NQbqz96QX/n9VNPl9Z1DYEre4v/Ya5/4DMwH70cJTpe2Fc1WqkHuNdwqWbZpd1vtZKoMeT0JkAAJkAAJkAAJkEDXIdCmhqt+75cbrJ65U2CZVxIws46HtztZayul0ssCwJIEvBkOxv75cKpRZdv23LkvjNqaUsK8OCMEppy38ASVnTUZHu/HQDjK9UujJe7roQE1oCX7xLR02c4dxgcZqRAzIQESIAESIAESIAESIIE0EpBFitsNxXmLTgvYwZsR8SoLS/n6tZ5SZJBtY5Dthjcqre/4apdxf+Xqok5zdFGav3Qolir+vR+amnahdiACmBvKdP6rfOXYpztwma9RC89aFuzdx7oKuk6YDwZORZulLHx7BcRC0YZSrmOa5sNht/HW5kWtvdPckgAJkAAJkAAJkAAJkMAhSyAhW0EZAJdVF440DOsSCCOvywDZFzNDDNkjZoamdUrADiw7so/5h0n5izrPzFCjWmZCMmhGGzxSJlMn1FbpKNgkmH4eeaT5LLxO3oP1zU6NmA+mqOmUcso9BE2noQz9Z8NUQ+dWjxlBYSsdLcg0SYAESIAESIAESIAEOotAhwbxZdWjn+/pBgZoV12PQfLHATtL5mSlXHYxMxStGRYsHmgbWdWTC5bdPSWv6hspJ9zBBExDfamVqhchoKsEKYvW7l7tmp9nukzF+UtOnJxftRiu/VdCyB4kbRQxCU2xIHLPBKws0ZBtg0li8c4vNueXVY99PsVkeTkJkAAJkAAJkAAJkAAJdDkCSUtLE/OWnBKw7KnQUlyNRYazZH6XH8EzM1TK2aQNNfczN+ve/6kdWe9H2omkMXnAPedZtjEdcQfLElJ+CBiJ5Ns6jpgRCgsweMHUjaE5qyb8qXWcdP0uPreiR6BH7gisYH0jhOBvutrxbT0tLIgtSwU0oOy/DpvhOc2LVaerKkyXBEiABEiABEiABEiABDqVQNICl1fqSQOWFliGGbLtwPniidAvASUicMC8Tyn1omuqmRXVRTVenuneNs1X0pivJAIl5itpzFcS6SsDQcwHxXmE0s5a7eo7TtulHyzK4Ly20ryqPDitCMHN+4XpaE9oyf6ktD29omZ0dQZwMgsSIAESIAESIAESIAES6FQCKQtcUvprL7orO6s+a5Rt2TdAQIFGxD8BReaLYeDfCK3IrzHF6rZ5q0bXZYrY1IKq47BQ2GSIWmPhptw3j3zxyi/mg65y90DMrAqY1p23V4/ZFi+u38dL8u852TLdm0zDGtmksfRnibQWAVK5ddpwy3KhsQxlUGPpNyemRwIkQAIkQAIkQAIkQAIdIeCLwOVlOGnwopMsJzAFjhXGwHQs23eX4drZAjO3ec6eXUvnvzZpn5dvureYy3ROwLBnQBC5WPLyS4vnlVu0eZF0DfWsVs6MeTXjV3vn0r0VYTm7occ409Slthk80Q/X/16ZI27etdOI3/eETT3nVyuLNnnnuCUBEiABEiABEiABEiCB7kDAV4HLA1Yy8N7zLa1mYn5Xvr9maRY829kG5hS9rkwjNG9l4R+9PNO9DYVC1t6Xj/8FfOvdhDJ8y4Wjj1Tdx0OAg/lgAG7xnTXaNG7t9YMtjyCf1FcPThBGyYVLB1m2OROC0bnQIPomSEbMQTH/DCmusmx35pwVY19KsEiMRgIkQAIkQAIkQAIkQAKHFYG0CFxCqElzErwKM5KmwlTuFMdnM0NomcIQvx5sbGi8bf4r49dnqlWuL1hwXED3mAj/8ePhUKJ3slq8iPmgdnbBU9+yhsaGsoUvX/dZpupQPHDxqUEVnAYh7woIxXB44qP5oAmzSB3ehClvtzZk1z+w8LnrxEEGAwmQAAmQAAmQAAmQAAl0SwJpE7g8mlOHLDs+HDYnYy5PETQfPZMVULz0vG3Em6E4l1DhbVihqtzcZy+b++qor7zz6d5OyVv679qyp8PHxVBovcTJRUJZQkgTz4MyL+33Spuz5tWMyZj5YChvUa9WsiPFAAAL4klEQVTdZrAQirUpATN4nLQFBL6Eyt1eJBEgIQTvRbx7wtqZO3/VuC3tXcPzJEACJEACJEACJEACJHC4E0i7wOUBLMlbdj6838HMMJAvx/yaByWL54oJG9J7w1R6+pyaDJoZGiFrV8HXh8n8LssK/ItoiuKZGUbMByPmkO57qP7MjUeveHz58uWuxyfd25IBlUMsy5qFxYvPEfZiQuhHaDEf1E6NazjTKjLovt6P8jMNEiABEiABEiABEiABEkgngYwJXFKJEASUvfknXKFN6xZ4/Tvdb2+GroLOyFSPKRfzu2qL3k8nuOi0i4fcc3TQda/TypyI+VBHNmnxPM2RLPIbNBzduAtauQXOXutX818bvSP6+nTuTxmw+FvaCtwCE7/L4UXS9Nt8EHVda2pzdq7G/LPaUGJqvnRWmGmTAAmQAAmQAAmQAAmQQBcikFGBy6v3RJgZBsLmJGReBKcRR/hqZmiLmaHzKQSM+ZallsxZWbTTyzfd29LBS/6f6QZDhqF/Ino3yQ+aJA3Pik9qOxwqXzHu7XSXwUsfc+h6ZzfkjMNcs2IwPs5xfTYfVM5umX8WNK2yTLqv9+rHLQmQAAmQAAmQAAmQAAkcCgQ6ReDywJQUVJ6NAsyAcHKJFEQ8//kRPDNDCHJ/s7QZmltT+Hs/0k0wDXPywMqfQM6aBY0WlF4qNK967OMJXutLtNL8e4ZC0zcLgta/Kaj7/DQfbCqges7QVmjuqtFv+FJgJkICJEACJEACJEACJEAChymBThW4hOmwYY/Z39zx5WW2NqdjHlR/uHyPOw+qo20gLtchbMB/u3rStJwZc1dOkPlTGQk3nr/4qPpAD72gduSXGckQmRQPuPtfbTNrGrRaP8WcsYB/5oMWzCIj7us/UKY7u5f7yW9pPpipVmU+JEACJEACJEACJEAChzKBThe4PHjX/uCuY7KyskuhkRrnp5khFmE2AjaEBeXugEOLCkftXbSgtjhjQpBXv3Rubxi47Ei4wBintTk5YAaOjjjv8NH7oAPzQZhFLgk22mV3vHxNxtzXp5MZ0yYBEiABEiABEiABEiCBTBDoMgKXV9nJeYv+zbCDIQhKP7YgLPllZtjiJVC5b8NL34x5NWN/hzw9zxZe9ofa1iwZsPS/4X0wBHfz3/ZjMWYPgGgHxeMi5mk9Ba/3M8teKPw/7xy3JEACJEACJEACJEACJEACiRHocgJXU7G1WTqgaphpmdOaBAkfzQyxDpYyMFdMG78LK2PWgtpDU5CAVuvb8Mk4A7wutQwbgqk/DgKbBFNoBLXzDhjdVrZqzG+Rx6EumCb2NDAWCZAACZAACZAACZAACfhMoIsKXE21HId5ULnZdrFpWBPgRv5omLbhhD9j/6aFep2d8Ga4EN7kfwU38tt9ZpuW5LCe2dew9NgvodW6DjOrjjrQBX0qWYr7ehG03B2Y+Ha3kwX39X/MnPv6VErOa0mABEiABEiABEiABEigqxLo0gKXB620oOpMy9C3wMxQnEFgPpaP2hxxrKGc9yB0hcprxixHHv5IdF7h/dtC61cJrZ8xwzaDZ/jtXETMB+Fg5EnDtGaWV4/5h3/FZkokQAIkQAIkQAIkQAIk0H0JHBICl9c8UwZU/gjLW4UsM/AdBRM6v9ydQ3sGvRn+0/oPpm3PmPvCqL94eXaFbUnBorMtHZwOxxU/FJf3fgmcnvt8iFp/U64zs7xmrLjP76oCZ1doCpaBBEiABEiABEiABEiABDpE4JASuKRmE/Pm9wlaub+EP41iaHpgZhjGUT9kBM+kztllaHNxfdiuWNjJHvkmFNzdN9fMmQyzx3G2afX2z6RS6hqE4Bb+QpnGAtfdc9fh5rmxQ08BI5MACZAACZAACZAACZBAmggccgKXx+H6AYu/lWUHZ0DW+hk0NZZfWh/PaQQEubWAc9vGvn0eXL58uD8rMnuFb2c7bNgwu9/ngy6Hj8BpQSurv5OOtclM81FlubPnrSh6v53i8DQJkAAJkAAJkAAJkAAJkECSBA5Zgcurb+nAqh/DtvAWOHw4C+7efTMztGBmGAkwM3RNHZpXXfiml2c6tyUFlWcj5xmGYV0ijeOXW/wW80Ed/psy9czylWOfTmc9mDYJkAAJkAAJkAAJkAAJkICsCnwYhNLBZbmm23sCqlMCM8NjYSonM7J8qVnE9E47e2HWt9hU4XlltRM+8SXhVolcX1B1XJbWpSj3BOTZo8lUslWkJH6aaGIb5oNwDPIZiFTkqsa7Q7UTdieRFC8hARIgARIgARIgARIgARLoIIHDQuDy6jypoLK/pc0b4WjwKjjCsP0zM2wRWta5Wt15hOr/P6HaAb64Sgzl1QR222uuRg43ocz/1OR90B9hURYvhmMRF6k9ZKnwHXNrxq/xWHFLAiRAAiRAAiRAAiRAAiSQfgKHlcDl4SoZWDnEMqyZlmF+r9nduXcqpW3EzBDEkOYLhuHMnls97hVokJKSjqDJMqcMWPp9w7RnWJY9CB4SIRz5M1XMMx+EOeIbSsMcclXhcylVnBeTAAmQAAmQAAmQAAmQAAkkReCwFLiExPi8Rb162IEiW8wMreDxjuufmSEcWRhh1fgFXP2dVb5izIZkyJcOrupnOOqNgJX1NUc1JpPEQdeI+WCTCWR4m1Z6zh7tVC2m+eBBnHiABEiABEiABEiABEiABDJFIJCpjDKdT7OgMa/0gqonddCZivldV8PELijzu1INza7oe2rX7pFsWnKtqd1cP8ojZWiap+WGYUb5ELRnt5XVFK1Ltmy8jgRIgARIgARIgARIgARIwB8Ch63A5eEpfymigRozOX/ZcqWMEISuc30y31O2KdOjkgtyrTJNldzV+68S80FxZa8M58/aMqaVrSxcuf8s90iABEiABEiABEiABEiABDqTgNWZmWcy77JVRStyVSAfPiTGYbbUFpjywQDv0LWojJgP2lnijXErHGP8MtcJ5pVT2MrkLcW8SIAESIAESIAESIAESKBdAoe9hiuaQKh2ZD1+L52Yt+R5wzJugGpoZMAMZPvlgj06r3Tui/mg1m495pE9YNrWncnOI0tnGZk2CZAACZAACZAACZAACZCAYXQrgctr8AW14zZifxwWTX4Uc57EzPBCn8wMvSzSshUviaZpijfDl/HvjHnVRTVpyYiJkgAJkAAJkAAJkAAJkAAJ+EKg25gUxqJVvnJMbX12/RCsfTUWpnmbAjDRE4GmqwUpU7DJfLDOgUlkrhsYPJfCVldrJpaHBEiABEiABEiABEiABA4i0C01XNEUFj53XQN+L5s0eNEf4Kb9Jkzrugau1buMmWHE+6B2GmH2eL8bDt9W8dKEj6LLz30SIAESIAESIAESIAESIIGuS6DbC1xe01SsiAgy40sLlj6IBYNnwcxwYGeaGXrmg4ZSK7Rph8qrR73mlZVbEiABEiABEiABEiABEiCBQ4NAtzYpjNVE5dVjX9v5pbpYue4oOKZYH/FmmEEzQzEflDyVoTYopcf02LZ5KIWtWC3FYyRAAiRAAiRAAiRAAiTQ9QlQwxWjjSpXF8nqyPeVDl7yjOM03mSZ5miY9vVKtzdDmDKKQ4yvlGq81wkbcxe8PPrjGMXjIRIgARIgARIgARIgARIggUOEAAWuNhqqfMW4T3G6GGaGj2nlzISZ3yCJrnXK6xUfkKtnPgiBboWy3BkV1eNfPyACf5AACZAACZAACZAACZAACRySBGhSmECziZnhxr59LnINdaU29fviMRDuDP1gZ4lnREkT5otX1vU96uKKlRS2EmgSRiEBEiABEiABEiABEiCBQ4IANVwJNtPy5cNdRH34+oIFK7XKKYXENULZWBgryaCg1jKVudtxGxbrgJpb1qRNSzI1XkYCJEACJEACJEACJEACJEAChxGB6wsWn1k85J6jk62SXFtaUHVmstfzOhIgARIgARIgARIgARIgARIgARIgARIgARIgARIgARIgARIgARIgARIgARIgARIgARIgARIgARIgARIgARIgARIgARIgARIgARIgARIgARIgARIgARIgARIgARIgARLozgT+P50o+Af9pAejAAAAAElFTkSuQmCC;fontSize=12;fontFamily=Verdana;" parent="IfvViQirqnI56DDQwfop-1" vertex="1">
          <mxGeometry x="1000" y="20" width="152.31" height="34.53" as="geometry" />
        </mxCell>
        <mxCell id="9IRngdyGLmnhLUa79E48-0" value="" style="aspect=fixed;perimeter=ellipsePerimeter;html=1;align=center;shadow=0;dashed=0;fontColor=#4277BB;labelBackgroundColor=#ffffff;fontSize=12;spacingTop=3;image;image=img/lib/ibm/vpc/Enterprise.svg;rounded=0;glass=0;comic=0;fillColor=#FFFFFF;fontFamily=Verdana;" parent="IfvViQirqnI56DDQwfop-1" vertex="1">
          <mxGeometry x="30" y="15" width="40" height="40" as="geometry" />
        </mxCell>
      </root>
    </mxGraphModel>
  </diagram>
</mxfile>
